# Vertices
v 13141358.901458 4413626.837185 -15.535400
v 13141416.930458 4413626.837185 -9.054216
v 13141512.978458 4413626.837185 5.124128
v 13141412.928458 4413624.836185 -9.373545
v 13141374.909458 4413610.829185 -13.229017
v 13141358.901458 4413594.821185 -14.411120
v 13141390.917458 4413594.821185 -8.775250
v 13141358.901458 4413592.820185 -14.270870
v 13141362.903458 4413590.819185 -13.495123
v 13141366.905458 4413586.817185 -12.110512
v 13141358.901458 4413580.814185 -13.234493
v 13141360.902458 4413580.814185 -12.888447
v 13141374.909458 4413578.813185 -9.304438
v 13141362.903458 4413574.811185 -11.858481
v 13141366.905458 4413570.809185 -10.158585
v 13141398.921458 4413570.809185 -4.082529
v 13141478.961458 4413570.809185 8.111398
v 13141358.901458 4413564.806185 -11.327893
v 13141360.902458 4413564.806185 -10.935370
v 13141422.933458 4413562.805185 1.046336
v 13141358.901458 4413560.804185 -10.760834
v 13141360.902458 4413560.804185 -10.358487
v 13141358.901458 4413558.803185 -10.464485
v 13141362.903458 4413558.803185 -9.650890
v 13141512.978458 4413556.802185 12.698343
v 13141510.977458 4413554.801185 12.723276
v 13141360.902458 4413552.800185 -9.106721
v 13141362.903458 4413550.799185 -8.352311
v 13141502.973458 4413546.797185 13.149863
v 13141360.902458 4413540.794185 -7.008062
v 13141366.905458 4413538.793185 -4.780865
v 13141398.921458 4413538.793185 1.184324
v 13141390.917458 4413530.789185 2.026893
v 13141454.949458 4413530.789185 11.016770
v 13141360.902458 4413528.788185 -4.685230
v 13141418.931458 4413526.787185 7.068808
v 13141494.969458 4413522.785185 14.430166
v 13141358.901458 4413518.783185 -3.063047
v 13141402.923458 4413518.783185 5.970389
v 13141418.931458 4413518.783185 8.634967
v 13141416.930458 4413516.782185 8.722348
v 13141374.909458 4413514.781185 1.326274
v 13141404.924458 4413514.781185 7.157159
v 13141406.925458 4413514.781185 8.476082
v 13141470.957458 4413514.781185 14.685279
v 13141374.909458 4413482.765185 8.832222
v 13141406.925458 4413482.765185 15.131905
v 13141438.941458 4413482.765185 17.699892
v 13141358.901458 4413474.761185 7.519607
v 13141398.921458 4413474.761185 14.577568
v 13141430.937458 4413474.761185 17.632417
v 13141462.953458 4413474.761185 18.581284
v 13141512.978458 4413474.761185 16.204451

# Normals
vn -0.110398 0.043047 0.992955
vn -0.136944 0.121293 0.983125
vn -0.117074 0.123620 0.985399
vn -0.136000 0.100037 0.985645
vn -0.150822 0.081635 0.985184
vn -0.138032 0.060147 0.988600
vn -0.165840 0.132181 0.977254
vn -0.152463 0.077056 0.985301
vn -0.178699 0.091113 0.979676
vn -0.210468 0.112087 0.971154
vn -0.162349 0.101698 0.981479
vn -0.197192 0.100837 0.975165
vn -0.206601 0.124576 0.970462
vn -0.214268 0.120462 0.969318
vn -0.227621 0.120203 0.966302
vn -0.176594 0.129313 0.975752
vn -0.111016 0.129019 0.985408
vn -0.181167 0.127485 0.975154
vn -0.215374 0.134959 0.967161
vn -0.152521 0.154222 0.976193
vn -0.193645 0.140446 0.970967
vn -0.197596 0.142266 0.969905
vn -0.160409 0.159154 0.974135
vn -0.205482 0.142240 0.968269
vn -0.070281 0.084443 0.993947
vn -0.036046 0.074763 0.996550
vn -0.187485 0.162339 0.968760
vn -0.214696 0.178505 0.960230
vn -0.058014 0.095657 0.993722
vn -0.189785 0.179616 0.965256
vn -0.233029 0.200194 0.951641
vn -0.170798 0.196123 0.965590
vn -0.170510 0.199839 0.964878
vn -0.099279 0.154950 0.982921
vn -0.226217 0.181947 0.956933
vn -0.150992 0.188282 0.970439
vn -0.020224 0.077457 0.996791
vn -0.165293 0.204311 0.964850
vn -0.213634 0.196709 0.956904
vn -0.132391 0.182670 0.974220
vn -0.116412 0.236459 0.964643
vn -0.205559 0.187036 0.960606
vn -0.338206 0.160808 0.927231
vn -0.331336 0.206936 0.920540
vn -0.014666 0.111733 0.993630
vn -0.189244 0.201862 0.960957
vn -0.180030 0.149425 0.972246
vn -0.073381 0.129874 0.988811
vn -0.181894 0.206111 0.961474
vn -0.152889 0.111304 0.981955
vn -0.068151 0.039556 0.996891
vn 0.004568 0.068837 0.997617
vn 0.008562 0.052622 0.998578

# Faces
f 5//5 6//6 9//9
f 11//11 9//9 8//8
f 35//35 38//38 42//42
f 42//42 46//46 43//43
f 44//44 43//43 47//47
f 12//12 11//11 14//14
f 18//18 14//14 11//11
f 21//21 19//19 18//18
f 27//27 23//23 30//30
f 1//1 4//4 2//2
f 42//42 38//38 46//46
f 30//30 35//35 31//31
f 35//35 30//30 38//38
f 42//42 31//31 35//35
f 44//44 47//47 41//41
f 40//40 41//41 48//48
f 26//26 25//25 17//17
f 17//17 2//2 20//20
f 3//3 2//2 17//17
f 5//5 1//1 6//6
f 31//31 28//28 30//30
f 22//22 23//23 24//24
f 27//27 24//24 23//23
f 23//23 22//22 21//21
f 19//19 22//22 24//24
f 19//19 21//21 22//22
f 19//19 14//14 18//18
f 33//33 42//42 39//39
f 39//39 42//42 43//43
f 8//8 9//9 6//6
f 9//9 12//12 10//10
f 20//20 36//36 34//34
f 20//20 32//32 36//36
f 47//47 48//48 41//41
f 48//48 34//34 40//40
f 48//48 52//52 45//45
f 14//14 10//10 12//12
f 14//14 19//19 15//15
f 12//12 9//9 11//11
f 27//27 30//30 28//28
f 28//28 24//24 27//27
f 24//24 28//28 32//32
f 32//32 33//33 39//39
f 40//40 36//36 41//41
f 31//31 32//32 28//28
f 33//33 32//32 31//31
f 51//51 47//47 50//50
f 10//10 14//14 13//13
f 23//23 38//38 30//30
f 5//5 7//7 4//4
f 1//1 5//5 4//4
f 45//45 53//53 37//37
f 29//29 37//37 26//26
f 26//26 17//17 29//29
f 3//3 17//17 25//25
f 15//15 24//24 16//16
f 16//16 24//24 32//32
f 24//24 15//15 19//19
f 13//13 15//15 16//16
f 53//53 26//26 37//37
f 26//26 53//53 25//25
f 48//48 51//51 52//52
f 47//47 46//46 50//50
f 48//48 47//47 51//51
f 53//53 45//45 52//52
f 29//29 34//34 37//37
f 40//40 34//34 36//36
f 20//20 16//16 32//32
f 49//49 50//50 46//46
f 34//34 48//48 45//45
f 44//44 39//39 43//43
f 36//36 39//39 41//41
f 15//15 13//13 14//14
f 49//49 46//46 38//38
f 45//45 37//37 34//34
f 29//29 17//17 34//34
f 13//13 7//7 10//10
f 10//10 7//7 5//5
f 44//44 41//41 39//39
f 46//46 47//47 43//43
f 4//4 20//20 2//2
f 10//10 5//5 9//9
f 32//32 39//39 36//36
f 20//20 7//7 16//16
f 7//7 20//20 4//4
f 7//7 13//13 16//16
f 20//20 34//34 17//17
f 42//42 33//33 31//31
