# Vertices
v 13141358.900958 4413634.760685 -24.395725
v 13141368.900958 4413634.760685 -31.711878
v 13141378.900958 4413634.760685 -32.897879
v 13141388.900958 4413634.760685 -33.041903
v 13141398.900958 4413634.760685 -36.399716
v 13141408.900958 4413634.760685 -30.368145
v 13141418.900958 4413634.760685 -29.751304
v 13141428.900958 4413634.760685 -29.026825
v 13141438.900958 4413634.760685 -22.807227
v 13141448.900958 4413634.760685 -18.153887
v 13141458.900958 4413634.760685 -21.141648
v 13141468.900958 4413634.760685 -19.182865
v 13141478.900958 4413634.760685 -25.063898
v 13141488.900958 4413634.760685 -28.937378
v 13141498.900958 4413634.760685 -23.284035
v 13141508.900958 4413634.760685 -21.394312
v 13141358.900958 4413624.760685 -17.225274
v 13141368.900958 4413624.760685 -34.351201
v 13141378.900958 4413624.760685 -44.367738
v 13141388.900958 4413624.760685 -35.585627
v 13141398.900958 4413624.760685 -45.853308
v 13141408.900958 4413624.760685 -29.242770
v 13141418.900958 4413624.760685 -18.854520
v 13141428.900958 4413624.760685 -25.713211
v 13141438.900958 4413624.760685 -11.610498
v 13141448.900958 4413624.760685 -22.860570
v 13141458.900958 4413624.760685 -12.798789
v 13141468.900958 4413624.760685 -27.590357
v 13141478.900958 4413624.760685 -34.810093
v 13141488.900958 4413624.760685 -23.357458
v 13141498.900958 4413624.760685 -31.147357
v 13141508.900958 4413624.760685 -12.309386
v 13141358.900958 4413614.760685 -26.201111
v 13141368.900958 4413614.760685 -34.776045
v 13141378.900958 4413614.760685 -36.234497
v 13141388.900958 4413614.760685 -34.328939
v 13141398.900958 4413614.760685 -34.162205
v 13141408.900958 4413614.760685 -24.111856
v 13141418.900958 4413614.760685 -20.852688
v 13141428.900958 4413614.760685 -19.432955
v 13141438.900958 4413614.760685 -14.774459
v 13141448.900958 4413614.760685 -19.387348
v 13141458.900958 4413614.760685 -19.594320
v 13141468.900958 4413614.760685 -26.785736
v 13141478.900958 4413614.760685 -25.571266
v 13141488.900958 4413614.760685 -21.168529
v 13141498.900958 4413614.760685 -18.516021
v 13141508.900958 4413614.760685 -6.439873
v 13141358.900958 4413604.760685 -17.341619
v 13141368.900958 4413604.760685 -33.083065
v 13141378.900958 4413604.760685 -24.895824
v 13141388.900958 4413604.760685 -35.883205
v 13141398.900958 4413604.760685 -18.933171
v 13141408.900958 4413604.760685 -22.827929
v 13141418.900958 4413604.760685 -20.143428
v 13141428.900958 4413604.760685 -4.938827
v 13141438.900958 4413604.760685 -16.983324
v 13141448.900958 4413604.760685 -8.424064
v 13141458.900958 4413604.760685 -8.632831
v 13141468.900958 4413604.760685 -23.905400
v 13141478.900958 4413604.760685 -29.117854
v 13141488.900958 4413604.760685 -14.252189
v 13141498.900958 4413604.760685 -18.366578
v 13141508.900958 4413604.760685 3.094743
v 13141358.900958 4413594.760685 -23.351667
v 13141368.900958 4413594.760685 -28.921863
v 13141378.900958 4413594.760685 -27.063010
v 13141388.900958 4413594.760685 -27.822836
v 13141398.900958 4413594.760685 -18.239568
v 13141408.900958 4413594.760685 -13.768890
v 13141418.900958 4413594.760685 -4.277062
v 13141428.900958 4413594.760685 0.654523
v 13141438.900958 4413594.760685 -4.646406
v 13141448.900958 4413594.760685 -5.559793
v 13141458.900958 4413594.760685 -13.371847
v 13141468.900958 4413594.760685 -18.584444
v 13141478.900958 4413594.760685 -13.798907
v 13141488.900958 4413594.760685 -5.601113
v 13141498.900958 4413594.760685 -0.428905
v 13141508.900958 4413594.760685 12.381807
v 13141358.900958 4413584.760685 -27.869611
v 13141368.900958 4413584.760685 -17.116809
v 13141378.900958 4413584.760685 -28.549633
v 13141388.900958 4413584.760685 -13.381418
v 13141398.900958 4413584.760685 -2.937736
v 13141408.900958 4413584.760685 -8.138947
v 13141418.900958 4413584.760685 -8.399413
v 13141428.900958 4413584.760685 3.354945
v 13141438.900958 4413584.760685 -11.402367
v 13141448.900958 4413584.760685 -3.539351
v 13141458.900958 4413584.760685 -1.748374
v 13141468.900958 4413584.760685 -13.391617
v 13141478.900958 4413584.760685 0.972184
v 13141488.900958 4413584.760685 -4.922800
v 13141498.900958 4413584.760685 14.949607
v 13141508.900958 4413584.760685 11.494529
v 13141358.900958 4413574.760685 -16.666491
v 13141368.900958 4413574.760685 -13.740475
v 13141378.900958 4413574.760685 -15.868298
v 13141388.900958 4413574.760685 -9.297417
v 13141398.900958 4413574.760685 -7.975985
v 13141408.900958 4413574.760685 -6.466810
v 13141418.900958 4413574.760685 -0.423767
v 13141428.900958 4413574.760685 2.054855
v 13141438.900958 4413574.760685 -3.978929
v 13141448.900958 4413574.760685 -3.029535
v 13141458.900958 4413574.760685 -7.197716
v 13141468.900958 4413574.760685 -8.793652
v 13141478.900958 4413574.760685 -2.106581
v 13141488.900958 4413574.760685 0.164873
v 13141498.900958 4413574.760685 10.391538
v 13141508.900958 4413574.760685 13.505162
v 13141358.900958 4413564.760685 -22.822029
v 13141368.900958 4413564.760685 -11.169279
v 13141378.900958 4413564.760685 -21.819896
v 13141388.900958 4413564.760685 -7.607570
v 13141398.900958 4413564.760685 0.124191
v 13141408.900958 4413564.760685 -8.639993
v 13141418.900958 4413564.760685 4.202137
v 13141428.900958 4413564.760685 -8.113755
v 13141438.900958 4413564.760685 2.300020
v 13141448.900958 4413564.760685 -9.611880
v 13141458.900958 4413564.760685 -12.484692
v 13141468.900958 4413564.760685 1.512274
v 13141478.900958 4413564.760685 -6.906738
v 13141488.900958 4413564.760685 9.331189
v 13141498.900958 4413564.760685 18.828772
v 13141508.900958 4413564.760685 11.522906
v 13141358.900958 4413554.760685 -13.023234
v 13141368.900958 4413554.760685 -9.601393
v 13141378.900958 4413554.760685 -11.724504
v 13141388.900958 4413554.760685 -6.275370
v 13141398.900958 4413554.760685 -7.819826
v 13141408.900958 4413554.760685 -9.670917
v 13141418.900958 4413554.760685 -6.115740
v 13141428.900958 4413554.760685 -9.623671
v 13141438.900958 4413554.760685 -6.008804
v 13141448.900958 4413554.760685 -7.783870
v 13141458.900958 4413554.760685 -2.013603
v 13141468.900958 4413554.760685 3.566666
v 13141478.900958 4413554.760685 3.640945
v 13141488.900958 4413554.760685 10.877855
v 13141498.900958 4413554.760685 11.096104
v 13141508.900958 4413554.760685 10.652870
v 13141358.900958 4413544.760685 -3.678477
v 13141368.900958 4413544.760685 -14.072140
v 13141378.900958 4413544.760685 0.182980
v 13141388.900958 4413544.760685 -8.751826
v 13141398.900958 4413544.760685 -11.429535
v 13141408.900958 4413544.760685 0.272069
v 13141418.900958 4413544.760685 -12.277552
v 13141428.900958 4413544.760685 -1.105613
v 13141438.900958 4413544.760685 3.914215
v 13141448.900958 4413544.760685 -6.006313
v 13141458.900958 4413544.760685 -8.009159
v 13141468.900958 4413544.760685 7.071882
v 13141478.900958 4413544.760685 -0.059903
v 13141488.900958 4413544.760685 16.095499
v 13141498.900958 4413544.760685 23.464623
v 13141508.900958 4413544.760685 12.978997
v 13141358.900958 4413534.760685 -9.580059
v 13141368.900958 4413534.760685 -9.507449
v 13141378.900958 4413534.760685 -1.700250
v 13141388.900958 4413534.760685 -1.414432
v 13141398.900958 4413534.760685 3.147225
v 13141408.900958 4413534.760685 4.715751
v 13141418.900958 4413534.760685 -0.992350
v 13141428.900958 4413534.760685 0.604883
v 13141438.900958 4413534.760685 -2.768900
v 13141448.900958 4413534.760685 -4.042135
v 13141458.900958 4413534.760685 3.072307
v 13141468.900958 4413534.760685 11.692688
v 13141478.900958 4413534.760685 14.740550
v 13141488.900958 4413534.760685 23.081143
v 13141498.900958 4413534.760685 21.430112
v 13141508.900958 4413534.760685 17.553840
v 13141358.900958 4413524.760685 -14.564739
v 13141368.900958 4413524.760685 2.444268
v 13141378.900958 4413524.760685 12.294486
v 13141388.900958 4413524.760685 3.853475
v 13141398.900958 4413524.760685 -0.966216
v 13141408.900958 4413524.760685 7.185291
v 13141418.900958 4413524.760685 -8.642433
v 13141428.900958 4413524.760685 0.678225
v 13141438.900958 4413524.760685 5.479576
v 13141448.900958 4413524.760685 -3.239960
v 13141458.900958 4413524.760685 13.803908
v 13141468.900958 4413524.760685 9.316558
v 13141478.900958 4413524.760685 28.229768
v 13141488.900958 4413524.760685 21.238661
v 13141498.900958 4413524.760685 17.598389
v 13141508.900958 4413524.760685 26.620422
v 13141358.900958 4413514.760685 -4.332991
v 13141368.900958 4413514.760685 5.237922
v 13141378.900958 4413514.760685 6.792506
v 13141388.900958 4413514.760685 5.514044
v 13141398.900958 4413514.760685 6.837303
v 13141408.900958 4413514.760685 4.916296
v 13141418.900958 4413514.760685 -3.373315
v 13141428.900958 4413514.760685 -2.211520
v 13141438.900958 4413514.760685 -4.391737
v 13141448.900958 4413514.760685 -2.884269
v 13141458.900958 4413514.760685 7.706289
v 13141468.900958 4413514.760685 12.529470
v 13141478.900958 4413514.760685 22.614319
v 13141488.900958 4413514.760685 22.641317
v 13141498.900958 4413514.760685 24.979477
v 13141508.900958 4413514.760685 23.692933
v 13141358.900958 4413504.760685 -11.841570
v 13141368.900958 4413504.760685 5.946569
v 13141378.900958 4413504.760685 14.038933
v 13141388.900958 4413504.760685 2.381055
v 13141398.900958 4413504.760685 9.986027
v 13141408.900958 4413504.760685 -7.754689
v 13141418.900958 4413504.760685 -0.844068
v 13141428.900958 4413504.760685 -13.369807
v 13141438.900958 4413504.760685 -14.173064
v 13141448.900958 4413504.760685 4.115231
v 13141458.900958 4413504.760685 0.763211
v 13141468.900958 4413504.760685 20.121469
v 13141478.900958 4413504.760685 29.603402
v 13141488.900958 4413504.760685 19.109951
v 13141498.900958 4413504.760685 11.653625
v 13141508.900958 4413504.760685 17.862685
v 13141358.900958 4413494.760685 -3.670632
v 13141368.900958 4413494.760685 4.264174
v 13141378.900958 4413494.760685 2.320469
v 13141388.900958 4413494.760685 -2.615928
v 13141398.900958 4413494.760685 -4.273661
v 13141408.900958 4413494.760685 -13.370430
v 13141418.900958 4413494.760685 -13.558217
v 13141428.900958 4413494.760685 -15.737068
v 13141438.900958 4413494.760685 -6.756613
v 13141448.900958 4413494.760685 4.039346
v 13141458.900958 4413494.760685 8.795448
v 13141468.900958 4413494.760685 18.063008
v 13141478.900958 4413494.760685 17.511998
v 13141488.900958 4413494.760685 13.702017
v 13141498.900958 4413494.760685 13.255106
v 13141508.900958 4413494.760685 11.194166
v 13141358.900958 4413484.760685 3.955053
v 13141368.900958 4413484.760685 -5.045668
v 13141378.900958 4413484.760685 -9.007778
v 13141388.900958 4413484.760685 0.172068
v 13141398.900958 4413484.760685 -16.192418
v 13141408.900958 4413484.760685 -9.060426
v 13141418.900958 4413484.760685 -6.419764
v 13141428.900958 4413484.760685 -15.371771
v 13141438.900958 4413484.760685 -13.389931
v 13141448.900958 4413484.760685 5.614172
v 13141458.900958 4413484.760685 0.228631
v 13141468.900958 4413484.760685 15.870722
v 13141478.900958 4413484.760685 21.598650
v 13141488.900958 4413484.760685 8.328985
v 13141498.900958 4413484.760685 15.959532
v 13141508.900958 4413484.760685 0.109566

# Normals
vn 0.013553 0.999908 0.000043
vn 0.000000 0.000000 0.000000
vn 0.000000 0.000000 0.000000
vn 0.000000 0.000000 0.000000
vn 0.000000 0.000000 0.000000
vn 0.000000 0.000000 0.000000
vn 0.000000 0.000000 0.000000
vn 0.000000 0.000000 0.000000
vn 0.000000 0.000000 0.000000
vn 0.000000 0.000000 0.000000
vn 0.000000 0.000000 0.000000
vn 0.000000 0.000000 0.000000
vn 0.000000 0.000000 0.000000
vn 0.000000 0.000000 0.000000
vn 0.000000 0.000000 0.000000
vn -0.111047 0.993815 0.000050
vn 0.000000 0.000000 0.000000
vn 0.000000 0.000000 0.000000
vn 0.000000 0.000000 0.000000
vn 0.000000 0.000000 0.000000
vn 0.000000 0.000000 0.000000
vn 0.000000 0.000000 0.000000
vn 0.000000 0.000000 0.000000
vn 0.000000 0.000000 0.000000
vn 0.000000 0.000000 0.000000
vn 0.000000 0.000000 0.000000
vn 0.000000 0.000000 0.000000
vn 0.000000 0.000000 0.000000
vn 0.000000 0.000000 0.000000
vn 0.000000 0.000000 0.000000
vn 0.000000 0.000000 0.000000
vn 0.000000 0.000000 0.000000
vn 0.000000 0.000000 0.000000
vn 0.000000 0.000000 0.000000
vn 0.000000 0.000000 0.000000
vn 0.000000 0.000000 0.000000
vn 0.000000 0.000000 0.000000
vn 0.000000 0.000000 0.000000
vn 0.000000 0.000000 0.000000
vn 0.000000 0.000000 0.000000
vn 0.000000 0.000000 0.000000
vn 0.000000 0.000000 0.000000
vn 0.000000 0.000000 0.000000
vn 0.000000 0.000000 0.000000
vn 0.000000 0.000000 0.000000
vn 0.000000 0.000000 0.000000
vn 0.000000 0.000000 0.000000
vn 0.000000 0.000000 0.000000
vn 0.000000 0.000000 0.000000
vn 0.000000 0.000000 0.000000
vn 0.000000 0.000000 0.000000
vn 0.000000 0.000000 0.000000
vn 0.000000 0.000000 0.000000
vn 0.000000 0.000000 0.000000
vn 0.000000 0.000000 0.000000
vn 0.000000 0.000000 0.000000
vn 0.000000 0.000000 0.000000
vn 0.000000 0.000000 0.000000
vn 0.000000 0.000000 0.000000
vn 0.000000 0.000000 0.000000
vn 0.000000 0.000000 0.000000
vn 0.000000 0.000000 0.000000
vn 0.000000 0.000000 0.000000
vn 0.000000 0.000000 0.000000
vn 0.000000 0.000000 0.000000
vn 0.000000 0.000000 0.000000
vn 0.000000 0.000000 0.000000
vn 0.000000 0.000000 0.000000
vn 0.000000 0.000000 0.000000
vn 0.000000 0.000000 0.000000
vn 0.000000 0.000000 0.000000
vn 0.000000 0.000000 0.000000
vn 0.000000 0.000000 0.000000
vn 0.000000 0.000000 0.000000
vn 0.000000 0.000000 0.000000
vn 0.000000 0.000000 0.000000
vn 0.000000 0.000000 0.000000
vn 0.000000 0.000000 0.000000
vn 0.000000 0.000000 0.000000
vn 0.000000 0.000000 0.000000
vn 0.000000 0.000000 0.000000
vn 0.000000 0.000000 0.000000
vn 0.000000 0.000000 0.000000
vn 0.000000 0.000000 0.000000
vn 0.000000 0.000000 0.000000
vn 0.000000 0.000000 0.000000
vn 0.000000 0.000000 0.000000
vn 0.000000 0.000000 0.000000
vn 0.000000 0.000000 0.000000
vn 0.000000 0.000000 0.000000
vn 0.000000 0.000000 0.000000
vn 0.000000 0.000000 0.000000
vn 0.000000 0.000000 0.000000
vn 0.000000 0.000000 0.000000
vn 0.000000 0.000000 0.000000
vn 0.000000 0.000000 0.000000
vn 0.000000 0.000000 0.000000
vn 0.000000 0.000000 0.000000
vn 0.000000 0.000000 0.000000
vn 0.000000 0.000000 0.000000
vn 0.000000 0.000000 0.000000
vn 0.000000 0.000000 0.000000
vn 0.000000 0.000000 0.000000
vn 0.000000 0.000000 0.000000
vn 0.000000 0.000000 0.000000
vn 0.000000 0.000000 0.000000
vn 0.000000 0.000000 0.000000
vn 0.000000 0.000000 0.000000
vn 0.000000 0.000000 0.000000
vn 0.000000 0.000000 0.000000
vn 0.000000 0.000000 0.000000
vn 0.000000 0.000000 0.000000
vn 0.000000 0.000000 0.000000
vn 0.000000 0.000000 0.000000
vn 0.000000 0.000000 0.000000
vn 0.000000 0.000000 0.000000
vn 0.000000 0.000000 0.000000
vn 0.000000 0.000000 0.000000
vn 0.000000 0.000000 0.000000
vn 0.000000 0.000000 0.000000
vn 0.000000 0.000000 0.000000
vn 0.000000 0.000000 0.000000
vn 0.000000 0.000000 0.000000
vn 0.000000 0.000000 0.000000
vn 0.000000 0.000000 0.000000
vn 0.000000 0.000000 0.000000
vn 0.000000 0.000000 0.000000
vn 0.000000 0.000000 0.000000
vn 0.000000 0.000000 0.000000
vn 0.000000 0.000000 0.000000
vn 0.000000 0.000000 0.000000
vn 0.000000 0.000000 0.000000
vn 0.000000 0.000000 0.000000
vn 0.000000 0.000000 0.000000
vn 0.000000 0.000000 0.000000
vn 0.000000 0.000000 0.000000
vn 0.000000 0.000000 0.000000
vn 0.000000 0.000000 0.000000
vn 0.000000 0.000000 0.000000
vn 0.000000 0.000000 0.000000
vn 0.000000 0.000000 0.000000
vn 0.000000 0.000000 0.000000
vn 0.000000 0.000000 0.000000
vn 0.000000 0.000000 0.000000
vn 0.000000 0.000000 0.000000
vn 0.000000 0.000000 0.000000
vn 0.000000 0.000000 0.000000
vn 0.000000 0.000000 0.000000
vn 0.000000 0.000000 0.000000
vn 0.000000 0.000000 0.000000
vn 0.000000 0.000000 0.000000
vn 0.000000 0.000000 0.000000
vn 0.000000 0.000000 0.000000
vn 0.000000 0.000000 0.000000
vn 0.000000 0.000000 0.000000
vn 0.000000 0.000000 0.000000
vn 0.000000 0.000000 0.000000
vn 0.000000 0.000000 0.000000
vn 0.000000 0.000000 0.000000
vn 0.000000 0.000000 0.000000
vn 0.000000 0.000000 0.000000
vn 0.000000 0.000000 0.000000
vn 0.000000 0.000000 0.000000
vn 0.000000 0.000000 0.000000
vn 0.000000 0.000000 0.000000
vn 0.000000 0.000000 0.000000
vn 0.000000 0.000000 0.000000
vn 0.000000 0.000000 0.000000
vn 0.000000 0.000000 0.000000
vn 0.000000 0.000000 0.000000
vn 0.000000 0.000000 0.000000
vn 0.000000 0.000000 0.000000
vn 0.000000 0.000000 0.000000
vn 0.000000 0.000000 0.000000
vn 0.000000 0.000000 0.000000
vn 0.000000 0.000000 0.000000
vn 0.000000 0.000000 0.000000
vn 0.000000 0.000000 0.000000
vn 0.000000 0.000000 0.000000
vn 0.000000 0.000000 0.000000
vn 0.000000 0.000000 0.000000
vn 0.000000 0.000000 0.000000
vn 0.000000 0.000000 0.000000
vn 0.000000 0.000000 0.000000
vn 0.000000 0.000000 0.000000
vn 0.000000 0.000000 0.000000
vn 0.000000 0.000000 0.000000
vn 0.000000 0.000000 0.000000
vn 0.000000 0.000000 0.000000
vn 0.000000 0.000000 0.000000
vn 0.000000 0.000000 0.000000
vn 0.000000 0.000000 0.000000
vn 0.000000 0.000000 0.000000
vn 0.000000 0.000000 0.000000
vn 0.000000 0.000000 0.000000
vn 0.000000 0.000000 0.000000
vn 0.000000 0.000000 0.000000
vn 0.000000 0.000000 0.000000
vn 0.000000 0.000000 0.000000
vn 0.000000 0.000000 0.000000
vn 0.000000 0.000000 0.000000
vn 0.000000 0.000000 0.000000
vn 0.000000 0.000000 0.000000
vn 0.000000 0.000000 0.000000
vn 0.000000 0.000000 0.000000
vn 0.000000 0.000000 0.000000
vn 0.000000 0.000000 0.000000
vn 0.000000 0.000000 0.000000
vn 0.000000 0.000000 0.000000
vn 0.000000 0.000000 0.000000
vn 0.000000 0.000000 0.000000
vn 0.000000 0.000000 0.000000
vn 0.000000 0.000000 0.000000
vn 0.000000 0.000000 0.000000
vn 0.000000 0.000000 0.000000
vn 0.000000 0.000000 0.000000
vn 0.000000 0.000000 0.000000
vn 0.000000 0.000000 0.000000
vn 0.000000 0.000000 0.000000
vn 0.000000 0.000000 0.000000
vn 0.000000 0.000000 0.000000
vn 0.000000 0.000000 0.000000
vn 0.000000 0.000000 0.000000
vn 0.000000 0.000000 0.000000
vn 0.000000 0.000000 0.000000
vn 0.000000 0.000000 0.000000
vn 0.000000 0.000000 0.000000
vn 0.000000 0.000000 0.000000
vn 0.000000 0.000000 0.000000
vn 0.000000 0.000000 0.000000
vn 0.000000 0.000000 0.000000
vn 0.000000 0.000000 0.000000
vn 0.000000 0.000000 0.000000
vn 0.000000 0.000000 0.000000
vn 0.000000 0.000000 0.000000
vn 0.000000 0.000000 0.000000
vn 0.000000 0.000000 0.000000
vn 0.000000 0.000000 0.000000
vn 0.000000 0.000000 0.000000
vn 0.000000 0.000000 0.000000
vn 0.107953 0.994156 0.000038
vn 0.000000 0.000000 0.000000
vn 0.000000 0.000000 0.000000
vn 0.000000 0.000000 0.000000
vn 0.000000 0.000000 0.000000
vn 0.000000 0.000000 0.000000
vn 0.000000 0.000000 0.000000
vn 0.000000 0.000000 0.000000
vn 0.000000 0.000000 0.000000
vn 0.000000 0.000000 0.000000
vn 0.000000 0.000000 0.000000
vn 0.000000 0.000000 0.000000
vn 0.000000 0.000000 0.000000
vn 0.000000 0.000000 0.000000
vn 0.000000 0.000000 0.000000
vn 0.013553 0.999908 0.000043

# Faces
f 1//1 256//256 16//16
f 256//256 1//1 241//241
