# Vertices
v 13141358.900958 4413494.760685 3.954839
v 13141368.900958 4413494.760685 -5.045882
v 13141378.900958 4413494.760685 -9.007992
v 13141388.900958 4413494.760685 0.171855
v 13141398.900958 4413494.760685 -16.192632
v 13141408.900958 4413494.760685 -9.060639
v 13141418.900958 4413494.760685 -6.419978
v 13141428.900958 4413494.760685 -15.371985
v 13141438.900958 4413494.760685 -13.390145
v 13141448.900958 4413494.760685 5.613959
v 13141458.900958 4413494.760685 0.228417
v 13141468.900958 4413494.760685 15.870509
v 13141478.900958 4413494.760685 21.598437
v 13141488.900958 4413494.760685 8.328771
v 13141498.900958 4413494.760685 15.959318
v 13141508.900958 4413494.760685 0.109352
v 13141358.900958 4413484.760685 -3.938239
v 13141368.900958 4413484.760685 -6.045601
v 13141378.900958 4413484.760685 -2.718938
v 13141388.900958 4413484.760685 -1.809989
v 13141398.900958 4413484.760685 -8.445012
v 13141408.900958 4413484.760685 -7.948085
v 13141418.900958 4413484.760685 -11.538166
v 13141428.900958 4413484.760685 -11.091446
v 13141438.900958 4413484.760685 -1.432026
v 13141448.900958 4413484.760685 7.665987
v 13141458.900958 4413484.760685 8.453602
v 13141468.900958 4413484.760685 13.967810
v 13141478.900958 4413484.760685 10.744492
v 13141488.900958 4413484.760685 5.971464
v 13141498.900958 4413484.760685 6.328811
v 13141508.900958 4413484.760685 0.631315
v 13141358.900958 4413474.760685 4.847836
v 13141368.900958 4413474.760685 -6.371389
v 13141378.900958 4413474.760685 -10.882281
v 13141388.900958 4413474.760685 -0.529029
v 13141398.900958 4413474.760685 -14.007326
v 13141408.900958 4413474.760685 -3.185110
v 13141418.900958 4413474.760685 2.391237
v 13141428.900958 4413474.760685 -5.813493
v 13141438.900958 4413474.760685 10.278684
v 13141448.900958 4413474.760685 2.280073
v 13141458.900958 4413474.760685 16.199252
v 13141468.900958 4413474.760685 6.016763
v 13141478.900958 4413474.760685 2.386981
v 13141488.900958 4413474.760685 13.529216
v 13141498.900958 4413474.760685 0.628289
v 13141508.900958 4413474.760685 11.601431
v 13141358.900958 4413464.760685 -2.903009
v 13141368.900958 4413464.760685 -5.711597
v 13141378.900958 4413464.760685 -2.249634
v 13141388.900958 4413464.760685 0.151792
v 13141398.900958 4413464.760685 -3.728333
v 13141408.900958 4413464.760685 0.209219
v 13141418.900958 4413464.760685 -1.447604
v 13141428.900958 4413464.760685 -1.692668
v 13141438.900958 4413464.760685 4.378664
v 13141448.900958 4413464.760685 3.056276
v 13141458.900958 4413464.760685 7.842290
v 13141468.900958 4413464.760685 6.179146
v 13141478.900958 4413464.760685 11.503680
v 13141488.900958 4413464.760685 15.964040
v 13141498.900958 4413464.760685 13.356376
v 13141508.900958 4413464.760685 16.758216
v 13141358.900958 4413454.760685 5.540432
v 13141368.900958 4413454.760685 -6.802238
v 13141378.900958 4413454.760685 3.264772
v 13141388.900958 4413454.760685 -9.800491
v 13141398.900958 4413454.760685 1.988880
v 13141408.900958 4413454.760685 -7.621045
v 13141418.900958 4413454.760685 -8.593169
v 13141428.900958 4413454.760685 6.339835
v 13141438.900958 4413454.760685 -3.033068
v 13141448.900958 4413454.760685 10.150391
v 13141458.900958 4413454.760685 15.935643
v 13141468.900958 4413454.760685 6.780258
v 13141478.900958 4413454.760685 5.987708
v 13141488.900958 4413454.760685 20.784757
v 13141498.900958 4413454.760685 10.612146
v 13141508.900958 4413454.760685 22.066505
v 13141358.900958 4413444.760685 -3.390932
v 13141368.900958 4413444.760685 -9.331939
v 13141378.900958 4413444.760685 -9.530891
v 13141388.900958 4413444.760685 -14.894669
v 13141398.900958 4413444.760685 -10.725227
v 13141408.900958 4413444.760685 -10.218958
v 13141418.900958 4413444.760685 -1.596304
v 13141428.900958 4413444.760685 5.856238
v 13141438.900958 4413444.760685 5.293335
v 13141448.900958 4413444.760685 9.820759
v 13141458.900958 4413444.760685 8.189421
v 13141468.900958 4413444.760685 9.298597
v 13141478.900958 4413444.760685 18.273411
v 13141488.900958 4413444.760685 25.465002
v 13141498.900958 4413444.760685 23.165727
v 13141508.900958 4413444.760685 24.596502
v 13141358.900958 4413434.760685 -12.287590
v 13141368.900958 4413434.760685 -5.203501
v 13141378.900958 4413434.760685 -21.376372
v 13141388.900958 4413434.760685 -11.541711
v 13141398.900958 4413434.760685 -4.999664
v 13141408.900958 4413434.760685 -11.110503
v 13141418.900958 4413434.760685 -8.905242
v 13141428.900958 4413434.760685 7.728591
v 13141438.900958 4413434.760685 -1.625151
v 13141448.900958 4413434.760685 10.788705
v 13141458.900958 4413434.760685 17.594257
v 13141468.900958 4413434.760685 11.525234
v 13141478.900958 4413434.760685 29.301230
v 13141488.900958 4413434.760685 21.111533
v 13141498.900958 4413434.760685 32.187187
v 13141508.900958 4413434.760685 16.589758
v 13141358.900958 4413424.760685 -4.700645
v 13141368.900958 4413424.760685 -7.126507
v 13141378.900958 4413424.760685 -14.474703
v 13141388.900958 4413424.760685 -11.803131
v 13141398.900958 4413424.760685 -11.404509
v 13141408.900958 4413424.760685 -7.390388
v 13141418.900958 4413424.760685 3.609995
v 13141428.900958 4413424.760685 11.517730
v 13141438.900958 4413424.760685 9.307861
v 13141448.900958 4413424.760685 12.073913
v 13141458.900958 4413424.760685 10.285010
v 13141468.900958 4413424.760685 12.565250
v 13141478.900958 4413424.760685 21.405001
v 13141488.900958 4413424.760685 20.102750
v 13141498.900958 4413424.760685 20.777633
v 13141508.900958 4413424.760685 11.851332
v 13141358.900958 4413414.760685 -12.500933
v 13141368.900958 4413414.760685 -6.126805
v 13141378.900958 4413414.760685 -20.509921
v 13141388.900958 4413414.760685 -7.467014
v 13141398.900958 4413414.760685 2.559191
v 13141408.900958 4413414.760685 -1.105886
v 13141418.900958 4413414.760685 17.524394
v 13141428.900958 4413414.760685 9.113859
v 13141438.900958 4413414.760685 19.922320
v 13141448.900958 4413414.760685 5.961949
v 13141458.900958 4413414.760685 2.348597
v 13141468.900958 4413414.760685 18.275034
v 13141478.900958 4413414.760685 10.489215
v 13141488.900958 4413414.760685 22.096409
v 13141498.900958 4413414.760685 21.941894
v 13141508.900958 4413414.760685 3.528510
v 13141358.900958 4413404.760685 -3.125836
v 13141368.900958 4413404.760685 -3.663978
v 13141378.900958 4413404.760685 -7.733766
v 13141388.900958 4413404.760685 -1.423558
v 13141398.900958 4413404.760685 1.309651
v 13141408.900958 4413404.760685 5.735754
v 13141418.900958 4413404.760685 14.614340
v 13141428.900958 4413404.760685 12.641007
v 13141438.900958 4413404.760685 13.135739
v 13141448.900958 4413404.760685 6.064917
v 13141458.900958 4413404.760685 8.932937
v 13141468.900958 4413404.760685 14.619510
v 13141478.900958 4413404.760685 13.284672
v 13141488.900958 4413404.760685 14.586313
v 13141498.900958 4413404.760685 5.456109
v 13141508.900958 4413404.760685 -4.322258
v 13141358.900958 4413394.760685 5.559253
v 13141368.900958 4413394.760685 -7.922028
v 13141378.900958 4413394.760685 4.541296
v 13141388.900958 4413394.760685 -3.275965
v 13141398.900958 4413394.760685 -1.268903
v 13141408.900958 4413394.760685 16.775817
v 13141418.900958 4413394.760685 8.777079
v 13141428.900958 4413394.760685 19.927540
v 13141438.900958 4413394.760685 20.276404
v 13141448.900958 4413394.760685 4.173093
v 13141458.900958 4413394.760685 -1.641456
v 13141468.900958 4413394.760685 11.204213
v 13141478.900958 4413394.760685 -0.256927
v 13141488.900958 4413394.760685 8.584170
v 13141498.900958 4413394.760685 7.579599
v 13141508.900958 4413394.760685 -9.505142
v 13141358.900958 4413384.760685 -2.208847
v 13141368.900958 4413384.760685 -5.664055
v 13141378.900958 4413384.760685 -0.866456
v 13141388.900958 4413384.760685 -0.421910
v 13141398.900958 4413384.760685 8.301910
v 13141408.900958 4413384.760685 15.936790
v 13141418.900958 4413384.760685 14.594386
v 13141428.900958 4413384.760685 16.236696
v 13141438.900958 4413384.760685 8.794199
v 13141448.900958 4413384.760685 2.135509
v 13141458.900958 4413384.760685 4.779661
v 13141468.900958 4413384.760685 8.602324
v 13141478.900958 4413384.760685 4.755241
v 13141488.900958 4413384.760685 5.324071
v 13141498.900958 4413384.760685 -2.659089
v 13141508.900958 4413384.760685 -9.561578
v 13141358.900958 4413374.760685 -9.647249
v 13141368.900958 4413374.760685 2.503596
v 13141378.900958 4413374.760685 8.142750
v 13141388.900958 4413374.760685 -0.988064
v 13141398.900958 4413374.760685 -2.076337
v 13141408.900958 4413374.760685 12.187824
v 13141418.900958 4413374.760685 1.237728
v 13141428.900958 4413374.760685 11.521300
v 13141438.900958 4413374.760685 13.462388
v 13141448.900958 4413374.760685 0.212293
v 13141458.900958 4413374.760685 11.810063
v 13141468.900958 4413374.760685 0.488215
v 13141478.900958 4413374.760685 11.664902
v 13141488.900958 4413374.760685 -1.724998
v 13141498.900958 4413374.760685 -8.428886
v 13141508.900958 4413374.760685 1.372314
v 13141358.900958 4413364.760685 -1.082435
v 13141368.900958 4413364.760685 2.471641
v 13141378.900958 4413364.760685 -0.934608
v 13141388.900958 4413364.760685 -3.488712
v 13141398.900958 4413364.760685 1.511315
v 13141408.900958 4413364.760685 6.325012
v 13141418.900958 4413364.760685 4.033725
v 13141428.900958 4413364.760685 7.388855
v 13141438.900958 4413364.760685 3.227300
v 13141448.900958 4413364.760685 0.011702
v 13141458.900958 4413364.760685 3.717266
v 13141468.900958 4413364.760685 0.893911
v 13141478.900958 4413364.760685 4.705765
v 13141488.900958 4413364.760685 1.658465
v 13141498.900958 4413364.760685 4.773949
v 13141508.900958 4413364.760685 7.037488
v 13141358.900958 4413354.760685 -9.019391
v 13141368.900958 4413354.760685 1.963702
v 13141378.900958 4413354.760685 4.598179
v 13141388.900958 4413354.760685 -8.383072
v 13141398.900958 4413354.760685 3.537792
v 13141408.900958 4413354.760685 -6.277457
v 13141418.900958 4413354.760685 7.930961
v 13141428.900958 4413354.760685 -1.576553
v 13141438.900958 4413354.760685 -4.517837
v 13141448.900958 4413354.760685 7.812922
v 13141458.900958 4413354.760685 -3.298000
v 13141468.900958 4413354.760685 9.882781
v 13141478.900958 4413354.760685 16.593546
v 13141488.900958 4413354.760685 6.935222
v 13141498.900958 4413354.760685 3.030114
v 13141508.900958 4413354.760685 13.377802
v 13141358.900958 4413344.760685 -1.023084
v 13141368.900958 4413344.760685 -0.326726
v 13141378.900958 4413344.760685 -7.640032
v 13141388.900958 4413344.760685 -13.090865
v 13141398.900958 4413344.760685 -9.132970
v 13141408.900958 4413344.760685 -9.028039
v 13141418.900958 4413344.760685 -1.227910
v 13141428.900958 4413344.760685 -0.680337
v 13141438.900958 4413344.760685 4.972545
v 13141448.900958 4413344.760685 8.725966
v 13141458.900958 4413344.760685 6.738170
v 13141468.900958 4413344.760685 13.249340
v 13141478.900958 4413344.760685 13.781763
v 13141488.900958 4413344.760685 13.446746
v 13141498.900958 4413344.760685 17.059178
v 13141508.900958 4413344.760685 17.410627
v 13141358.900958 4413334.760685 6.180665
v 13141368.900958 4413334.760685 -9.876505
v 13141378.900958 4413334.760685 -18.531901
v 13141388.900958 4413334.760685 -8.661553
v 13141398.900958 4413334.760685 -18.154340
v 13141408.900958 4413334.760685 -1.111670
v 13141418.900958 4413334.760685 9.344490
v 13141428.900958 4413334.760685 2.176645
v 13141438.900958 4413334.760685 -0.371533
v 13141448.900958 4413334.760685 11.339380
v 13141458.900958 4413334.760685 1.371380
v 13141468.900958 4413334.760685 17.744302
v 13141478.900958 4413334.760685 27.152526
v 13141488.900958 4413334.760685 17.930839
v 13141498.900958 4413334.760685 27.948151
v 13141508.900958 4413334.760685 11.292790

# Normals
vn -0.080402 0.996763 0.000171
vn 0.000000 0.000000 0.000000
vn 0.000000 0.000000 0.000000
vn 0.000000 0.000000 0.000000
vn 0.000000 0.000000 0.000000
vn 0.000000 0.000000 0.000000
vn 0.000000 0.000000 0.000000
vn 0.000000 0.000000 0.000000
vn 0.000000 0.000000 0.000000
vn 0.000000 0.000000 0.000000
vn 0.000000 0.000000 0.000000
vn 0.000000 0.000000 0.000000
vn 0.000000 0.000000 0.000000
vn 0.000000 0.000000 0.000000
vn 0.000000 0.000000 0.000000
vn 0.281738 0.959491 0.000099
vn 0.000000 0.000000 0.000000
vn 0.000000 0.000000 0.000000
vn 0.000000 0.000000 0.000000
vn 0.000000 0.000000 0.000000
vn 0.000000 0.000000 0.000000
vn 0.000000 0.000000 0.000000
vn 0.000000 0.000000 0.000000
vn 0.000000 0.000000 0.000000
vn 0.000000 0.000000 0.000000
vn 0.000000 0.000000 0.000000
vn 0.000000 0.000000 0.000000
vn 0.000000 0.000000 0.000000
vn 0.000000 0.000000 0.000000
vn 0.000000 0.000000 0.000000
vn 0.000000 0.000000 0.000000
vn 0.000000 0.000000 0.000000
vn 0.000000 0.000000 0.000000
vn 0.000000 0.000000 0.000000
vn 0.000000 0.000000 0.000000
vn 0.000000 0.000000 0.000000
vn 0.000000 0.000000 0.000000
vn 0.000000 0.000000 0.000000
vn 0.000000 0.000000 0.000000
vn 0.000000 0.000000 0.000000
vn 0.000000 0.000000 0.000000
vn 0.000000 0.000000 0.000000
vn 0.000000 0.000000 0.000000
vn 0.000000 0.000000 0.000000
vn 0.000000 0.000000 0.000000
vn 0.000000 0.000000 0.000000
vn 0.000000 0.000000 0.000000
vn 0.000000 0.000000 0.000000
vn 0.000000 0.000000 0.000000
vn 0.000000 0.000000 0.000000
vn 0.000000 0.000000 0.000000
vn 0.000000 0.000000 0.000000
vn 0.000000 0.000000 0.000000
vn 0.000000 0.000000 0.000000
vn 0.000000 0.000000 0.000000
vn 0.000000 0.000000 0.000000
vn 0.000000 0.000000 0.000000
vn 0.000000 0.000000 0.000000
vn 0.000000 0.000000 0.000000
vn 0.000000 0.000000 0.000000
vn 0.000000 0.000000 0.000000
vn 0.000000 0.000000 0.000000
vn 0.000000 0.000000 0.000000
vn 0.000000 0.000000 0.000000
vn 0.000000 0.000000 0.000000
vn 0.000000 0.000000 0.000000
vn 0.000000 0.000000 0.000000
vn 0.000000 0.000000 0.000000
vn 0.000000 0.000000 0.000000
vn 0.000000 0.000000 0.000000
vn 0.000000 0.000000 0.000000
vn 0.000000 0.000000 0.000000
vn 0.000000 0.000000 0.000000
vn 0.000000 0.000000 0.000000
vn 0.000000 0.000000 0.000000
vn 0.000000 0.000000 0.000000
vn 0.000000 0.000000 0.000000
vn 0.000000 0.000000 0.000000
vn 0.000000 0.000000 0.000000
vn 0.000000 0.000000 0.000000
vn 0.000000 0.000000 0.000000
vn 0.000000 0.000000 0.000000
vn 0.000000 0.000000 0.000000
vn 0.000000 0.000000 0.000000
vn 0.000000 0.000000 0.000000
vn 0.000000 0.000000 0.000000
vn 0.000000 0.000000 0.000000
vn 0.000000 0.000000 0.000000
vn 0.000000 0.000000 0.000000
vn 0.000000 0.000000 0.000000
vn 0.000000 0.000000 0.000000
vn 0.000000 0.000000 0.000000
vn 0.000000 0.000000 0.000000
vn 0.000000 0.000000 0.000000
vn 0.000000 0.000000 0.000000
vn 0.000000 0.000000 0.000000
vn 0.000000 0.000000 0.000000
vn 0.000000 0.000000 0.000000
vn 0.000000 0.000000 0.000000
vn 0.000000 0.000000 0.000000
vn 0.000000 0.000000 0.000000
vn 0.000000 0.000000 0.000000
vn 0.000000 0.000000 0.000000
vn 0.000000 0.000000 0.000000
vn 0.000000 0.000000 0.000000
vn 0.000000 0.000000 0.000000
vn 0.000000 0.000000 0.000000
vn 0.000000 0.000000 0.000000
vn 0.000000 0.000000 0.000000
vn 0.000000 0.000000 0.000000
vn 0.000000 0.000000 0.000000
vn 0.000000 0.000000 0.000000
vn 0.000000 0.000000 0.000000
vn 0.000000 0.000000 0.000000
vn 0.000000 0.000000 0.000000
vn 0.000000 0.000000 0.000000
vn 0.000000 0.000000 0.000000
vn 0.000000 0.000000 0.000000
vn 0.000000 0.000000 0.000000
vn 0.000000 0.000000 0.000000
vn 0.000000 0.000000 0.000000
vn 0.000000 0.000000 0.000000
vn 0.000000 0.000000 0.000000
vn 0.000000 0.000000 0.000000
vn 0.000000 0.000000 0.000000
vn 0.000000 0.000000 0.000000
vn 0.000000 0.000000 0.000000
vn 0.000000 0.000000 0.000000
vn 0.000000 0.000000 0.000000
vn 0.000000 0.000000 0.000000
vn 0.000000 0.000000 0.000000
vn 0.000000 0.000000 0.000000
vn 0.000000 0.000000 0.000000
vn 0.000000 0.000000 0.000000
vn 0.000000 0.000000 0.000000
vn 0.000000 0.000000 0.000000
vn 0.000000 0.000000 0.000000
vn 0.000000 0.000000 0.000000
vn 0.000000 0.000000 0.000000
vn 0.000000 0.000000 0.000000
vn 0.000000 0.000000 0.000000
vn 0.000000 0.000000 0.000000
vn 0.000000 0.000000 0.000000
vn 0.000000 0.000000 0.000000
vn 0.000000 0.000000 0.000000
vn 0.000000 0.000000 0.000000
vn 0.000000 0.000000 0.000000
vn 0.000000 0.000000 0.000000
vn 0.000000 0.000000 0.000000
vn 0.000000 0.000000 0.000000
vn 0.000000 0.000000 0.000000
vn 0.000000 0.000000 0.000000
vn 0.000000 0.000000 0.000000
vn 0.000000 0.000000 0.000000
vn 0.000000 0.000000 0.000000
vn 0.000000 0.000000 0.000000
vn 0.000000 0.000000 0.000000
vn 0.000000 0.000000 0.000000
vn 0.000000 0.000000 0.000000
vn 0.000000 0.000000 0.000000
vn 0.000000 0.000000 0.000000
vn 0.000000 0.000000 0.000000
vn 0.000000 0.000000 0.000000
vn 0.000000 0.000000 0.000000
vn 0.000000 0.000000 0.000000
vn 0.000000 0.000000 0.000000
vn 0.000000 0.000000 0.000000
vn 0.000000 0.000000 0.000000
vn 0.000000 0.000000 0.000000
vn 0.000000 0.000000 0.000000
vn 0.000000 0.000000 0.000000
vn 0.000000 0.000000 0.000000
vn 0.000000 0.000000 0.000000
vn 0.000000 0.000000 0.000000
vn 0.000000 0.000000 0.000000
vn 0.000000 0.000000 0.000000
vn 0.000000 0.000000 0.000000
vn 0.000000 0.000000 0.000000
vn 0.000000 0.000000 0.000000
vn 0.000000 0.000000 0.000000
vn 0.000000 0.000000 0.000000
vn 0.000000 0.000000 0.000000
vn 0.000000 0.000000 0.000000
vn 0.000000 0.000000 0.000000
vn 0.000000 0.000000 0.000000
vn 0.000000 0.000000 0.000000
vn 0.000000 0.000000 0.000000
vn 0.000000 0.000000 0.000000
vn 0.000000 0.000000 0.000000
vn 0.000000 0.000000 0.000000
vn 0.000000 0.000000 0.000000
vn 0.000000 0.000000 0.000000
vn 0.000000 0.000000 0.000000
vn 0.000000 0.000000 0.000000
vn 0.000000 0.000000 0.000000
vn 0.000000 0.000000 0.000000
vn 0.000000 0.000000 0.000000
vn 0.000000 0.000000 0.000000
vn 0.000000 0.000000 0.000000
vn 0.000000 0.000000 0.000000
vn 0.000000 0.000000 0.000000
vn 0.000000 0.000000 0.000000
vn 0.000000 0.000000 0.000000
vn 0.000000 0.000000 0.000000
vn 0.000000 0.000000 0.000000
vn 0.000000 0.000000 0.000000
vn 0.000000 0.000000 0.000000
vn 0.000000 0.000000 0.000000
vn 0.000000 0.000000 0.000000
vn 0.000000 0.000000 0.000000
vn 0.000000 0.000000 0.000000
vn 0.000000 0.000000 0.000000
vn 0.000000 0.000000 0.000000
vn 0.000000 0.000000 0.000000
vn 0.000000 0.000000 0.000000
vn 0.000000 0.000000 0.000000
vn 0.000000 0.000000 0.000000
vn 0.000000 0.000000 0.000000
vn 0.000000 0.000000 0.000000
vn 0.000000 0.000000 0.000000
vn 0.000000 0.000000 0.000000
vn 0.000000 0.000000 0.000000
vn 0.000000 0.000000 0.000000
vn 0.000000 0.000000 0.000000
vn 0.000000 0.000000 0.000000
vn 0.000000 0.000000 0.000000
vn 0.000000 0.000000 0.000000
vn 0.000000 0.000000 0.000000
vn 0.000000 0.000000 0.000000
vn 0.000000 0.000000 0.000000
vn 0.000000 0.000000 0.000000
vn 0.000000 0.000000 0.000000
vn 0.000000 0.000000 0.000000
vn 0.000000 0.000000 0.000000
vn 0.000000 0.000000 0.000000
vn 0.000000 0.000000 0.000000
vn 0.000000 0.000000 0.000000
vn 0.000000 0.000000 0.000000
vn 0.000000 0.000000 0.000000
vn 0.000000 0.000000 0.000000
vn 0.000000 0.000000 0.000000
vn 0.000000 0.000000 0.000000
vn 0.000000 0.000000 0.000000
vn 0.000000 0.000000 0.000000
vn 0.000000 0.000000 0.000000
vn 0.000000 0.000000 0.000000
vn 0.000000 0.000000 0.000000
vn 0.000000 0.000000 0.000000
vn 0.000000 0.000000 0.000000
vn 0.000000 0.000000 0.000000
vn 0.000000 0.000000 0.000000
vn 0.000000 0.000000 0.000000
vn 0.000000 0.000000 0.000000
vn 0.000000 0.000000 0.000000
vn 0.000000 0.000000 0.000000
vn 0.000000 0.000000 0.000000
vn -0.890881 0.454236 0.000235
vn 0.000000 0.000000 0.000000
vn 0.000000 0.000000 0.000000
vn 0.000000 0.000000 0.000000
vn 0.000000 0.000000 0.000000
vn 0.000000 0.000000 0.000000
vn 0.000000 0.000000 0.000000
vn 0.000000 0.000000 0.000000
vn 0.000000 0.000000 0.000000
vn 0.000000 0.000000 0.000000
vn 0.000000 0.000000 0.000000
vn 0.000000 0.000000 0.000000
vn 0.000000 0.000000 0.000000
vn 0.000000 0.000000 0.000000
vn 0.000000 0.000000 0.000000
vn -0.080402 0.996763 0.000171

# Faces
f 1//1 272//272 16//16
f 272//272 1//1 257//257
