# Vertices
v 13141358.901458 4413778.837185 -14.930971
v 13141394.919458 4413778.837185 -15.854798
v 13141474.959458 4413778.837185 -21.540244
v 13141512.978458 4413778.837185 -21.796720
v 13141394.919458 4413774.835185 -15.903011
v 13141474.959458 4413774.835185 -21.423972
v 13141438.941458 4413762.829185 -19.205288
v 13141494.969458 4413754.825185 -19.978969
v 13141482.963458 4413750.823185 -19.801096
v 13141454.949458 4413746.821185 -19.117908
v 13141512.978458 4413744.820185 -17.297804
v 13141510.977458 4413738.817185 -16.113284
v 13141406.925458 4413730.813185 -16.443983
v 13141438.941458 4413730.813185 -17.694876
v 13141470.957458 4413730.813185 -17.186667
v 13141502.973458 4413730.813185 -15.771765
v 13141422.933458 4413714.805185 -16.289674
v 13141490.967458 4413710.803185 -13.265603
v 13141438.941458 4413698.797185 -14.430613
v 13141470.957458 4413698.797185 -12.302929
v 13141492.968458 4413698.797185 -10.788089
v 13141502.973458 4413698.797185 -8.535212
v 13141454.949458 4413682.789185 -11.874835
v 13141512.978458 4413668.782185 -1.829935
v 13141406.925458 4413666.781185 -13.158201
v 13141470.957458 4413666.781185 -7.721559
v 13141368.906458 4413640.768185 -14.860351
v 13141374.909458 4413634.765185 -13.970175
v 13141438.941458 4413634.765185 -7.079474
v 13141358.901458 4413626.761185 -15.535400
v 13141430.937458 4413626.761185 -7.095346
v 13141512.978458 4413626.761185 5.124128

# Normals
vn 0.006195 -0.004523 0.999971
vn 0.056022 -0.012664 0.998349
vn 0.043162 0.014714 0.998960
vn -0.021973 0.078053 0.996707
vn 0.050211 -0.005086 0.998726
vn 0.018739 0.053261 0.998405
vn 0.056706 0.022326 0.998141
vn -0.041497 0.129177 0.990753
vn -0.013816 0.115755 0.993182
vn 0.018177 0.079942 0.996634
vn -0.041665 0.178130 0.983124
vn -0.077511 0.191966 0.978336
vn 0.025484 0.029284 0.999246
vn 0.012335 0.075026 0.997105
vn -0.031597 0.134014 0.990476
vn -0.093814 0.173636 0.980331
vn 0.007112 0.069779 0.997537
vn -0.106781 0.174803 0.978796
vn -0.043202 0.103816 0.993658
vn -0.070755 0.144532 0.986967
vn -0.143317 0.166564 0.975560
vn -0.167216 0.188002 0.967830
vn -0.084962 0.118257 0.989342
vn -0.117838 0.179411 0.976691
vn -0.061738 0.079940 0.994886
vn -0.122274 0.156211 0.980126
vn -0.061491 0.028984 0.997687
vn -0.106505 0.054363 0.992825
vn -0.113831 0.131788 0.984721
vn -0.097340 0.022662 0.994993
vn -0.116757 0.090027 0.989072
vn -0.144555 0.156098 0.977107

# Faces
f 1//1 5//5 2//2
f 22//22 18//18 21//21
f 18//18 20//20 21//21
f 6//6 3//3 7//7
f 11//11 12//12 24//24
f 1//1 30//30 27//27
f 30//30 28//28 27//27
f 12//12 11//11 8//8
f 10//10 15//15 9//9
f 8//8 9//9 16//16
f 4//4 8//8 11//11
f 4//4 6//6 8//8
f 3//3 2//2 7//7
f 7//7 5//5 13//13
f 15//15 16//16 9//9
f 6//6 4//4 3//3
f 15//15 20//20 18//18
f 20//20 26//26 21//21
f 31//31 32//32 29//29
f 32//32 26//26 29//29
f 28//28 31//31 25//25
f 16//16 15//15 18//18
f 22//22 12//12 16//16
f 12//12 22//22 24//24
f 32//32 24//24 26//26
f 17//17 19//19 14//14
f 10//10 14//14 15//15
f 23//23 26//26 20//20
f 31//31 29//29 25//25
f 20//20 15//15 19//19
f 22//22 16//16 18//18
f 8//8 6//6 9//9
f 7//7 10//10 6//6
f 26//26 23//23 29//29
f 23//23 19//19 25//25
f 7//7 13//13 14//14
f 1//1 13//13 5//5
f 26//26 24//24 21//21
f 10//10 9//9 6//6
f 22//22 21//21 24//24
f 16//16 12//12 8//8
f 28//28 30//30 31//31
f 23//23 25//25 29//29
f 5//5 7//7 2//2
f 13//13 27//27 25//25
f 10//10 7//7 14//14
f 17//17 14//14 13//13
f 19//19 17//17 25//25
f 1//1 27//27 13//13
f 28//28 25//25 27//27
f 19//19 15//15 14//14
f 23//23 20//20 19//19
f 17//17 13//13 25//25
