# Vertices
v 13141208.900958 4413784.760685 6.146742
v 13141218.900958 4413784.760685 4.864549
v 13141228.900958 4413784.760685 15.274004
v 13141238.900958 4413784.760685 -1.144243
v 13141248.900958 4413784.760685 4.751603
v 13141258.900958 4413784.760685 4.283788
v 13141268.900958 4413784.760685 -9.889116
v 13141278.900958 4413784.760685 1.701762
v 13141288.900958 4413784.760685 -7.174640
v 13141298.900958 4413784.760685 9.549907
v 13141308.900958 4413784.760685 2.830023
v 13141318.900958 4413784.760685 0.651024
v 13141328.900958 4413784.760685 10.113224
v 13141338.900958 4413784.760685 -7.271203
v 13141348.900958 4413784.760685 -1.841302
v 13141358.900958 4413784.760685 -0.895724
v 13141208.900958 4413774.760685 5.933827
v 13141218.900958 4413774.760685 10.831032
v 13141228.900958 4413774.760685 11.836379
v 13141238.900958 4413774.760685 4.008436
v 13141248.900958 4413774.760685 2.853514
v 13141258.900958 4413774.760685 -3.712497
v 13141268.900958 4413774.760685 -7.976301
v 13141278.900958 4413774.760685 -4.196481
v 13141288.900958 4413774.760685 -5.033870
v 13141298.900958 4413774.760685 1.927102
v 13141308.900958 4413774.760685 1.669731
v 13141318.900958 4413774.760685 5.532385
v 13141328.900958 4413774.760685 5.393329
v 13141338.900958 4413774.760685 -3.380918
v 13141348.900958 4413774.760685 -5.552311
v 13141358.900958 4413774.760685 -12.177616
v 13141208.900958 4413764.760685 1.914580
v 13141218.900958 4413764.760685 13.483886
v 13141228.900958 4413764.760685 -0.436968
v 13141238.900958 4413764.760685 8.046686
v 13141248.900958 4413764.760685 -6.108037
v 13141258.900958 4413764.760685 -11.517113
v 13141268.900958 4413764.760685 -0.323227
v 13141278.900958 4413764.760685 -11.778160
v 13141288.900958 4413764.760685 1.231985
v 13141298.900958 4413764.760685 7.357419
v 13141308.900958 4413764.760685 -3.411365
v 13141318.900958 4413764.760685 -8.913967
v 13141328.900958 4413764.760685 -0.610889
v 13141338.900958 4413764.760685 -16.573602
v 13141348.900958 4413764.760685 -8.407344
v 13141358.900958 4413764.760685 -6.083369
v 13141208.900958 4413754.760685 -0.879749
v 13141218.900958 4413754.760685 1.272853
v 13141228.900958 4413754.760685 -3.974115
v 13141238.900958 4413754.760685 -2.426503
v 13141248.900958 4413754.760685 -6.582236
v 13141258.900958 4413754.760685 -3.483728
v 13141268.900958 4413754.760685 -0.836263
v 13141278.900958 4413754.760685 -3.918384
v 13141288.900958 4413754.760685 -0.017265
v 13141298.900958 4413754.760685 -3.263990
v 13141308.900958 4413754.760685 -7.245821
v 13141318.900958 4413754.760685 -5.839791
v 13141328.900958 4413754.760685 -5.707845
v 13141338.900958 4413754.760685 -11.865215
v 13141348.900958 4413754.760685 -10.591762
v 13141358.900958 4413754.760685 -15.921068
v 13141208.900958 4413744.760685 7.423110
v 13141218.900958 4413744.760685 -6.660778
v 13141228.900958 4413744.760685 2.637147
v 13141238.900958 4413744.760685 5.453383
v 13141248.900958 4413744.760685 -6.982699
v 13141258.900958 4413744.760685 -11.787385
v 13141268.900958 4413744.760685 0.239148
v 13141278.900958 4413744.760685 -10.158863
v 13141288.900958 4413744.760685 2.565966
v 13141298.900958 4413744.760685 6.392960
v 13141308.900958 4413744.760685 -7.689006
v 13141318.900958 4413744.760685 0.333528
v 13141328.900958 4413744.760685 -14.921881
v 13141338.900958 4413744.760685 -5.845516
v 13141348.900958 4413744.760685 -19.286007
v 13141358.900958 4413744.760685 -25.276393
v 13141208.900958 4413734.760685 10.386556
v 13141218.900958 4413734.760685 3.011925
v 13141228.900958 4413734.760685 2.601138
v 13141238.900958 4413734.760685 -3.109557
v 13141248.900958 4413734.760685 -7.027845
v 13141258.900958 4413734.760685 -2.837407
v 13141268.900958 4413734.760685 2.617245
v 13141278.900958 4413734.760685 2.302029
v 13141288.900958 4413734.760685 7.132575
v 13141298.900958 4413734.760685 1.879690
v 13141308.900958 4413734.760685 -5.631354
v 13141318.900958 4413734.760685 -7.817461
v 13141328.900958 4413734.760685 -15.892220
v 13141338.900958 4413734.760685 -15.705230
v 13141348.900958 4413734.760685 -20.684311
v 13141358.900958 4413734.760685 -19.444645
v 13141208.900958 4413724.760685 11.567384
v 13141218.900958 4413724.760685 -6.057969
v 13141228.900958 4413724.760685 1.123744
v 13141238.900958 4413724.760685 3.460226
v 13141248.900958 4413724.760685 -8.026028
v 13141258.900958 4413724.760685 5.982029
v 13141268.900958 4413724.760685 -1.769471
v 13141278.900958 4413724.760685 13.698891
v 13141288.900958 4413724.760685 3.135388
v 13141298.900958 4413724.760685 -4.147573
v 13141308.900958 4413724.760685 1.221605
v 13141318.900958 4413724.760685 -17.676481
v 13141328.900958 4413724.760685 -11.673260
v 13141338.900958 4413724.760685 -10.384423
v 13141348.900958 4413724.760685 -23.425173
v 13141358.900958 4413724.760685 -30.788561
v 13141208.900958 4413714.760685 8.226910
v 13141218.900958 4413714.760685 -1.988307
v 13141228.900958 4413714.760685 -3.091074
v 13141238.900958 4413714.760685 -7.856397
v 13141248.900958 4413714.760685 -9.227101
v 13141258.900958 4413714.760685 -1.771525
v 13141268.900958 4413714.760685 -0.296008
v 13141278.900958 4413714.760685 6.279148
v 13141288.900958 4413714.760685 2.690039
v 13141298.900958 4413714.760685 1.364684
v 13141308.900958 4413714.760685 -3.571768
v 13141318.900958 4413714.760685 -14.938280
v 13141328.900958 4413714.760685 -17.264900
v 13141338.900958 4413714.760685 -22.867980
v 13141348.900958 4413714.760685 -26.314431
v 13141358.900958 4413714.760685 -25.345780
v 13141208.900958 4413704.760685 -5.279369
v 13141218.900958 4413704.760685 -0.417143
v 13141228.900958 4413704.760685 -15.325528
v 13141238.900958 4413704.760685 -18.824132
v 13141248.900958 4413704.760685 -3.513037
v 13141258.900958 4413704.760685 -10.084499
v 13141268.900958 4413704.760685 5.859326
v 13141278.900958 4413704.760685 11.785183
v 13141288.900958 4413704.760685 -2.348270
v 13141298.900958 4413704.760685 -13.468158
v 13141308.900958 4413704.760685 -10.884709
v 13141318.900958 4413704.760685 -30.571429
v 13141328.900958 4413704.760685 -23.180176
v 13141338.900958 4413704.760685 -18.997128
v 13141348.900958 4413704.760685 -29.288499
v 13141358.900958 4413704.760685 -19.104435
v 13141208.900958 4413694.760685 -11.482680
v 13141218.900958 4413694.760685 -13.834403
v 13141228.900958 4413694.760685 -18.504311
v 13141238.900958 4413694.760685 -12.317333
v 13141248.900958 4413694.760685 -4.583178
v 13141258.900958 4413694.760685 -3.114470
v 13141268.900958 4413694.760685 2.690164
v 13141278.900958 4413694.760685 -1.443637
v 13141288.900958 4413694.760685 -8.896871
v 13141298.900958 4413694.760685 -12.986199
v 13141308.900958 4413694.760685 -18.627140
v 13141318.900958 4413694.760685 -28.685734
v 13141328.900958 4413694.760685 -27.845644
v 13141338.900958 4413694.760685 -29.954470
v 13141348.900958 4413694.760685 -30.342979
v 13141358.900958 4413694.760685 -27.140612
v 13141208.900958 4413684.760685 -7.508846
v 13141218.900958 4413684.760685 -7.138445
v 13141228.900958 4413684.760685 -18.678269
v 13141238.900958 4413684.760685 -19.574034
v 13141248.900958 4413684.760685 -3.700188
v 13141258.900958 4413684.760685 -12.423076
v 13141268.900958 4413684.760685 -0.272932
v 13141278.900958 4413684.760685 1.866009
v 13141288.900958 4413684.760685 -15.029048
v 13141298.900958 4413684.760685 -10.998531
v 13141308.900958 4413684.760685 -30.361955
v 13141318.900958 4413684.760685 -23.637294
v 13141328.900958 4413684.760685 -36.005650
v 13141338.900958 4413684.760685 -37.505013
v 13141348.900958 4413684.760685 -22.471072
v 13141358.900958 4413684.760685 -33.586026
v 13141208.900958 4413674.760685 -6.485454
v 13141218.900958 4413674.760685 -12.441096
v 13141228.900958 4413674.760685 -14.665549
v 13141238.900958 4413674.760685 -7.952239
v 13141248.900958 4413674.760685 -2.035368
v 13141258.900958 4413674.760685 -4.615900
v 13141268.900958 4413674.760685 -2.602348
v 13141278.900958 4413674.760685 -9.399842
v 13141288.900958 4413674.760685 -17.759182
v 13141298.900958 4413674.760685 -20.938533
v 13141308.900958 4413674.760685 -30.062727
v 13141318.900958 4413674.760685 -29.937625
v 13141328.900958 4413674.760685 -32.852575
v 13141338.900958 4413674.760685 -26.607816
v 13141348.900958 4413674.760685 -21.059637
v 13141358.900958 4413674.760685 -24.169076
v 13141208.900958 4413664.760685 -1.577029
v 13141218.900958 4413664.760685 1.551069
v 13141228.900958 4413664.760685 -9.393298
v 13141238.900958 4413664.760685 3.701200
v 13141248.900958 4413664.760685 -7.510790
v 13141258.900958 4413664.760685 3.029394
v 13141268.900958 4413664.760685 -10.641669
v 13141278.900958 4413664.760685 -17.809682
v 13141288.900958 4413664.760685 -10.193712
v 13141298.900958 4413664.760685 -26.547695
v 13141308.900958 4413664.760685 -18.895302
v 13141318.900958 4413664.760685 -16.702146
v 13141328.900958 4413664.760685 -28.283518
v 13141338.900958 4413664.760685 -31.441592
v 13141348.900958 4413664.760685 -19.316830
v 13141358.900958 4413664.760685 -31.931523
v 13141208.900958 4413654.760685 2.177308
v 13141218.900958 4413654.760685 -1.996509
v 13141228.900958 4413654.760685 -5.033597
v 13141238.900958 4413654.760685 -1.993597
v 13141248.900958 4413654.760685 -6.542223
v 13141258.900958 4413654.760685 -5.125666
v 13141268.900958 4413654.760685 -10.244400
v 13141278.900958 4413654.760685 -8.401252
v 13141288.900958 4413654.760685 -7.386731
v 13141298.900958 4413654.760685 -13.344450
v 13141308.900958 4413654.760685 -13.139532
v 13141318.900958 4413654.760685 -19.196230
v 13141328.900958 4413654.760685 -23.747789
v 13141338.900958 4413654.760685 -20.916097
v 13141348.900958 4413654.760685 -18.816292
v 13141358.900958 4413654.760685 -23.528490
v 13141208.900958 4413644.760685 -5.105487
v 13141218.900958 4413644.760685 -8.648365
v 13141228.900958 4413644.760685 3.457153
v 13141238.900958 4413644.760685 -8.962256
v 13141248.900958 4413644.760685 1.001675
v 13141258.900958 4413644.760685 3.447191
v 13141268.900958 4413644.760685 -9.110479
v 13141278.900958 4413644.760685 -13.307577
v 13141288.900958 4413644.760685 -1.856730
v 13141298.900958 4413644.760685 -15.258409
v 13141308.900958 4413644.760685 -6.860810
v 13141318.900958 4413644.760685 -6.452822
v 13141328.900958 4413644.760685 -21.558017
v 13141338.900958 4413644.760685 -12.407756
v 13141348.900958 4413644.760685 -25.822872
v 13141358.900958 4413644.760685 -15.688748
v 13141208.900958 4413634.760685 -7.002179
v 13141218.900958 4413634.760685 -0.989234
v 13141228.900958 4413634.760685 3.616302
v 13141238.900958 4413634.760685 0.008547
v 13141248.900958 4413634.760685 1.340669
v 13141258.900958 4413634.760685 -3.582712
v 13141268.900958 4413634.760685 -5.804371
v 13141278.900958 4413634.760685 -0.139310
v 13141288.900958 4413634.760685 3.823076
v 13141298.900958 4413634.760685 -1.567953
v 13141308.900958 4413634.760685 -3.038911
v 13141318.900958 4413634.760685 -12.669488
v 13141328.900958 4413634.760685 -20.885998
v 13141338.900958 4413634.760685 -20.687671
v 13141348.900958 4413634.760685 -25.573084
v 13141358.900958 4413634.760685 -24.395725

# Normals
vn 0.470890 -0.882192 0.000052
vn 0.000000 0.000000 0.000000
vn 0.000000 0.000000 0.000000
vn 0.000000 0.000000 0.000000
vn 0.000000 0.000000 0.000000
vn 0.000000 0.000000 0.000000
vn 0.000000 0.000000 0.000000
vn 0.000000 0.000000 0.000000
vn 0.000000 0.000000 0.000000
vn 0.000000 0.000000 0.000000
vn 0.000000 0.000000 0.000000
vn 0.000000 0.000000 0.000000
vn 0.000000 0.000000 0.000000
vn 0.000000 0.000000 0.000000
vn 0.000000 0.000000 0.000000
vn 0.233288 -0.972408 0.000045
vn 0.000000 0.000000 0.000000
vn 0.000000 0.000000 0.000000
vn 0.000000 0.000000 0.000000
vn 0.000000 0.000000 0.000000
vn 0.000000 0.000000 0.000000
vn 0.000000 0.000000 0.000000
vn 0.000000 0.000000 0.000000
vn 0.000000 0.000000 0.000000
vn 0.000000 0.000000 0.000000
vn 0.000000 0.000000 0.000000
vn 0.000000 0.000000 0.000000
vn 0.000000 0.000000 0.000000
vn 0.000000 0.000000 0.000000
vn 0.000000 0.000000 0.000000
vn 0.000000 0.000000 0.000000
vn 0.000000 0.000000 0.000000
vn 0.000000 0.000000 0.000000
vn 0.000000 0.000000 0.000000
vn 0.000000 0.000000 0.000000
vn 0.000000 0.000000 0.000000
vn 0.000000 0.000000 0.000000
vn 0.000000 0.000000 0.000000
vn 0.000000 0.000000 0.000000
vn 0.000000 0.000000 0.000000
vn 0.000000 0.000000 0.000000
vn 0.000000 0.000000 0.000000
vn 0.000000 0.000000 0.000000
vn 0.000000 0.000000 0.000000
vn 0.000000 0.000000 0.000000
vn 0.000000 0.000000 0.000000
vn 0.000000 0.000000 0.000000
vn 0.000000 0.000000 0.000000
vn 0.000000 0.000000 0.000000
vn 0.000000 0.000000 0.000000
vn 0.000000 0.000000 0.000000
vn 0.000000 0.000000 0.000000
vn 0.000000 0.000000 0.000000
vn 0.000000 0.000000 0.000000
vn 0.000000 0.000000 0.000000
vn 0.000000 0.000000 0.000000
vn 0.000000 0.000000 0.000000
vn 0.000000 0.000000 0.000000
vn 0.000000 0.000000 0.000000
vn 0.000000 0.000000 0.000000
vn 0.000000 0.000000 0.000000
vn 0.000000 0.000000 0.000000
vn 0.000000 0.000000 0.000000
vn 0.000000 0.000000 0.000000
vn 0.000000 0.000000 0.000000
vn 0.000000 0.000000 0.000000
vn 0.000000 0.000000 0.000000
vn 0.000000 0.000000 0.000000
vn 0.000000 0.000000 0.000000
vn 0.000000 0.000000 0.000000
vn 0.000000 0.000000 0.000000
vn 0.000000 0.000000 0.000000
vn 0.000000 0.000000 0.000000
vn 0.000000 0.000000 0.000000
vn 0.000000 0.000000 0.000000
vn 0.000000 0.000000 0.000000
vn 0.000000 0.000000 0.000000
vn 0.000000 0.000000 0.000000
vn 0.000000 0.000000 0.000000
vn 0.000000 0.000000 0.000000
vn 0.000000 0.000000 0.000000
vn 0.000000 0.000000 0.000000
vn 0.000000 0.000000 0.000000
vn 0.000000 0.000000 0.000000
vn 0.000000 0.000000 0.000000
vn 0.000000 0.000000 0.000000
vn 0.000000 0.000000 0.000000
vn 0.000000 0.000000 0.000000
vn 0.000000 0.000000 0.000000
vn 0.000000 0.000000 0.000000
vn 0.000000 0.000000 0.000000
vn 0.000000 0.000000 0.000000
vn 0.000000 0.000000 0.000000
vn 0.000000 0.000000 0.000000
vn 0.000000 0.000000 0.000000
vn 0.000000 0.000000 0.000000
vn 0.000000 0.000000 0.000000
vn 0.000000 0.000000 0.000000
vn 0.000000 0.000000 0.000000
vn 0.000000 0.000000 0.000000
vn 0.000000 0.000000 0.000000
vn 0.000000 0.000000 0.000000
vn 0.000000 0.000000 0.000000
vn 0.000000 0.000000 0.000000
vn 0.000000 0.000000 0.000000
vn 0.000000 0.000000 0.000000
vn 0.000000 0.000000 0.000000
vn 0.000000 0.000000 0.000000
vn 0.000000 0.000000 0.000000
vn 0.000000 0.000000 0.000000
vn 0.000000 0.000000 0.000000
vn 0.000000 0.000000 0.000000
vn 0.000000 0.000000 0.000000
vn 0.000000 0.000000 0.000000
vn 0.000000 0.000000 0.000000
vn 0.000000 0.000000 0.000000
vn 0.000000 0.000000 0.000000
vn 0.000000 0.000000 0.000000
vn 0.000000 0.000000 0.000000
vn 0.000000 0.000000 0.000000
vn 0.000000 0.000000 0.000000
vn 0.000000 0.000000 0.000000
vn 0.000000 0.000000 0.000000
vn 0.000000 0.000000 0.000000
vn 0.000000 0.000000 0.000000
vn 0.000000 0.000000 0.000000
vn 0.000000 0.000000 0.000000
vn 0.000000 0.000000 0.000000
vn 0.000000 0.000000 0.000000
vn 0.000000 0.000000 0.000000
vn 0.000000 0.000000 0.000000
vn 0.000000 0.000000 0.000000
vn 0.000000 0.000000 0.000000
vn 0.000000 0.000000 0.000000
vn 0.000000 0.000000 0.000000
vn 0.000000 0.000000 0.000000
vn 0.000000 0.000000 0.000000
vn 0.000000 0.000000 0.000000
vn 0.000000 0.000000 0.000000
vn 0.000000 0.000000 0.000000
vn 0.000000 0.000000 0.000000
vn 0.000000 0.000000 0.000000
vn 0.000000 0.000000 0.000000
vn 0.000000 0.000000 0.000000
vn 0.000000 0.000000 0.000000
vn 0.000000 0.000000 0.000000
vn 0.000000 0.000000 0.000000
vn 0.000000 0.000000 0.000000
vn 0.000000 0.000000 0.000000
vn 0.000000 0.000000 0.000000
vn 0.000000 0.000000 0.000000
vn 0.000000 0.000000 0.000000
vn 0.000000 0.000000 0.000000
vn 0.000000 0.000000 0.000000
vn 0.000000 0.000000 0.000000
vn 0.000000 0.000000 0.000000
vn 0.000000 0.000000 0.000000
vn 0.000000 0.000000 0.000000
vn 0.000000 0.000000 0.000000
vn 0.000000 0.000000 0.000000
vn 0.000000 0.000000 0.000000
vn 0.000000 0.000000 0.000000
vn 0.000000 0.000000 0.000000
vn 0.000000 0.000000 0.000000
vn 0.000000 0.000000 0.000000
vn 0.000000 0.000000 0.000000
vn 0.000000 0.000000 0.000000
vn 0.000000 0.000000 0.000000
vn 0.000000 0.000000 0.000000
vn 0.000000 0.000000 0.000000
vn 0.000000 0.000000 0.000000
vn 0.000000 0.000000 0.000000
vn 0.000000 0.000000 0.000000
vn 0.000000 0.000000 0.000000
vn 0.000000 0.000000 0.000000
vn 0.000000 0.000000 0.000000
vn 0.000000 0.000000 0.000000
vn 0.000000 0.000000 0.000000
vn 0.000000 0.000000 0.000000
vn 0.000000 0.000000 0.000000
vn 0.000000 0.000000 0.000000
vn 0.000000 0.000000 0.000000
vn 0.000000 0.000000 0.000000
vn 0.000000 0.000000 0.000000
vn 0.000000 0.000000 0.000000
vn 0.000000 0.000000 0.000000
vn 0.000000 0.000000 0.000000
vn 0.000000 0.000000 0.000000
vn 0.000000 0.000000 0.000000
vn 0.000000 0.000000 0.000000
vn 0.000000 0.000000 0.000000
vn 0.000000 0.000000 0.000000
vn 0.000000 0.000000 0.000000
vn 0.000000 0.000000 0.000000
vn 0.000000 0.000000 0.000000
vn 0.000000 0.000000 0.000000
vn 0.000000 0.000000 0.000000
vn 0.000000 0.000000 0.000000
vn 0.000000 0.000000 0.000000
vn 0.000000 0.000000 0.000000
vn 0.000000 0.000000 0.000000
vn 0.000000 0.000000 0.000000
vn 0.000000 0.000000 0.000000
vn 0.000000 0.000000 0.000000
vn 0.000000 0.000000 0.000000
vn 0.000000 0.000000 0.000000
vn 0.000000 0.000000 0.000000
vn 0.000000 0.000000 0.000000
vn 0.000000 0.000000 0.000000
vn 0.000000 0.000000 0.000000
vn 0.000000 0.000000 0.000000
vn 0.000000 0.000000 0.000000
vn 0.000000 0.000000 0.000000
vn 0.000000 0.000000 0.000000
vn 0.000000 0.000000 0.000000
vn 0.000000 0.000000 0.000000
vn 0.000000 0.000000 0.000000
vn 0.000000 0.000000 0.000000
vn 0.000000 0.000000 0.000000
vn 0.000000 0.000000 0.000000
vn 0.000000 0.000000 0.000000
vn 0.000000 0.000000 0.000000
vn 0.000000 0.000000 0.000000
vn 0.000000 0.000000 0.000000
vn 0.000000 0.000000 0.000000
vn 0.000000 0.000000 0.000000
vn 0.000000 0.000000 0.000000
vn 0.000000 0.000000 0.000000
vn 0.000000 0.000000 0.000000
vn 0.000000 0.000000 0.000000
vn 0.000000 0.000000 0.000000
vn 0.000000 0.000000 0.000000
vn 0.000000 0.000000 0.000000
vn 0.000000 0.000000 0.000000
vn 0.000000 0.000000 0.000000
vn 0.000000 0.000000 0.000000
vn 0.000000 0.000000 0.000000
vn 0.000000 0.000000 0.000000
vn 0.000000 0.000000 0.000000
vn 0.000000 0.000000 0.000000
vn 0.727062 -0.686572 0.000056
vn 0.000000 0.000000 0.000000
vn 0.000000 0.000000 0.000000
vn 0.000000 0.000000 0.000000
vn 0.000000 0.000000 0.000000
vn 0.000000 0.000000 0.000000
vn 0.000000 0.000000 0.000000
vn 0.000000 0.000000 0.000000
vn 0.000000 0.000000 0.000000
vn 0.000000 0.000000 0.000000
vn 0.000000 0.000000 0.000000
vn 0.000000 0.000000 0.000000
vn 0.000000 0.000000 0.000000
vn 0.000000 0.000000 0.000000
vn 0.000000 0.000000 0.000000
vn 0.470890 -0.882192 0.000052

# Faces
f 1//1 256//256 16//16
f 256//256 1//1 241//241
