# Vertices
v 13141204.900958 4413322.760685 14.569305
v 13141282.900958 4413322.760685 46.871995
v 13141360.900958 4413322.760685 55.884399
v 13141282.900958 4413320.760685 47.645220
v 13141284.900958 4413306.760685 54.432432
v 13141268.900958 4413258.760685 62.401186
v 13141204.900958 4413250.760685 42.291039
v 13141212.900958 4413250.760685 46.328526
v 13141204.900958 4413168.760685 52.100956
v 13141360.900958 4413168.760685 73.278567

# Normals
vn -0.366613 0.332063 0.869097
vn -0.235747 0.350437 0.906431
vn -0.070131 0.271147 0.959980
vn -0.234236 0.373926 0.897392
vn -0.229316 0.316064 0.920607
vn -0.199511 0.170102 0.965018
vn -0.439821 0.216998 0.871475
vn -0.370354 0.222937 0.901741
vn -0.293030 0.061852 0.954101
vn -0.071389 0.047439 0.996320

# Faces
f 9//9 8//8 7//7
f 1//1 4//4 2//2
f 5//5 3//3 4//4
f 4//4 3//3 2//2
f 6//6 1//1 8//8
f 8//8 1//1 7//7
f 1//1 5//5 4//4
f 1//1 6//6 5//5
f 9//9 10//10 6//6
f 6//6 3//3 5//5
f 10//10 3//3 6//6
f 9//9 6//6 8//8
