# Vertices
v 13141208.900958 4413934.760685 -11.044030
v 13141218.900958 4413934.760685 -4.309218
v 13141228.900958 4413934.760685 1.380982
v 13141238.900958 4413934.760685 -1.071972
v 13141248.900958 4413934.760685 1.738961
v 13141258.900958 4413934.760685 -3.805817
v 13141268.900958 4413934.760685 -10.533739
v 13141278.900958 4413934.760685 -11.539333
v 13141288.900958 4413934.760685 -17.743934
v 13141298.900958 4413934.760685 -14.459078
v 13141308.900958 4413934.760685 -14.883047
v 13141318.900958 4413934.760685 -7.226573
v 13141328.900958 4413934.760685 -0.752160
v 13141338.900958 4413934.760685 -2.273903
v 13141348.900958 4413934.760685 1.346799
v 13141358.900958 4413934.760685 -1.106124
v 13141208.900958 4413924.760685 -12.539486
v 13141218.900958 4413924.760685 3.942457
v 13141228.900958 4413924.760685 -4.402209
v 13141238.900958 4413924.760685 8.031407
v 13141248.900958 4413924.760685 -5.059436
v 13141258.900958 4413924.760685 -12.956914
v 13141268.900958 4413924.760685 -6.538610
v 13141278.900958 4413924.760685 -23.402984
v 13141288.900958 4413924.760685 -14.300875
v 13141298.900958 4413924.760685 -8.541526
v 13141308.900958 4413924.760685 -15.484563
v 13141318.900958 4413924.760685 -14.146706
v 13141328.900958 4413924.760685 1.610199
v 13141338.900958 4413924.760685 -8.600708
v 13141348.900958 4413924.760685 3.006392
v 13141358.900958 4413924.760685 9.086389
v 13141208.900958 4413914.760685 -9.377296
v 13141218.900958 4413914.760685 -0.286981
v 13141228.900958 4413914.760685 -0.349457
v 13141238.900958 4413914.760685 2.662616
v 13141248.900958 4413914.760685 -3.696431
v 13141258.900958 4413914.760685 -5.512397
v 13141268.900958 4413914.760685 -8.494966
v 13141278.900958 4413914.760685 -16.434560
v 13141288.900958 4413914.760685 -14.403969
v 13141298.900958 4413914.760685 -14.702649
v 13141308.900958 4413914.760685 -11.436941
v 13141318.900958 4413914.760685 -1.217458
v 13141328.900958 4413914.760685 5.901928
v 13141338.900958 4413914.760685 2.923764
v 13141348.900958 4413914.760685 4.970239
v 13141358.900958 4413914.760685 2.538631
v 13141208.900958 4413904.760685 4.097112
v 13141218.900958 4413904.760685 -1.889543
v 13141228.900958 4413904.760685 11.832663
v 13141238.900958 4413904.760685 14.076516
v 13141248.900958 4413904.760685 -2.565293
v 13141258.900958 4413904.760685 -13.367628
v 13141268.900958 4413904.760685 -7.461523
v 13141278.900958 4413904.760685 -22.357825
v 13141288.900958 4413904.760685 -9.885795
v 13141298.900958 4413904.760685 -0.490517
v 13141308.900958 4413904.760685 -4.835609
v 13141318.900958 4413904.760685 13.085715
v 13141328.900958 4413904.760685 3.961021
v 13141338.900958 4413904.760685 14.075421
v 13141348.900958 4413904.760685 -0.533603
v 13141358.900958 4413904.760685 -4.725336
v 13141208.900958 4413894.760685 10.298001
v 13141218.900958 4413894.760685 11.627674
v 13141228.900958 4413894.760685 15.072351
v 13141238.900958 4413894.760685 7.572069
v 13141248.900958 4413894.760685 -1.568401
v 13141258.900958 4413894.760685 -3.999821
v 13141268.900958 4413894.760685 -4.943662
v 13141278.900958 4413894.760685 -9.474186
v 13141288.900958 4413894.760685 -3.687927
v 13141298.900958 4413894.760685 -1.538015
v 13141308.900958 4413894.760685 2.260252
v 13141318.900958 4413894.760685 10.485810
v 13141328.900958 4413894.760685 7.855115
v 13141338.900958 4413894.760685 7.709879
v 13141348.900958 4413894.760685 0.038949
v 13141358.900958 4413894.760685 2.369464
v 13141208.900958 4413884.760685 14.094520
v 13141218.900958 4413884.760685 5.158800
v 13141228.900958 4413884.760685 15.417219
v 13141238.900958 4413884.760685 14.925413
v 13141248.900958 4413884.760685 -2.443842
v 13141258.900958 4413884.760685 4.676733
v 13141268.900958 4413884.760685 -9.177262
v 13141278.900958 4413884.760685 2.851134
v 13141288.900958 4413884.760685 -5.465075
v 13141298.900958 4413884.760685 -4.011489
v 13141308.900958 4413884.760685 13.439679
v 13141318.900958 4413884.760685 4.823265
v 13141328.900958 4413884.760685 15.349547
v 13141338.900958 4413884.760685 15.087125
v 13141348.900958 4413884.760685 -1.593752
v 13141358.900958 4413884.760685 -7.930529
v 13141208.900958 4413874.760685 13.078515
v 13141218.900958 4413874.760685 10.826285
v 13141228.900958 4413874.760685 11.795441
v 13141238.900958 4413874.760685 3.486827
v 13141248.900958 4413874.760685 -4.024876
v 13141258.900958 4413874.760685 -3.152851
v 13141268.900958 4413874.760685 -6.977182
v 13141278.900958 4413874.760685 -2.613279
v 13141288.900958 4413874.760685 -2.662138
v 13141298.900958 4413874.760685 5.518155
v 13141308.900958 4413874.760685 12.570400
v 13141318.900958 4413874.760685 10.619473
v 13141328.900958 4413874.760685 11.643184
v 13141338.900958 4413874.760685 3.590270
v 13141348.900958 4413874.760685 -3.650484
v 13141358.900958 4413874.760685 -1.538761
v 13141208.900958 4413864.760685 1.417759
v 13141218.900958 4413864.760685 13.100430
v 13141228.900958 4413864.760685 -0.642764
v 13141238.900958 4413864.760685 -7.910044
v 13141248.900958 4413864.760685 1.601448
v 13141258.900958 4413864.760685 -10.754501
v 13141268.900958 4413864.760685 1.004267
v 13141278.900958 4413864.760685 6.189958
v 13141288.900958 4413864.760685 -3.450283
v 13141298.900958 4413864.760685 -5.097488
v 13141308.900958 4413864.760685 8.567049
v 13141318.900958 4413864.760685 -3.011425
v 13141328.900958 4413864.760685 6.630206
v 13141338.900958 4413864.760685 7.933883
v 13141348.900958 4413864.760685 -5.928798
v 13141358.900958 4413864.760685 5.102778
v 13141208.900958 4413854.760685 -4.736037
v 13141218.900958 4413854.760685 -1.096437
v 13141228.900958 4413854.760685 -4.812911
v 13141238.900958 4413854.760685 -2.005849
v 13141248.900958 4413854.760685 0.718365
v 13141258.900958 4413854.760685 -2.495257
v 13141268.900958 4413854.760685 0.621657
v 13141278.900958 4413854.760685 -3.280522
v 13141288.900958 4413854.760685 -6.386567
v 13141298.900958 4413854.760685 -1.989706
v 13141308.900958 4413854.760685 2.177665
v 13141318.900958 4413854.760685 -0.791258
v 13141328.900958 4413854.760685 1.870465
v 13141338.900958 4413854.760685 -2.981566
v 13141348.900958 4413854.760685 -6.863690
v 13141358.900958 4413854.760685 -3.778401
v 13141208.900958 4413844.760685 -3.584524
v 13141218.900958 4413844.760685 2.628765
v 13141228.900958 4413844.760685 -7.450400
v 13141238.900958 4413844.760685 -10.916310
v 13141248.900958 4413844.760685 0.947542
v 13141258.900958 4413844.760685 -10.908514
v 13141268.900958 4413844.760685 -0.430825
v 13141278.900958 4413844.760685 1.638371
v 13141288.900958 4413844.760685 -11.966422
v 13141298.900958 4413844.760685 -0.722779
v 13141308.900958 4413844.760685 -11.260407
v 13141318.900958 4413844.760685 2.193202
v 13141328.900958 4413844.760685 -8.084892
v 13141338.900958 4413844.760685 -11.792627
v 13141348.900958 4413844.760685 -0.202001
v 13141358.900958 4413844.760685 -12.003394
v 13141208.900958 4413834.760685 -7.690290
v 13141218.900958 4413834.760685 -7.480889
v 13141228.900958 4413834.760685 -7.484030
v 13141238.900958 4413834.760685 -2.303433
v 13141248.900958 4413834.760685 1.016760
v 13141258.900958 4413834.760685 -3.578684
v 13141268.900958 4413834.760685 -3.482617
v 13141278.900958 4413834.760685 -11.459362
v 13141288.900958 4413834.760685 -17.634801
v 13141298.900958 4413834.760685 -14.457080
v 13141308.900958 4413834.760685 -15.177933
v 13141318.900958 4413834.760685 -8.234820
v 13141328.900958 4413834.760685 -8.557133
v 13141338.900958 4413834.760685 -3.765474
v 13141348.900958 4413834.760685 -0.840959
v 13141358.900958 4413834.760685 -3.600766
v 13141208.900958 4413824.760685 -7.958699
v 13141218.900958 4413824.760685 1.901064
v 13141228.900958 4413824.760685 -5.810519
v 13141238.900958 4413824.760685 7.129946
v 13141248.900958 4413824.760685 -5.574422
v 13141258.900958 4413824.760685 2.757131
v 13141268.900958 4413824.760685 -14.023145
v 13141278.900958 4413824.760685 -23.468803
v 13141288.900958 4413824.760685 -14.452288
v 13141298.900958 4413824.760685 -24.854767
v 13141308.900958 4413824.760685 -8.765473
v 13141318.900958 4413824.760685 0.710247
v 13141328.900958 4413824.760685 -7.444609
v 13141338.900958 4413824.760685 -10.962909
v 13141348.900958 4413824.760685 -0.179940
v 13141358.900958 4413824.760685 -11.007812
v 13141208.900958 4413814.760685 -4.402788
v 13141218.900958 4413814.760685 -1.797436
v 13141228.900958 4413814.760685 -1.354117
v 13141238.900958 4413814.760685 2.020898
v 13141248.900958 4413814.760685 -4.168828
v 13141258.900958 4413814.760685 -6.232102
v 13141268.900958 4413814.760685 -15.542520
v 13141278.900958 4413814.760685 -16.688125
v 13141288.900958 4413814.760685 -14.858527
v 13141298.900958 4413814.760685 -14.956727
v 13141308.900958 4413814.760685 -5.766106
v 13141318.900958 4413814.760685 -3.526301
v 13141328.900958 4413814.760685 -3.558077
v 13141338.900958 4413814.760685 -0.360566
v 13141348.900958 4413814.760685 0.738449
v 13141358.900958 4413814.760685 -2.192495
v 13141208.900958 4413804.760685 -4.840455
v 13141218.900958 4413804.760685 -2.933642
v 13141228.900958 4413804.760685 11.173100
v 13141238.900958 4413804.760685 -2.277272
v 13141248.900958 4413804.760685 4.579179
v 13141258.900958 4413804.760685 2.383710
v 13141268.900958 4413804.760685 -15.142236
v 13141278.900958 4413804.760685 -22.851815
v 13141288.900958 4413804.760685 -10.697296
v 13141298.900958 4413804.760685 -17.699499
v 13141308.900958 4413804.760685 0.742727
v 13141318.900958 4413804.760685 10.585954
v 13141328.900958 4413804.760685 0.639706
v 13141338.900958 4413804.760685 9.806846
v 13141348.900958 4413804.760685 -5.864007
v 13141358.900958 4413804.760685 4.744975
v 13141208.900958 4413794.760685 2.394921
v 13141218.900958 4413794.760685 10.987091
v 13141228.900958 4413794.760685 14.698650
v 13141238.900958 4413794.760685 7.866286
v 13141248.900958 4413794.760685 5.119904
v 13141258.900958 4413794.760685 -4.813357
v 13141268.900958 4413794.760685 -12.416762
v 13141278.900958 4413794.760685 -10.266656
v 13141288.900958 4413794.760685 -4.916886
v 13141298.900958 4413794.760685 -2.765744
v 13141308.900958 4413794.760685 6.898372
v 13141318.900958 4413794.760685 7.183072
v 13141328.900958 4413794.760685 3.604396
v 13141338.900958 4413794.760685 2.375035
v 13141348.900958 4413794.760685 -6.553960
v 13141358.900958 4413794.760685 -5.859149
v 13141208.900958 4413784.760685 6.146742
v 13141218.900958 4413784.760685 4.864549
v 13141228.900958 4413784.760685 15.274004
v 13141238.900958 4413784.760685 -1.144243
v 13141248.900958 4413784.760685 4.751603
v 13141258.900958 4413784.760685 4.283788
v 13141268.900958 4413784.760685 -9.889116
v 13141278.900958 4413784.760685 1.701762
v 13141288.900958 4413784.760685 -7.174640
v 13141298.900958 4413784.760685 9.549907
v 13141308.900958 4413784.760685 2.830023
v 13141318.900958 4413784.760685 0.651024
v 13141328.900958 4413784.760685 10.113224
v 13141338.900958 4413784.760685 -7.271203
v 13141348.900958 4413784.760685 -1.841302
v 13141358.900958 4413784.760685 -0.895724

# Normals
vn -0.132038 0.991245 0.000123
vn 0.000000 0.000000 0.000000
vn 0.000000 0.000000 0.000000
vn 0.000000 0.000000 0.000000
vn 0.000000 0.000000 0.000000
vn 0.000000 0.000000 0.000000
vn 0.000000 0.000000 0.000000
vn 0.000000 0.000000 0.000000
vn 0.000000 0.000000 0.000000
vn 0.000000 0.000000 0.000000
vn 0.000000 0.000000 0.000000
vn 0.000000 0.000000 0.000000
vn 0.000000 0.000000 0.000000
vn 0.000000 0.000000 0.000000
vn 0.000000 0.000000 0.000000
vn -0.999650 0.026437 0.000136
vn 0.000000 0.000000 0.000000
vn 0.000000 0.000000 0.000000
vn 0.000000 0.000000 0.000000
vn 0.000000 0.000000 0.000000
vn 0.000000 0.000000 0.000000
vn 0.000000 0.000000 0.000000
vn 0.000000 0.000000 0.000000
vn 0.000000 0.000000 0.000000
vn 0.000000 0.000000 0.000000
vn 0.000000 0.000000 0.000000
vn 0.000000 0.000000 0.000000
vn 0.000000 0.000000 0.000000
vn 0.000000 0.000000 0.000000
vn 0.000000 0.000000 0.000000
vn 0.000000 0.000000 0.000000
vn 0.000000 0.000000 0.000000
vn 0.000000 0.000000 0.000000
vn 0.000000 0.000000 0.000000
vn 0.000000 0.000000 0.000000
vn 0.000000 0.000000 0.000000
vn 0.000000 0.000000 0.000000
vn 0.000000 0.000000 0.000000
vn 0.000000 0.000000 0.000000
vn 0.000000 0.000000 0.000000
vn 0.000000 0.000000 0.000000
vn 0.000000 0.000000 0.000000
vn 0.000000 0.000000 0.000000
vn 0.000000 0.000000 0.000000
vn 0.000000 0.000000 0.000000
vn 0.000000 0.000000 0.000000
vn 0.000000 0.000000 0.000000
vn 0.000000 0.000000 0.000000
vn 0.000000 0.000000 0.000000
vn 0.000000 0.000000 0.000000
vn 0.000000 0.000000 0.000000
vn 0.000000 0.000000 0.000000
vn 0.000000 0.000000 0.000000
vn 0.000000 0.000000 0.000000
vn 0.000000 0.000000 0.000000
vn 0.000000 0.000000 0.000000
vn 0.000000 0.000000 0.000000
vn 0.000000 0.000000 0.000000
vn 0.000000 0.000000 0.000000
vn 0.000000 0.000000 0.000000
vn 0.000000 0.000000 0.000000
vn 0.000000 0.000000 0.000000
vn 0.000000 0.000000 0.000000
vn 0.000000 0.000000 0.000000
vn 0.000000 0.000000 0.000000
vn 0.000000 0.000000 0.000000
vn 0.000000 0.000000 0.000000
vn 0.000000 0.000000 0.000000
vn 0.000000 0.000000 0.000000
vn 0.000000 0.000000 0.000000
vn 0.000000 0.000000 0.000000
vn 0.000000 0.000000 0.000000
vn 0.000000 0.000000 0.000000
vn 0.000000 0.000000 0.000000
vn 0.000000 0.000000 0.000000
vn 0.000000 0.000000 0.000000
vn 0.000000 0.000000 0.000000
vn 0.000000 0.000000 0.000000
vn 0.000000 0.000000 0.000000
vn 0.000000 0.000000 0.000000
vn 0.000000 0.000000 0.000000
vn 0.000000 0.000000 0.000000
vn 0.000000 0.000000 0.000000
vn 0.000000 0.000000 0.000000
vn 0.000000 0.000000 0.000000
vn 0.000000 0.000000 0.000000
vn 0.000000 0.000000 0.000000
vn 0.000000 0.000000 0.000000
vn 0.000000 0.000000 0.000000
vn 0.000000 0.000000 0.000000
vn 0.000000 0.000000 0.000000
vn 0.000000 0.000000 0.000000
vn 0.000000 0.000000 0.000000
vn 0.000000 0.000000 0.000000
vn 0.000000 0.000000 0.000000
vn 0.000000 0.000000 0.000000
vn 0.000000 0.000000 0.000000
vn 0.000000 0.000000 0.000000
vn 0.000000 0.000000 0.000000
vn 0.000000 0.000000 0.000000
vn 0.000000 0.000000 0.000000
vn 0.000000 0.000000 0.000000
vn 0.000000 0.000000 0.000000
vn 0.000000 0.000000 0.000000
vn 0.000000 0.000000 0.000000
vn 0.000000 0.000000 0.000000
vn 0.000000 0.000000 0.000000
vn 0.000000 0.000000 0.000000
vn 0.000000 0.000000 0.000000
vn 0.000000 0.000000 0.000000
vn 0.000000 0.000000 0.000000
vn 0.000000 0.000000 0.000000
vn 0.000000 0.000000 0.000000
vn 0.000000 0.000000 0.000000
vn 0.000000 0.000000 0.000000
vn 0.000000 0.000000 0.000000
vn 0.000000 0.000000 0.000000
vn 0.000000 0.000000 0.000000
vn 0.000000 0.000000 0.000000
vn 0.000000 0.000000 0.000000
vn 0.000000 0.000000 0.000000
vn 0.000000 0.000000 0.000000
vn 0.000000 0.000000 0.000000
vn 0.000000 0.000000 0.000000
vn 0.000000 0.000000 0.000000
vn 0.000000 0.000000 0.000000
vn 0.000000 0.000000 0.000000
vn 0.000000 0.000000 0.000000
vn 0.000000 0.000000 0.000000
vn 0.000000 0.000000 0.000000
vn 0.000000 0.000000 0.000000
vn 0.000000 0.000000 0.000000
vn 0.000000 0.000000 0.000000
vn 0.000000 0.000000 0.000000
vn 0.000000 0.000000 0.000000
vn 0.000000 0.000000 0.000000
vn 0.000000 0.000000 0.000000
vn 0.000000 0.000000 0.000000
vn 0.000000 0.000000 0.000000
vn 0.000000 0.000000 0.000000
vn 0.000000 0.000000 0.000000
vn 0.000000 0.000000 0.000000
vn 0.000000 0.000000 0.000000
vn 0.000000 0.000000 0.000000
vn 0.000000 0.000000 0.000000
vn 0.000000 0.000000 0.000000
vn 0.000000 0.000000 0.000000
vn 0.000000 0.000000 0.000000
vn 0.000000 0.000000 0.000000
vn 0.000000 0.000000 0.000000
vn 0.000000 0.000000 0.000000
vn 0.000000 0.000000 0.000000
vn 0.000000 0.000000 0.000000
vn 0.000000 0.000000 0.000000
vn 0.000000 0.000000 0.000000
vn 0.000000 0.000000 0.000000
vn 0.000000 0.000000 0.000000
vn 0.000000 0.000000 0.000000
vn 0.000000 0.000000 0.000000
vn 0.000000 0.000000 0.000000
vn 0.000000 0.000000 0.000000
vn 0.000000 0.000000 0.000000
vn 0.000000 0.000000 0.000000
vn 0.000000 0.000000 0.000000
vn 0.000000 0.000000 0.000000
vn 0.000000 0.000000 0.000000
vn 0.000000 0.000000 0.000000
vn 0.000000 0.000000 0.000000
vn 0.000000 0.000000 0.000000
vn 0.000000 0.000000 0.000000
vn 0.000000 0.000000 0.000000
vn 0.000000 0.000000 0.000000
vn 0.000000 0.000000 0.000000
vn 0.000000 0.000000 0.000000
vn 0.000000 0.000000 0.000000
vn 0.000000 0.000000 0.000000
vn 0.000000 0.000000 0.000000
vn 0.000000 0.000000 0.000000
vn 0.000000 0.000000 0.000000
vn 0.000000 0.000000 0.000000
vn 0.000000 0.000000 0.000000
vn 0.000000 0.000000 0.000000
vn 0.000000 0.000000 0.000000
vn 0.000000 0.000000 0.000000
vn 0.000000 0.000000 0.000000
vn 0.000000 0.000000 0.000000
vn 0.000000 0.000000 0.000000
vn 0.000000 0.000000 0.000000
vn 0.000000 0.000000 0.000000
vn 0.000000 0.000000 0.000000
vn 0.000000 0.000000 0.000000
vn 0.000000 0.000000 0.000000
vn 0.000000 0.000000 0.000000
vn 0.000000 0.000000 0.000000
vn 0.000000 0.000000 0.000000
vn 0.000000 0.000000 0.000000
vn 0.000000 0.000000 0.000000
vn 0.000000 0.000000 0.000000
vn 0.000000 0.000000 0.000000
vn 0.000000 0.000000 0.000000
vn 0.000000 0.000000 0.000000
vn 0.000000 0.000000 0.000000
vn 0.000000 0.000000 0.000000
vn 0.000000 0.000000 0.000000
vn 0.000000 0.000000 0.000000
vn 0.000000 0.000000 0.000000
vn 0.000000 0.000000 0.000000
vn 0.000000 0.000000 0.000000
vn 0.000000 0.000000 0.000000
vn 0.000000 0.000000 0.000000
vn 0.000000 0.000000 0.000000
vn 0.000000 0.000000 0.000000
vn 0.000000 0.000000 0.000000
vn 0.000000 0.000000 0.000000
vn 0.000000 0.000000 0.000000
vn 0.000000 0.000000 0.000000
vn 0.000000 0.000000 0.000000
vn 0.000000 0.000000 0.000000
vn 0.000000 0.000000 0.000000
vn 0.000000 0.000000 0.000000
vn 0.000000 0.000000 0.000000
vn 0.000000 0.000000 0.000000
vn 0.000000 0.000000 0.000000
vn 0.000000 0.000000 0.000000
vn 0.000000 0.000000 0.000000
vn 0.000000 0.000000 0.000000
vn 0.000000 0.000000 0.000000
vn 0.000000 0.000000 0.000000
vn 0.000000 0.000000 0.000000
vn 0.000000 0.000000 0.000000
vn 0.000000 0.000000 0.000000
vn 0.000000 0.000000 0.000000
vn 0.000000 0.000000 0.000000
vn 0.000000 0.000000 0.000000
vn 0.000000 0.000000 0.000000
vn 0.000000 0.000000 0.000000
vn 0.000000 0.000000 0.000000
vn 0.000000 0.000000 0.000000
vn 0.000000 0.000000 0.000000
vn 0.000000 0.000000 0.000000
vn 0.311622 0.950206 0.000060
vn 0.000000 0.000000 0.000000
vn 0.000000 0.000000 0.000000
vn 0.000000 0.000000 0.000000
vn 0.000000 0.000000 0.000000
vn 0.000000 0.000000 0.000000
vn 0.000000 0.000000 0.000000
vn 0.000000 0.000000 0.000000
vn 0.000000 0.000000 0.000000
vn 0.000000 0.000000 0.000000
vn 0.000000 0.000000 0.000000
vn 0.000000 0.000000 0.000000
vn 0.000000 0.000000 0.000000
vn 0.000000 0.000000 0.000000
vn 0.000000 0.000000 0.000000
vn -0.132038 0.991245 0.000123

# Faces
f 1//1 256//256 16//16
f 256//256 1//1 241//241
