# Vertices
v 13141206.901458 4413474.838185 -44.323611
v 13141294.945458 4413474.838185 -10.489800
v 13141326.961458 4413474.838185 -0.511170
v 13141358.977458 4413474.838185 7.519607
v 13141296.946458 4413472.837185 -9.269201
v 13141324.960458 4413472.837185 -0.518442
v 13141210.903458 4413470.836185 -42.203494
v 13141266.931458 4413470.836185 -19.745412
v 13141298.947458 4413470.836185 -8.041312
v 13141348.972458 4413468.835185 6.873151
v 13141294.945458 4413466.834185 -7.435729
v 13141326.961458 4413466.834185 2.530326
v 13141342.969458 4413466.834185 5.987817
v 13141222.909458 4413458.830185 -35.020183
v 13141218.907458 4413454.828185 -35.804778
v 13141226.911458 4413454.828185 -32.373620
v 13141234.915458 4413454.828185 -28.914453
v 13141258.927458 4413454.828185 -18.644867
v 13141266.931458 4413454.828185 -15.342257
v 13141264.930458 4413452.827185 -15.555590
v 13141230.913458 4413450.826185 -28.632608
v 13141246.921458 4413450.826185 -21.611125
v 13141262.929458 4413450.826185 -15.769335
v 13141206.901458 4413448.825185 -39.491151
v 13141238.917458 4413442.822185 -23.715203
v 13141302.949458 4413442.822185 2.108876
v 13141206.901458 4413438.820185 -36.919756
v 13141210.903458 4413438.820185 -35.149354
v 13141218.907458 4413438.820185 -31.555613
v 13141266.931458 4413438.820185 -10.116660
v 13141282.939458 4413438.820185 -3.667247
v 13141262.929458 4413434.818185 -10.384957
v 13141278.937458 4413434.818185 -3.770806
v 13141326.961458 4413434.818185 12.152701
v 13141222.909458 4413426.814185 -25.796941
v 13141254.925458 4413426.814185 -10.910087
v 13141350.973458 4413426.814185 20.490309
v 13141206.901458 4413424.813185 -32.614995
v 13141208.902458 4413424.813185 -31.686704
v 13141214.905458 4413418.810185 -26.712850
v 13141262.929458 4413418.810185 -4.180490
v 13141278.937458 4413418.810185 2.495231
v 13141294.945458 4413418.810185 8.464061
v 13141326.961458 4413418.810185 18.875704
v 13141358.977458 4413418.810185 24.612973
v 13141210.903458 4413414.808185 -27.124455
v 13141206.901458 4413410.806185 -27.503777
v 13141270.933458 4413410.806185 2.621986
v 13141208.902458 4413408.805185 -25.737286
v 13141210.903458 4413406.804185 -23.942485
v 13141226.911458 4413406.804185 -16.036390
v 13141320.958458 4413404.803185 22.022429
v 13141214.905458 4413402.802185 -20.275168
v 13141230.913458 4413402.802185 -12.313970
v 13141246.921458 4413402.802185 -4.555801
v 13141262.929458 4413402.802185 2.744398
v 13141278.937458 4413402.802185 9.380791
v 13141208.902458 4413400.801185 -22.400173
v 13141210.903458 4413398.800185 -20.531359
v 13141234.915458 4413398.800185 -8.536055
v 13141222.909458 4413394.798185 -12.680155
v 13141254.925458 4413394.798185 2.857341
v 13141286.941458 4413394.798185 15.977277
v 13141208.902458 4413392.797185 -18.847405
v 13141212.904458 4413392.797185 -16.822631
v 13141216.906458 4413392.797185 -14.794132
v 13141220.908458 4413392.797185 -12.766577
v 13141224.910458 4413392.797185 -10.744591
v 13141228.912458 4413392.797185 -8.732732
v 13141206.901458 4413386.794185 -17.076548
v 13141208.902458 4413386.794185 -16.056385
v 13141210.903458 4413386.794185 -15.034666
v 13141212.904458 4413386.794185 -14.011987
v 13141214.905458 4413386.794185 -12.988940
v 13141216.906458 4413386.794185 -11.966117
v 13141218.907458 4413386.794185 -10.944107
v 13141220.908458 4413386.794185 -9.923498
v 13141222.909458 4413386.794185 -8.904870
v 13141224.910458 4413386.794185 -7.888803
v 13141226.911458 4413386.794185 -6.875867
v 13141228.912458 4413386.794185 -5.866630
v 13141230.913458 4413386.794185 -4.861649
v 13141246.921458 4413386.794185 2.960739
v 13141262.929458 4413386.794185 10.220810
v 13141278.937458 4413386.794185 16.716102
v 13141294.945458 4413386.794185 22.314736
v 13141310.953458 4413386.794185 27.864598
v 13141344.970458 4413384.793185 34.604540
v 13141206.901458 4413378.790185 -13.221418
v 13141208.902458 4413378.790185 -12.189670
v 13141210.903458 4413378.790185 -11.157130
v 13141212.904458 4413378.790185 -10.124403
v 13141214.905458 4413378.790185 -9.092088
v 13141216.906458 4413378.790185 -8.060786
v 13141218.907458 4413378.790185 -7.031092
v 13141220.908458 4413378.790185 -6.003598
v 13141222.909458 4413378.790185 -4.978893
v 13141224.910458 4413378.790185 -3.957558
v 13141226.911458 4413378.790185 -2.940170
v 13141228.912458 4413378.790185 -1.927298
v 13141230.913458 4413378.790185 -0.919503
v 13141232.914458 4413378.790185 0.082661
v 13141238.917458 4413378.790185 3.049128
v 13141302.949458 4413378.790185 28.283855
v 13141214.905458 4413370.786185 -5.068243
v 13141230.913458 4413370.786185 3.123552
v 13141246.921458 4413370.786185 10.905486
v 13141262.929458 4413370.786185 18.022633
v 13141278.937458 4413370.786185 24.280447
v 13141294.945458 4413370.786185 30.533411
v 13141310.953458 4413370.786185 34.681380
v 13141326.961458 4413370.786185 37.866409
v 13141222.909458 4413362.782185 3.178673
v 13141254.925458 4413362.782185 18.556483
v 13141286.941458 4413362.782185 30.739072
v 13141318.957458 4413362.782185 38.857661
v 13141350.973458 4413362.782185 43.206365
v 13141230.913458 4413354.778185 11.368028
v 13141246.921458 4413354.778185 19.006446
v 13141262.929458 4413354.778185 25.884487
v 13141278.937458 4413354.778185 31.819777
v 13141326.961458 4413354.778185 44.043344
v 13141358.977458 4413354.778185 46.381115
v 13141214.905458 4413338.770185 11.562289
v 13141230.913458 4413338.770185 19.569944
v 13141246.921458 4413338.770185 26.968969
v 13141262.929458 4413338.770185 33.523818
v 13141278.937458 4413338.770185 40.026897
v 13141280.938458 4413338.770185 39.684921
v 13141222.909458 4413330.766185 19.668198
v 13141254.925458 4413330.766185 34.101028
v 13141286.941458 4413330.766185 44.740034
v 13141318.957458 4413330.766185 51.009460
v 13141350.973458 4413330.766185 54.281830
v 13141246.921458 4413322.762185 34.331479
v 13141262.929458 4413322.762185 40.347654
v 13141278.937458 4413322.762185 45.289647
v 13141294.945458 4413322.762185 49.753709
v 13141310.953458 4413322.762185 52.639749
v 13141326.961458 4413322.762185 54.536194
v 13141206.901458 4413320.761185 16.589376
v 13141248.922458 4413320.761185 36.216137
v 13141268.932458 4413320.761185 43.532926
v 13141284.940458 4413320.761185 48.162115
v 13141300.948458 4413320.761185 51.667419
v 13141320.958458 4413320.761185 54.567276
v 13141358.977458 4413320.761185 56.422497

# Normals
vn -0.344285 0.208946 0.915319
vn -0.292061 0.314886 0.903076
vn -0.257833 0.308751 0.915530
vn -0.221250 0.288046 0.931707
vn -0.248636 0.312315 0.916864
vn -0.296506 0.304899 0.905053
vn -0.357840 0.167171 0.918697
vn -0.359655 0.249954 0.898983
vn -0.251872 0.317093 0.914337
vn -0.233301 0.288926 0.928489
vn -0.283226 0.305450 0.909111
vn -0.269963 0.314478 0.910068
vn -0.218586 0.300049 0.928542
vn -0.375739 0.203595 0.904085
vn -0.378510 0.209187 0.901649
vn -0.402473 0.272527 0.873925
vn -0.374026 0.289802 0.880977
vn -0.346395 0.264342 0.900074
vn -0.367445 0.270115 0.889956
vn -0.373922 0.279550 0.884327
vn -0.374276 0.299046 0.877775
vn -0.374342 0.272106 0.886468
vn -0.351577 0.294764 0.888543
vn -0.375161 0.208899 0.903114
vn -0.392728 0.252989 0.884172
vn -0.278324 0.312631 0.908184
vn -0.396226 0.256874 0.881488
vn -0.394118 0.250359 0.884303
vn -0.406404 0.249470 0.878977
vn -0.365526 0.299429 0.881325
vn -0.344496 0.303798 0.888273
vn -0.357547 0.314167 0.879465
vn -0.350281 0.328877 0.877008
vn -0.231575 0.321476 0.918164
vn -0.405872 0.304951 0.861553
vn -0.396393 0.312701 0.863186
vn -0.207657 0.308851 0.928165
vn -0.400607 0.298805 0.866158
vn -0.400226 0.289969 0.869331
vn -0.415866 0.326512 0.848791
vn -0.370787 0.354908 0.858229
vn -0.347872 0.356006 0.867321
vn -0.309110 0.357858 0.881129
vn -0.226473 0.340137 0.912697
vn -0.159114 0.315295 0.935559
vn -0.409019 0.324029 0.853059
vn -0.383823 0.344818 0.856610
vn -0.356678 0.370030 0.857822
vn -0.408794 0.343571 0.845486
vn -0.418621 0.342487 0.841106
vn -0.410257 0.353655 0.840605
vn -0.228962 0.358626 0.904966
vn -0.418350 0.357846 0.834823
vn -0.407689 0.376293 0.831982
vn -0.392907 0.375717 0.839322
vn -0.368821 0.381245 0.847716
vn -0.340082 0.382210 0.859220
vn -0.392512 0.363583 0.844832
vn -0.417166 0.369169 0.830474
vn -0.407012 0.385652 0.828018
vn -0.415233 0.376789 0.828017
vn -0.380822 0.392139 0.837378
vn -0.312184 0.384942 0.868540
vn -0.410459 0.377968 0.829858
vn -0.418805 0.380672 0.824434
vn -0.418546 0.380367 0.824706
vn -0.417137 0.386588 0.822524
vn -0.415452 0.388015 0.822705
vn -0.413621 0.386890 0.824157
vn -0.386234 0.382549 0.839333
vn -0.419213 0.389882 0.819910
vn -0.419275 0.390680 0.819498
vn -0.418945 0.390879 0.819572
vn -0.418855 0.391638 0.819256
vn -0.418850 0.393581 0.818326
vn -0.417992 0.393417 0.818845
vn -0.417550 0.395260 0.818182
vn -0.416390 0.395077 0.818861
vn -0.415515 0.396820 0.818463
vn -0.413982 0.397394 0.818961
vn -0.412552 0.397378 0.819690
vn -0.409084 0.399251 0.820518
vn -0.389745 0.399661 0.829681
vn -0.358793 0.398599 0.844030
vn -0.322541 0.396027 0.859726
vn -0.291290 0.402499 0.867839
vn -0.246580 0.385844 0.889001
vn -0.131118 0.352250 0.926676
vn -0.417414 0.406462 0.812745
vn -0.419425 0.400260 0.814785
vn -0.419976 0.401656 0.813814
vn -0.419159 0.400370 0.814868
vn -0.419115 0.401736 0.814218
vn -0.418630 0.402213 0.814232
vn -0.417968 0.402616 0.814373
vn -0.417140 0.402903 0.814656
vn -0.416086 0.403998 0.814652
vn -0.414766 0.404221 0.815214
vn -0.413504 0.405761 0.815090
vn -0.411716 0.405169 0.816289
vn -0.409931 0.407135 0.816209
vn -0.406702 0.407782 0.817501
vn -0.401476 0.408152 0.819896
vn -0.264718 0.409547 0.873038
vn -0.415966 0.410861 0.811274
vn -0.409083 0.412098 0.814142
vn -0.385328 0.415160 0.824114
vn -0.355775 0.413958 0.837892
vn -0.323222 0.405444 0.855069
vn -0.268067 0.395758 0.878360
vn -0.233204 0.341262 0.910580
vn -0.156962 0.357956 0.920451
vn -0.411942 0.418912 0.809208
vn -0.364278 0.415500 0.833463
vn -0.264240 0.352788 0.897618
vn -0.218830 0.331581 0.917697
vn -0.062669 0.342855 0.937296
vn -0.401230 0.418133 0.814972
vn -0.376214 0.414886 0.828452
vn -0.341175 0.412185 0.844810
vn -0.213395 0.425420 0.879478
vn -0.148578 0.338163 0.929285
vn -0.016090 0.323679 0.946030
vn -0.411269 0.416874 0.810601
vn -0.392563 0.406929 0.824805
vn -0.364424 0.402180 0.839909
vn -0.339115 0.386870 0.857515
vn -0.174064 0.419404 0.890956
vn -0.057158 0.470504 0.880545
vn -0.398348 0.396767 0.826979
vn -0.342548 0.389145 0.855118
vn -0.179797 0.394826 0.900991
vn -0.145264 0.330730 0.932479
vn -0.044680 0.289942 0.956001
vn -0.382339 0.388835 0.838227
vn -0.317320 0.383922 0.867129
vn -0.253056 0.363438 0.896591
vn -0.187165 0.354402 0.916171
vn -0.153271 0.338157 0.928525
vn -0.073231 0.242573 0.967365
vn -0.404854 0.396976 0.823713
vn -0.348140 0.398419 0.848564
vn -0.294217 0.388745 0.873106
vn -0.242480 0.370437 0.896649
vn -0.170128 0.297125 0.939560
vn -0.102119 0.254820 0.961581
vn 0.000549 0.205542 0.978648

# Faces
f 100//100 106//106 101//101
f 106//106 102//102 101//101
f 98//98 106//106 99//99
f 106//106 100//100 99//99
f 81//81 100//100 82//82
f 80//80 98//98 99//99
f 102//102 82//82 101//101
f 106//106 103//103 102//102
f 97//97 106//106 98//98
f 100//100 80//80 99//99
f 106//106 97//97 105//105
f 82//82 100//100 101//101
f 96//96 105//105 97//97
f 81//81 80//80 100//100
f 95//95 105//105 96//96
f 80//80 79//79 98//98
f 74//74 65//65 73//73
f 65//65 72//72 73//73
f 94//94 105//105 95//95
f 94//94 95//95 76//76
f 92//92 74//74 73//73
f 75//75 74//74 93//93
f 92//92 105//105 93//93
f 79//79 78//78 97//97
f 76//76 66//66 75//75
f 72//72 92//92 73//73
f 91//91 105//105 92//92
f 77//77 76//76 95//95
f 90//90 91//91 72//72
f 90//90 105//105 91//91
f 78//78 67//67 77//77
f 67//67 76//76 77//77
f 96//96 97//97 78//78
f 97//97 98//98 79//79
f 80//80 68//68 79//79
f 68//68 78//78 79//79
f 66//66 76//76 67//67
f 65//65 74//74 66//66
f 68//68 80//80 69//69
f 93//93 94//94 75//75
f 89//89 105//105 90//90
f 92//92 93//93 74//74
f 91//91 92//92 72//72
f 82//82 69//69 81//81
f 89//89 90//90 71//71
f 76//76 75//75 94//94
f 70//70 71//71 64//64
f 70//70 89//89 71//71
f 141//141 124//124 89//89
f 2//2 6//6 3//3
f 65//65 64//64 72//72
f 7//7 24//24 15//15
f 28//28 27//27 39//39
f 128//128 132//132 129//129
f 132//132 115//115 129//129
f 47//47 70//70 58//58
f 5//5 2//2 11//11
f 64//64 58//58 70//70
f 69//69 80//80 81//81
f 82//82 60//60 69//69
f 68//68 69//69 61//61
f 54//54 61//61 69//69
f 67//67 78//78 68//68
f 95//95 96//96 77//77
f 61//61 66//66 67//67
f 65//65 66//66 59//59
f 146//146 139//139 145//145
f 136//136 143//143 127//127
f 75//75 66//66 74//74
f 71//71 72//72 64//64
f 23//23 30//30 20//20
f 30//30 19//19 20//20
f 147//147 140//140 146//146
f 135//135 142//142 131//131
f 112//112 117//117 88//88
f 45//45 88//88 123//123
f 10//10 3//3 13//13
f 5//5 6//6 2//2
f 13//13 37//37 10//10
f 37//37 4//4 10//10
f 38//38 47//47 46//46
f 124//124 105//105 89//89
f 137//137 144//144 132//132
f 39//39 38//38 46//46
f 58//58 49//49 47//47
f 87//87 52//52 43//43
f 52//52 87//87 88//88
f 12//12 6//6 9//9
f 4//4 3//3 10//10
f 7//7 1//1 24//24
f 53//53 59//59 66//66
f 46//46 49//49 50//50
f 49//49 46//46 47//47
f 11//11 19//19 31//31
f 11//11 8//8 19//19
f 22//22 23//23 18//18
f 8//8 18//18 19//19
f 14//14 16//16 17//17
f 22//22 17//17 25//25
f 18//18 23//23 20//20
f 8//8 11//11 2//2
f 26//26 31//31 43//43
f 26//26 11//11 31//31
f 33//33 43//43 31//31
f 19//19 18//18 20//20
f 58//58 64//64 59//59
f 59//59 53//53 58//58
f 37//37 13//13 34//34
f 6//6 12//12 3//3
f 27//27 28//28 24//24
f 15//15 14//14 7//7
f 12//12 26//26 34//34
f 26//26 44//44 34//34
f 31//31 19//19 30//30
f 23//23 32//32 30//30
f 61//61 67//67 68//68
f 82//82 83//83 60//60
f 35//35 51//51 36//36
f 35//35 40//40 51//51
f 78//78 77//77 96//96
f 124//124 113//113 105//105
f 36//36 32//32 22//22
f 36//36 41//41 32//32
f 7//7 14//14 8//8
f 15//15 24//24 29//29
f 139//139 138//138 145//145
f 139//139 146//146 133//133
f 21//21 29//29 25//25
f 28//28 29//29 24//24
f 29//29 16//16 15//15
f 21//21 16//16 29//29
f 28//28 39//39 29//29
f 58//58 50//50 49//49
f 50//50 58//58 53//53
f 64//64 65//65 59//59
f 50//50 40//40 46//46
f 46//46 40//40 39//39
f 5//5 9//9 6//6
f 9//9 5//5 11//11
f 4//4 37//37 45//45
f 144//144 145//145 138//138
f 133//133 140//140 134//134
f 57//57 56//56 84//84
f 57//57 48//48 56//56
f 84//84 109//109 85//85
f 63//63 85//85 86//86
f 44//44 43//43 52//52
f 37//37 44//44 45//45
f 41//41 48//48 42//42
f 43//43 42//42 57//57
f 62//62 55//55 83//83
f 36//36 55//55 41//41
f 128//128 127//127 143//143
f 128//128 120//120 127//127
f 84//84 85//85 57//57
f 62//62 84//84 56//56
f 63//63 87//87 43//43
f 44//44 37//37 34//34
f 83//83 55//55 60//60
f 82//82 103//103 83//83
f 57//57 63//63 43//43
f 30//30 32//32 33//33
f 36//36 51//51 55//55
f 53//53 61//61 51//51
f 131//131 126//126 135//135
f 119//119 126//126 120//120
f 107//107 114//114 108//108
f 109//109 108//108 120//120
f 42//42 43//43 33//33
f 41//41 42//42 32//32
f 62//62 83//83 84//84
f 63//63 57//57 85//85
f 112//112 87//87 111//111
f 45//45 44//44 88//88
f 115//115 121//121 129//129
f 120//120 121//121 109//109
f 125//125 135//135 126//126
f 118//118 125//125 119//119
f 114//114 119//119 120//120
f 118//118 119//119 107//107
f 108//108 109//109 84//84
f 60//60 54//54 69//69
f 103//103 107//107 83//83
f 54//54 55//55 51//51
f 21//21 25//25 17//17
f 23//23 22//22 32//32
f 115//115 111//111 110//110
f 111//111 104//104 110//110
f 43//43 44//44 26//26
f 48//48 57//57 42//42
f 131//131 127//127 126//126
f 132//132 128//128 137//137
f 118//118 124//124 125//125
f 119//119 125//125 126//126
f 106//106 118//118 107//107
f 114//114 107//107 119//119
f 38//38 39//39 27//27
f 141//141 130//130 124//124
f 25//25 36//36 22//22
f 33//33 31//31 30//30
f 103//103 106//106 107//107
f 115//115 109//109 121//121
f 11//11 26//26 9//9
f 13//13 3//3 12//12
f 116//116 133//133 122//122
f 117//117 122//122 134//134
f 52//52 88//88 44//44
f 104//104 111//111 87//87
f 111//111 116//116 112//112
f 86//86 87//87 63//63
f 136//136 142//142 143//143
f 144//144 137//137 143//143
f 120//120 126//126 127//127
f 128//128 129//129 121//121
f 139//139 132//132 138//138
f 140//140 133//133 146//146
f 141//141 135//135 130//130
f 131//131 136//136 127//127
f 35//35 29//29 39//39
f 35//35 25//25 29//29
f 117//117 123//123 88//88
f 12//12 34//34 13//13
f 103//103 82//82 102//102
f 113//113 106//106 105//105
f 12//12 9//9 26//26
f 1//1 8//8 2//2
f 136//136 131//131 142//142
f 135//135 141//141 142//142
f 112//112 88//88 87//87
f 16//16 21//21 17//17
f 14//14 15//15 16//16
f 53//53 40//40 50//50
f 72//72 71//71 90//90
f 8//8 14//14 17//17
f 8//8 22//22 18//18
f 114//114 120//120 108//108
f 115//115 116//116 111//111
f 109//109 86//86 85//85
f 48//48 41//41 56//56
f 104//104 86//86 110//110
f 107//107 108//108 83//83
f 25//25 35//35 36//36
f 62//62 56//56 55//55
f 147//147 134//134 140//140
f 117//117 134//134 123//123
f 116//116 122//122 112//112
f 109//109 110//110 86//86
f 130//130 135//135 125//125
f 137//137 128//128 143//143
f 40//40 35//35 39//39
f 22//22 8//8 17//17
f 138//138 132//132 144//144
f 133//133 134//134 122//122
f 113//113 124//124 118//118
f 120//120 128//128 121//121
f 54//54 51//51 61//61
f 55//55 54//54 60//60
f 1//1 7//7 8//8
f 40//40 53//53 51//51
f 132//132 116//116 115//115
f 147//147 123//123 134//134
f 133//133 132//132 139//139
f 133//133 116//116 132//132
f 108//108 84//84 83//83
f 113//113 118//118 106//106
f 86//86 104//104 87//87
f 42//42 33//33 32//32
f 93//93 105//105 94//94
f 61//61 53//53 66//66
f 41//41 55//55 56//56
f 130//130 125//125 124//124
f 117//117 112//112 122//122
f 109//109 115//115 110//110
