# Vertices
v 13141206.901458 4413626.837185 -39.079768
v 13141242.919458 4413626.837185 -29.800117
v 13141274.935458 4413626.837185 -23.771268
v 13141358.977458 4413626.837185 -15.535400
v 13141240.918458 4413624.836185 -30.452067
v 13141244.920458 4413624.836185 -29.558675
v 13141272.934458 4413624.836185 -24.283484
v 13141284.940458 4413624.836185 -22.538055
v 13141242.919458 4413622.835185 -30.204214
v 13141274.935458 4413622.835185 -24.172799
v 13141282.939458 4413622.835185 -23.001387
v 13141246.921458 4413618.833185 -29.613930
v 13141278.937458 4413618.833185 -23.905611
v 13141294.945458 4413618.833185 -21.765065
v 13141254.925458 4413610.829185 -28.725580
v 13141286.941458 4413610.829185 -23.404097
v 13141302.949458 4413594.821185 -21.614220
v 13141358.977458 4413586.817185 -14.104330
v 13141222.909458 4413578.813185 -38.952862
v 13141318.957458 4413578.813185 -19.258232
v 13141350.973458 4413578.813185 -13.665802
v 13141266.931458 4413574.811185 -29.511075
v 13141266.931458 4413562.805185 -29.962714
v 13141270.933458 4413562.805185 -28.175261
v 13141298.947458 4413558.803185 -22.855332
v 13141278.937458 4413554.801185 -27.211210
v 13141342.969458 4413554.801185 -12.718444
v 13141358.977458 4413554.801185 -10.047883
v 13141222.909458 4413546.797185 -41.177222
v 13141286.941458 4413546.797185 -24.146249
v 13141318.957458 4413546.797185 -17.408298
v 13141350.973458 4413546.797185 -10.253402
v 13141214.905458 4413538.793185 -44.083120
v 13141294.945458 4413538.793185 -22.356374
v 13141210.903458 4413534.791185 -45.707385
v 13141242.919458 4413534.791185 -36.471821
v 13141250.923458 4413534.791185 -34.158313
v 13141208.902458 4413532.790185 -46.349717
v 13141220.908458 4413532.790185 -42.897653
v 13141206.901458 4413530.789185 -46.988807
v 13141220.908458 4413530.789185 -42.934935
v 13141302.949458 4413530.789185 -18.510820
v 13141250.923458 4413526.787185 -33.879021
v 13141282.939458 4413526.787185 -24.378992
v 13141290.943458 4413526.787185 -22.097633
v 13141214.905458 4413522.785185 -44.796141
v 13141282.939458 4413518.783185 -23.398175
v 13141222.909458 4413514.781185 -42.182291
v 13141286.941458 4413514.781185 -21.601300
v 13141318.957458 4413514.781185 -12.279761
v 13141350.973458 4413514.781185 -4.070474
v 13141290.943458 4413510.779185 -19.717817
v 13141208.902458 4413504.776185 -46.320693
v 13141206.901458 4413502.775185 -46.880668
v 13141246.921458 4413490.769185 -30.817240
v 13141282.939458 4413486.767185 -17.609660
v 13141222.909458 4413482.765185 -39.396231
v 13141254.925458 4413482.765185 -27.089593
v 13141286.941458 4413482.765185 -15.281391
v 13141318.957458 4413482.765185 -4.958801
v 13141350.973458 4413482.765185 3.545563
v 13141206.901458 4413474.761185 -44.323611
v 13141214.905458 4413474.761185 -40.348229
v 13141294.945458 4413474.761185 -10.187713
v 13141326.961458 4413474.761185 -0.497178
v 13141358.977458 4413474.761185 7.519607

# Normals
vn -0.248247 -0.075345 0.965762
vn -0.216901 -0.077311 0.973127
vn -0.150967 -0.049243 0.987311
vn -0.108200 0.026461 0.993777
vn -0.229576 -0.087579 0.969342
vn -0.202643 -0.080741 0.975918
vn -0.173197 -0.083219 0.981365
vn -0.116187 -0.021815 0.992988
vn -0.222773 -0.091092 0.970605
vn -0.153128 -0.096048 0.983528
vn -0.138424 -0.086252 0.986610
vn -0.207288 -0.083900 0.974676
vn -0.153512 -0.089833 0.984055
vn -0.120800 -0.053833 0.991216
vn -0.180128 -0.093100 0.979227
vn -0.154999 -0.074570 0.985096
vn -0.153332 -0.023498 0.987895
vn -0.125006 0.127569 0.983921
vn -0.238323 -0.078457 0.968012
vn -0.171521 0.067720 0.982850
vn -0.143854 0.134052 0.980477
vn -0.224729 -0.038644 0.973655
vn -0.285671 -0.063686 0.956209
vn -0.297973 -0.088640 0.950450
vn -0.200391 0.032381 0.979181
vn -0.277591 -0.023076 0.960422
vn -0.185101 0.093183 0.978292
vn -0.187237 0.149635 0.970851
vn -0.257344 -0.062448 0.964300
vn -0.226407 0.067201 0.971712
vn -0.225603 0.109742 0.968019
vn -0.210232 0.148924 0.966242
vn -0.291331 -0.075199 0.953662
vn -0.239680 0.098130 0.965880
vn -0.278813 -0.050250 0.959030
vn -0.274688 -0.005723 0.961516
vn -0.270085 0.025135 0.962508
vn -0.253950 -0.055243 0.965638
vn -0.276469 -0.058703 0.959228
vn -0.257226 -0.036328 0.965668
vn -0.282802 -0.007535 0.959149
vn -0.279957 0.144073 0.949140
vn -0.291502 0.071853 0.953868
vn -0.270971 0.073538 0.959774
vn -0.297807 0.128559 0.945930
vn -0.283747 -0.005583 0.958883
vn -0.284497 0.137129 0.948819
vn -0.314124 0.047327 0.948202
vn -0.280114 0.155442 0.947298
vn -0.246145 0.178865 0.952586
vn -0.253081 0.204405 0.945605
vn -0.299042 0.165298 0.939814
vn -0.301032 0.037188 0.952889
vn -0.315493 0.055942 0.947278
vn -0.330799 0.109758 0.937297
vn -0.310686 0.168326 0.935490
vn -0.358227 0.138311 0.923333
vn -0.343761 0.178452 0.921945
vn -0.322498 0.222421 0.920067
vn -0.275820 0.236101 0.931762
vn -0.244065 0.233733 0.941170
vn -0.380098 0.204939 0.901956
vn -0.372314 0.256980 0.891820
vn -0.314238 0.243935 0.917469
vn -0.255025 0.246930 0.934873
vn -0.268327 0.220019 0.937866

# Faces
f 1//1 5//5 2//2
f 53//53 54//54 57//57
f 46//46 48//48 41//41
f 39//39 41//41 36//36
f 24//24 22//22 23//23
f 29//29 23//23 19//19
f 8//8 3//3 11//11
f 38//38 40//40 46//46
f 48//48 36//36 41//41
f 33//33 39//39 29//29
f 53//53 40//40 54//54
f 46//46 53//53 48//48
f 11//11 3//3 10//10
f 4//4 8//8 14//14
f 7//7 10//10 3//3
f 7//7 3//3 6//6
f 3//3 2//2 6//6
f 9//9 5//5 19//19
f 38//38 19//19 40//40
f 1//1 40//40 19//19
f 6//6 12//12 7//7
f 10//10 7//7 15//15
f 36//36 37//37 23//23
f 36//36 43//43 37//37
f 29//29 36//36 23//23
f 43//43 36//36 48//48
f 46//46 41//41 35//35
f 44//44 43//43 47//47
f 30//30 26//26 44//44
f 47//47 43//43 55//55
f 37//37 26//26 23//23
f 49//49 47//47 56//56
f 45//45 34//34 44//44
f 45//45 42//42 34//34
f 26//26 37//37 44//44
f 47//47 45//45 44//44
f 14//14 11//11 16//16
f 11//11 14//14 8//8
f 16//16 22//22 17//17
f 16//16 15//15 22//22
f 42//42 31//31 34//34
f 31//31 20//20 25//25
f 59//59 52//52 56//56
f 59//59 60//60 52//52
f 53//53 46//46 40//40
f 48//48 53//53 57//57
f 42//42 45//45 52//52
f 25//25 34//34 31//31
f 10//10 13//13 11//11
f 5//5 6//6 2//2
f 35//35 19//19 38//38
f 35//35 38//38 46//46
f 12//12 9//9 19//19
f 9//9 12//12 6//6
f 58//58 59//59 56//56
f 49//49 56//56 52//52
f 60//60 65//65 61//61
f 21//21 27//27 28//28
f 21//21 20//20 27//27
f 21//21 18//18 20//20
f 4//4 14//14 17//17
f 13//13 10//10 15//15
f 55//55 56//56 47//47
f 48//48 55//55 43//43
f 64//64 58//58 63//63
f 61//61 66//66 51//51
f 32//32 51//51 28//28
f 42//42 50//50 31//31
f 49//49 52//52 45//45
f 32//32 31//31 50//50
f 31//31 32//32 27//27
f 32//32 28//28 27//27
f 13//13 16//16 11//11
f 9//9 6//6 5//5
f 39//39 35//35 41//41
f 36//36 29//29 39//39
f 59//59 64//64 60//60
f 16//16 13//13 15//15
f 8//8 4//4 3//3
f 50//50 42//42 52//52
f 49//49 45//45 47//47
f 66//66 61//61 65//65
f 32//32 50//50 51//51
f 58//58 57//57 63//63
f 59//59 58//58 64//64
f 20//20 31//31 27//27
f 21//21 28//28 18//18
f 60//60 64//64 65//65
f 50//50 61//61 51//51
f 33//33 35//35 39//39
f 62//62 57//57 54//54
f 12//12 15//15 7//7
f 1//1 19//19 5//5
f 4//4 20//20 18//18
f 4//4 17//17 20//20
f 62//62 63//63 57//57
f 60//60 50//50 52//52
f 25//25 24//24 26//26
f 24//24 25//25 22//22
f 33//33 19//19 35//35
f 58//58 56//56 55//55
f 48//48 57//57 55//55
f 22//22 19//19 23//23
f 16//16 17//17 14//14
f 15//15 12//12 19//19
f 60//60 61//61 50//50
f 66//66 28//28 51//51
f 30//30 44//44 34//34
f 57//57 58//58 55//55
f 43//43 44//44 37//37
f 29//29 19//19 33//33
f 25//25 30//30 34//34
f 17//17 22//22 25//25
f 30//30 25//25 26//26
f 24//24 23//23 26//26
f 15//15 19//19 22//22
f 20//20 17//17 25//25
