# Vertices
v 13141208.900958 4413494.760685 13.622137
v 13141218.900958 4413494.760685 10.770553
v 13141228.900958 4413494.760685 19.753892
v 13141238.900958 4413494.760685 2.080416
v 13141248.900958 4413494.760685 7.401004
v 13141258.900958 4413494.760685 8.401351
v 13141268.900958 4413494.760685 -3.669749
v 13141278.900958 4413494.760685 -9.101767
v 13141288.900958 4413494.760685 -1.393877
v 13141298.900958 4413494.760685 -19.258683
v 13141308.900958 4413494.760685 -13.656327
v 13141318.900958 4413494.760685 -12.571119
v 13141328.900958 4413494.760685 -23.093625
v 13141338.900958 4413494.760685 -6.714381
v 13141348.900958 4413494.760685 -12.578111
v 13141358.900958 4413494.760685 3.954839
v 13141208.900958 4413484.760685 12.473510
v 13141218.900958 4413484.760685 15.932677
v 13141228.900958 4413484.760685 15.593679
v 13141238.900958 4413484.760685 6.812633
v 13141248.900958 4413484.760685 4.810701
v 13141258.900958 4413484.760685 -1.491355
v 13141268.900958 4413484.760685 -5.460542
v 13141278.900958 4413484.760685 -3.432899
v 13141288.900958 4413484.760685 -3.769512
v 13141298.900958 4413484.760685 -11.874371
v 13141308.900958 4413484.760685 -12.681816
v 13141318.900958 4413484.760685 -17.843925
v 13141328.900958 4413484.760685 -18.940911
v 13141338.900958 4413484.760685 -11.159927
v 13141348.900958 4413484.760685 -10.007536
v 13141358.900958 4413484.760685 -3.938239
v 13141208.900958 4413474.760685 7.438041
v 13141218.900958 4413474.760685 1.806546
v 13141228.900958 4413474.760685 10.189053
v 13141238.900958 4413474.760685 -5.502549
v 13141248.900958 4413474.760685 3.102927
v 13141258.900958 4413474.760685 6.005136
v 13141268.900958 4413474.760685 -6.426800
v 13141278.900958 4413474.760685 3.832658
v 13141288.900958 4413474.760685 -10.375662
v 13141298.900958 4413474.760685 -1.749120
v 13141308.900958 4413474.760685 -15.552023
v 13141318.900958 4413474.760685 -19.856332
v 13141328.900958 4413474.760685 -6.036212
v 13141338.900958 4413474.760685 -14.604138
v 13141348.900958 4413474.760685 -0.515317
v 13141358.900958 4413474.760685 4.847836
v 13141208.900958 4413464.760685 3.685715
v 13141218.900958 4413464.760685 5.237721
v 13141228.900958 4413464.760685 5.723053
v 13141238.900958 4413464.760685 0.104510
v 13141248.900958 4413464.760685 2.072222
v 13141258.900958 4413464.760685 -2.442771
v 13141268.900958 4413464.760685 -6.395613
v 13141278.900958 4413464.760685 -4.434586
v 13141288.900958 4413464.760685 -9.674158
v 13141298.900958 4413464.760685 -8.093329
v 13141308.900958 4413464.760685 -11.769764
v 13141318.900958 4413464.760685 -7.076551
v 13141328.900958 4413464.760685 -2.067252
v 13141338.900958 4413464.760685 -3.644221
v 13141348.900958 4413464.760685 0.355424
v 13141358.900958 4413464.760685 -2.903009
v 13141208.900958 4413454.760685 3.360995
v 13141218.900958 4413454.760685 11.799625
v 13141228.900958 4413454.760685 -2.839309
v 13141238.900958 4413454.760685 7.027860
v 13141248.900958 4413454.760685 -5.483338
v 13141258.900958 4413454.760685 -10.447150
v 13141268.900958 4413454.760685 -0.355897
v 13141278.900958 4413454.760685 -14.567424
v 13141288.900958 4413454.760685 -5.243609
v 13141298.900958 4413454.760685 -1.839130
v 13141308.900958 4413454.760685 -12.488260
v 13141318.900958 4413454.760685 -14.534555
v 13141328.900958 4413454.760685 -0.690293
v 13141338.900958 4413454.760685 -11.134109
v 13141348.900958 4413454.760685 1.031580
v 13141358.900958 4413454.760685 5.540432
v 13141208.900958 4413444.760685 5.570626
v 13141218.900958 4413444.760685 4.061055
v 13141228.900958 4413444.760685 -3.149887
v 13141238.900958 4413444.760685 -1.940963
v 13141248.900958 4413444.760685 -5.780491
v 13141258.900958 4413444.760685 -3.330096
v 13141268.900958 4413444.760685 -3.524832
v 13141278.900958 4413444.760685 -10.989195
v 13141288.900958 4413444.760685 -10.735027
v 13141298.900958 4413444.760685 -14.448608
v 13141308.900958 4413444.760685 -14.872577
v 13141318.900958 4413444.760685 -7.194056
v 13141328.900958 4413444.760685 -0.621613
v 13141338.900958 4413444.760685 -2.241386
v 13141348.900958 4413444.760685 1.369488
v 13141358.900958 4413444.760685 -3.390932
v 13141208.900958 4413434.760685 12.603621
v 13141218.900958 4413434.760685 -5.371925
v 13141228.900958 4413434.760685 1.722287
v 13141238.900958 4413434.760685 4.238882
v 13141248.900958 4413434.760685 -7.480959
v 13141258.900958 4413434.760685 -13.481100
v 13141268.900958 4413434.760685 -6.532081
v 13141278.900958 4413434.760685 -23.392514
v 13141288.900958 4413434.760685 -14.290405
v 13141298.900958 4413434.760685 -8.531056
v 13141308.900958 4413434.760685 -15.474093
v 13141318.900958 4413434.760685 1.824753
v 13141328.900958 4413434.760685 -5.766608
v 13141338.900958 4413434.760685 7.370611
v 13141348.900958 4413434.760685 -5.048812
v 13141358.900958 4413434.760685 -12.287590
v 13141208.900958 4413424.760685 8.010254
v 13141218.900958 4413424.760685 -2.206652
v 13141228.900958 4413424.760685 -3.239313
v 13141238.900958 4413424.760685 -7.437770
v 13141248.900958 4413424.760685 -9.414221
v 13141258.900958 4413424.760685 -6.964102
v 13141268.900958 4413424.760685 -8.410511
v 13141278.900958 4413424.760685 -16.402044
v 13141288.900958 4413424.760685 -14.273423
v 13141298.900958 4413424.760685 -14.714225
v 13141308.900958 4413424.760685 -11.546548
v 13141318.900958 4413424.760685 -1.768702
v 13141328.900958 4413424.760685 -1.206116
v 13141338.900958 4413424.760685 2.383514
v 13141348.900958 4413424.760685 -3.426542
v 13141358.900958 4413424.760685 -4.700645
v 13141208.900958 4413414.760685 0.906568
v 13141218.900958 4413414.760685 -17.426563
v 13141228.900958 4413414.760685 -8.566145
v 13141238.900958 4413414.760685 -2.833432
v 13141248.900958 4413414.760685 -11.540439
v 13141258.900958 4413414.760685 0.207369
v 13141268.900958 4413414.760685 -14.942296
v 13141278.900958 4413414.760685 -6.386373
v 13141288.900958 4413414.760685 -17.262602
v 13141298.900958 4413414.760685 -16.441044
v 13141308.900958 4413414.760685 2.562138
v 13141318.900958 4413414.760685 -2.864797
v 13141328.900958 4413414.760685 11.358842
v 13141338.900958 4413414.760685 14.062167
v 13141348.900958 4413414.760685 -2.140673
v 13141358.900958 4413414.760685 -12.500933
v 13141208.900958 4413404.760685 -6.630540
v 13141218.900958 4413404.760685 -15.158452
v 13141228.900958 4413404.760685 -12.704725
v 13141238.900958 4413404.760685 -13.152763
v 13141248.900958 4413404.760685 -11.878652
v 13141258.900958 4413404.760685 -7.066704
v 13141268.900958 4413404.760685 -12.141423
v 13141278.900958 4413404.760685 -10.003383
v 13141288.900958 4413404.760685 -10.675895
v 13141298.900958 4413404.760685 -0.987878
v 13141308.900958 4413404.760685 9.269164
v 13141318.900958 4413404.760685 11.036696
v 13141328.900958 4413404.760685 14.869979
v 13141338.900958 4413404.760685 7.727914
v 13141348.900958 4413404.760685 -1.061750
v 13141358.900958 4413404.760685 -3.125836
v 13141208.900958 4413394.760685 -18.179086
v 13141218.900958 4413394.760685 -9.777199
v 13141228.900958 4413394.760685 -20.420478
v 13141238.900958 4413394.760685 -20.183100
v 13141248.900958 4413394.760685 -3.444589
v 13141258.900958 4413394.760685 -12.939770
v 13141268.900958 4413394.760685 -1.802308
v 13141278.900958 4413394.760685 2.861612
v 13141288.900958 4413394.760685 -5.454605
v 13141298.900958 4413394.760685 -4.000921
v 13141308.900958 4413394.760685 13.452736
v 13141318.900958 4413394.760685 4.847724
v 13141328.900958 4413394.760685 15.402788
v 13141338.900958 4413394.760685 15.193755
v 13141348.900958 4413394.760685 -1.883976
v 13141358.900958 4413394.760685 5.559253
v 13141208.900958 4413384.760685 -17.728831
v 13141218.900958 4413384.760685 -15.814088
v 13141228.900958 4413384.760685 -16.927324
v 13141238.900958 4413384.760685 -8.905298
v 13141248.900958 4413384.760685 -1.645846
v 13141258.900958 4413384.760685 -3.158697
v 13141268.900958 4413384.760685 0.031683
v 13141278.900958 4413384.760685 -2.602809
v 13141288.900958 4413384.760685 -2.651272
v 13141298.900958 4413384.760685 5.556234
v 13141308.900958 4413384.760685 12.725911
v 13141318.900958 4413384.760685 10.721943
v 13141328.900958 4413384.760685 11.924897
v 13141338.900958 4413384.760685 3.855480
v 13141348.900958 4413384.760685 -3.391013
v 13141358.900958 4413384.760685 -2.208847
v 13141208.900958 4413374.760685 -6.462199
v 13141218.900958 4413374.760685 -2.403956
v 13141228.900958 4413374.760685 -12.143149
v 13141238.900958 4413374.760685 -13.518160
v 13141248.900958 4413374.760685 0.291764
v 13141258.900958 4413374.760685 -10.778991
v 13141268.900958 4413374.760685 1.014738
v 13141278.900958 4413374.760685 6.201261
v 13141288.900958 4413374.760685 -3.430802
v 13141298.900958 4413374.760685 10.910965
v 13141308.900958 4413374.760685 1.289543
v 13141318.900958 4413374.760685 13.169525
v 13141328.900958 4413374.760685 -0.368433
v 13141338.900958 4413374.760685 -7.404949
v 13141348.900958 4413374.760685 2.379662
v 13141358.900958 4413374.760685 -9.647249
v 13141208.900958 4413364.760685 -0.676401
v 13141218.900958 4413364.760685 -4.830562
v 13141228.900958 4413364.760685 -7.535557
v 13141238.900958 4413364.760685 -2.948036
v 13141248.900958 4413364.760685 0.781873
v 13141258.900958 4413364.760685 -2.462739
v 13141268.900958 4413364.760685 0.753404
v 13141278.900958 4413364.760685 -3.280165
v 13141288.900958 4413364.760685 -6.448563
v 13141298.900958 4413364.760685 -2.414787
v 13141308.900958 4413364.760685 -4.665845
v 13141318.900958 4413364.760685 -0.844176
v 13141328.900958 4413364.760685 -4.347427
v 13141338.900958 4413364.760685 -1.282457
v 13141348.900958 4413364.760685 1.755467
v 13141358.900958 4413364.760685 -1.082435
v 13141208.900958 4413354.760685 5.545176
v 13141218.900958 4413354.760685 7.856188
v 13141228.900958 4413354.760685 -5.431816
v 13141238.900958 4413354.760685 5.417803
v 13141248.900958 4413354.760685 -6.445578
v 13141258.900958 4413354.760685 5.063779
v 13141268.900958 4413354.760685 -7.794213
v 13141278.900958 4413354.760685 -14.257659
v 13141288.900958 4413354.760685 -4.422657
v 13141298.900958 4413354.760685 -16.364555
v 13141308.900958 4413354.760685 -3.302867
v 13141318.900958 4413354.760685 3.114558
v 13141328.900958 4413354.760685 -6.707190
v 13141338.900958 4413354.760685 -9.854808
v 13141348.900958 4413354.760685 2.391643
v 13141358.900958 4413354.760685 -9.019391
v 13141208.900958 4413344.760685 9.205159
v 13141218.900958 4413344.760685 1.444423
v 13141228.900958 4413344.760685 -5.013241
v 13141238.900958 4413344.760685 -3.194806
v 13141248.900958 4413344.760685 -6.622190
v 13141258.900958 4413344.760685 -4.169407
v 13141268.900958 4413344.760685 -10.414480
v 13141278.900958 4413344.760685 -10.753793
v 13141288.900958 4413344.760685 -10.290019
v 13141298.900958 4413344.760685 -13.288177
v 13141308.900958 4413344.760685 -7.149449
v 13141318.900958 4413344.760685 -6.677749
v 13141328.900958 4413344.760685 -6.346237
v 13141338.900958 4413344.760685 -0.758925
v 13141348.900958 4413344.760685 3.035118
v 13141358.900958 4413344.760685 -1.023084
v 13141208.900958 4413334.760685 2.460162
v 13141218.900958 4413334.760685 -7.400198
v 13141228.900958 4413334.760685 0.312041
v 13141238.900958 4413334.760685 -12.627891
v 13141248.900958 4413334.760685 -0.601121
v 13141258.900958 4413334.760685 2.283926
v 13141268.900958 4413334.760685 -13.863983
v 13141278.900958 4413334.760685 -23.116260
v 13141288.900958 4413334.760685 -13.795757
v 13141298.900958 4413334.760685 -23.759547
v 13141308.900958 4413334.760685 -7.084595
v 13141318.900958 4413334.760685 3.127427
v 13141328.900958 4413334.760685 -4.145501
v 13141338.900958 4413334.760685 9.311366
v 13141348.900958 4413334.760685 -2.806040
v 13141358.900958 4413334.760685 6.180665

# Normals
vn 0.494072 -0.869421 0.000224
vn 0.000000 0.000000 0.000000
vn 0.000000 0.000000 0.000000
vn 0.000000 0.000000 0.000000
vn 0.000000 0.000000 0.000000
vn 0.000000 0.000000 0.000000
vn 0.000000 0.000000 0.000000
vn 0.000000 0.000000 0.000000
vn 0.000000 0.000000 0.000000
vn 0.000000 0.000000 0.000000
vn 0.000000 0.000000 0.000000
vn 0.000000 0.000000 0.000000
vn 0.000000 0.000000 0.000000
vn 0.000000 0.000000 0.000000
vn 0.000000 0.000000 0.000000
vn 0.965520 0.260327 0.000135
vn 0.000000 0.000000 0.000000
vn 0.000000 0.000000 0.000000
vn 0.000000 0.000000 0.000000
vn 0.000000 0.000000 0.000000
vn 0.000000 0.000000 0.000000
vn 0.000000 0.000000 0.000000
vn 0.000000 0.000000 0.000000
vn 0.000000 0.000000 0.000000
vn 0.000000 0.000000 0.000000
vn 0.000000 0.000000 0.000000
vn 0.000000 0.000000 0.000000
vn 0.000000 0.000000 0.000000
vn 0.000000 0.000000 0.000000
vn 0.000000 0.000000 0.000000
vn 0.000000 0.000000 0.000000
vn 0.000000 0.000000 0.000000
vn 0.000000 0.000000 0.000000
vn 0.000000 0.000000 0.000000
vn 0.000000 0.000000 0.000000
vn 0.000000 0.000000 0.000000
vn 0.000000 0.000000 0.000000
vn 0.000000 0.000000 0.000000
vn 0.000000 0.000000 0.000000
vn 0.000000 0.000000 0.000000
vn 0.000000 0.000000 0.000000
vn 0.000000 0.000000 0.000000
vn 0.000000 0.000000 0.000000
vn 0.000000 0.000000 0.000000
vn 0.000000 0.000000 0.000000
vn 0.000000 0.000000 0.000000
vn 0.000000 0.000000 0.000000
vn 0.000000 0.000000 0.000000
vn 0.000000 0.000000 0.000000
vn 0.000000 0.000000 0.000000
vn 0.000000 0.000000 0.000000
vn 0.000000 0.000000 0.000000
vn 0.000000 0.000000 0.000000
vn 0.000000 0.000000 0.000000
vn 0.000000 0.000000 0.000000
vn 0.000000 0.000000 0.000000
vn 0.000000 0.000000 0.000000
vn 0.000000 0.000000 0.000000
vn 0.000000 0.000000 0.000000
vn 0.000000 0.000000 0.000000
vn 0.000000 0.000000 0.000000
vn 0.000000 0.000000 0.000000
vn 0.000000 0.000000 0.000000
vn 0.000000 0.000000 0.000000
vn 0.000000 0.000000 0.000000
vn 0.000000 0.000000 0.000000
vn 0.000000 0.000000 0.000000
vn 0.000000 0.000000 0.000000
vn 0.000000 0.000000 0.000000
vn 0.000000 0.000000 0.000000
vn 0.000000 0.000000 0.000000
vn 0.000000 0.000000 0.000000
vn 0.000000 0.000000 0.000000
vn 0.000000 0.000000 0.000000
vn 0.000000 0.000000 0.000000
vn 0.000000 0.000000 0.000000
vn 0.000000 0.000000 0.000000
vn 0.000000 0.000000 0.000000
vn 0.000000 0.000000 0.000000
vn 0.000000 0.000000 0.000000
vn 0.000000 0.000000 0.000000
vn 0.000000 0.000000 0.000000
vn 0.000000 0.000000 0.000000
vn 0.000000 0.000000 0.000000
vn 0.000000 0.000000 0.000000
vn 0.000000 0.000000 0.000000
vn 0.000000 0.000000 0.000000
vn 0.000000 0.000000 0.000000
vn 0.000000 0.000000 0.000000
vn 0.000000 0.000000 0.000000
vn 0.000000 0.000000 0.000000
vn 0.000000 0.000000 0.000000
vn 0.000000 0.000000 0.000000
vn 0.000000 0.000000 0.000000
vn 0.000000 0.000000 0.000000
vn 0.000000 0.000000 0.000000
vn 0.000000 0.000000 0.000000
vn 0.000000 0.000000 0.000000
vn 0.000000 0.000000 0.000000
vn 0.000000 0.000000 0.000000
vn 0.000000 0.000000 0.000000
vn 0.000000 0.000000 0.000000
vn 0.000000 0.000000 0.000000
vn 0.000000 0.000000 0.000000
vn 0.000000 0.000000 0.000000
vn 0.000000 0.000000 0.000000
vn 0.000000 0.000000 0.000000
vn 0.000000 0.000000 0.000000
vn 0.000000 0.000000 0.000000
vn 0.000000 0.000000 0.000000
vn 0.000000 0.000000 0.000000
vn 0.000000 0.000000 0.000000
vn 0.000000 0.000000 0.000000
vn 0.000000 0.000000 0.000000
vn 0.000000 0.000000 0.000000
vn 0.000000 0.000000 0.000000
vn 0.000000 0.000000 0.000000
vn 0.000000 0.000000 0.000000
vn 0.000000 0.000000 0.000000
vn 0.000000 0.000000 0.000000
vn 0.000000 0.000000 0.000000
vn 0.000000 0.000000 0.000000
vn 0.000000 0.000000 0.000000
vn 0.000000 0.000000 0.000000
vn 0.000000 0.000000 0.000000
vn 0.000000 0.000000 0.000000
vn 0.000000 0.000000 0.000000
vn 0.000000 0.000000 0.000000
vn 0.000000 0.000000 0.000000
vn 0.000000 0.000000 0.000000
vn 0.000000 0.000000 0.000000
vn 0.000000 0.000000 0.000000
vn 0.000000 0.000000 0.000000
vn 0.000000 0.000000 0.000000
vn 0.000000 0.000000 0.000000
vn 0.000000 0.000000 0.000000
vn 0.000000 0.000000 0.000000
vn 0.000000 0.000000 0.000000
vn 0.000000 0.000000 0.000000
vn 0.000000 0.000000 0.000000
vn 0.000000 0.000000 0.000000
vn 0.000000 0.000000 0.000000
vn 0.000000 0.000000 0.000000
vn 0.000000 0.000000 0.000000
vn 0.000000 0.000000 0.000000
vn 0.000000 0.000000 0.000000
vn 0.000000 0.000000 0.000000
vn 0.000000 0.000000 0.000000
vn 0.000000 0.000000 0.000000
vn 0.000000 0.000000 0.000000
vn 0.000000 0.000000 0.000000
vn 0.000000 0.000000 0.000000
vn 0.000000 0.000000 0.000000
vn 0.000000 0.000000 0.000000
vn 0.000000 0.000000 0.000000
vn 0.000000 0.000000 0.000000
vn 0.000000 0.000000 0.000000
vn 0.000000 0.000000 0.000000
vn 0.000000 0.000000 0.000000
vn 0.000000 0.000000 0.000000
vn 0.000000 0.000000 0.000000
vn 0.000000 0.000000 0.000000
vn 0.000000 0.000000 0.000000
vn 0.000000 0.000000 0.000000
vn 0.000000 0.000000 0.000000
vn 0.000000 0.000000 0.000000
vn 0.000000 0.000000 0.000000
vn 0.000000 0.000000 0.000000
vn 0.000000 0.000000 0.000000
vn 0.000000 0.000000 0.000000
vn 0.000000 0.000000 0.000000
vn 0.000000 0.000000 0.000000
vn 0.000000 0.000000 0.000000
vn 0.000000 0.000000 0.000000
vn 0.000000 0.000000 0.000000
vn 0.000000 0.000000 0.000000
vn 0.000000 0.000000 0.000000
vn 0.000000 0.000000 0.000000
vn 0.000000 0.000000 0.000000
vn 0.000000 0.000000 0.000000
vn 0.000000 0.000000 0.000000
vn 0.000000 0.000000 0.000000
vn 0.000000 0.000000 0.000000
vn 0.000000 0.000000 0.000000
vn 0.000000 0.000000 0.000000
vn 0.000000 0.000000 0.000000
vn 0.000000 0.000000 0.000000
vn 0.000000 0.000000 0.000000
vn 0.000000 0.000000 0.000000
vn 0.000000 0.000000 0.000000
vn 0.000000 0.000000 0.000000
vn 0.000000 0.000000 0.000000
vn 0.000000 0.000000 0.000000
vn 0.000000 0.000000 0.000000
vn 0.000000 0.000000 0.000000
vn 0.000000 0.000000 0.000000
vn 0.000000 0.000000 0.000000
vn 0.000000 0.000000 0.000000
vn 0.000000 0.000000 0.000000
vn 0.000000 0.000000 0.000000
vn 0.000000 0.000000 0.000000
vn 0.000000 0.000000 0.000000
vn 0.000000 0.000000 0.000000
vn 0.000000 0.000000 0.000000
vn 0.000000 0.000000 0.000000
vn 0.000000 0.000000 0.000000
vn 0.000000 0.000000 0.000000
vn 0.000000 0.000000 0.000000
vn 0.000000 0.000000 0.000000
vn 0.000000 0.000000 0.000000
vn 0.000000 0.000000 0.000000
vn 0.000000 0.000000 0.000000
vn 0.000000 0.000000 0.000000
vn 0.000000 0.000000 0.000000
vn 0.000000 0.000000 0.000000
vn 0.000000 0.000000 0.000000
vn 0.000000 0.000000 0.000000
vn 0.000000 0.000000 0.000000
vn 0.000000 0.000000 0.000000
vn 0.000000 0.000000 0.000000
vn 0.000000 0.000000 0.000000
vn 0.000000 0.000000 0.000000
vn 0.000000 0.000000 0.000000
vn 0.000000 0.000000 0.000000
vn 0.000000 0.000000 0.000000
vn 0.000000 0.000000 0.000000
vn 0.000000 0.000000 0.000000
vn 0.000000 0.000000 0.000000
vn 0.000000 0.000000 0.000000
vn 0.000000 0.000000 0.000000
vn 0.000000 0.000000 0.000000
vn 0.000000 0.000000 0.000000
vn 0.000000 0.000000 0.000000
vn 0.000000 0.000000 0.000000
vn 0.000000 0.000000 0.000000
vn 0.000000 0.000000 0.000000
vn 0.000000 0.000000 0.000000
vn 0.000000 0.000000 0.000000
vn 0.000000 0.000000 0.000000
vn 0.000000 0.000000 0.000000
vn 0.000000 0.000000 0.000000
vn 0.000000 0.000000 0.000000
vn 0.000000 0.000000 0.000000
vn 0.000000 0.000000 0.000000
vn 0.000000 0.000000 0.000000
vn 0.000000 0.000000 0.000000
vn 0.000000 0.000000 0.000000
vn 0.000000 0.000000 0.000000
vn 0.000000 0.000000 0.000000
vn 0.000000 0.000000 0.000000
vn 0.000000 0.000000 0.000000
vn 0.000000 0.000000 0.000000
vn 0.000000 0.000000 0.000000
vn 0.000000 0.000000 0.000000
vn 0.000000 0.000000 0.000000
vn 0.000000 0.000000 0.000000
vn -0.273761 -0.961798 0.000099
vn 0.000000 0.000000 0.000000
vn 0.000000 0.000000 0.000000
vn 0.000000 0.000000 0.000000
vn 0.000000 0.000000 0.000000
vn 0.000000 0.000000 0.000000
vn 0.000000 0.000000 0.000000
vn 0.000000 0.000000 0.000000
vn 0.000000 0.000000 0.000000
vn 0.000000 0.000000 0.000000
vn 0.000000 0.000000 0.000000
vn 0.000000 0.000000 0.000000
vn 0.000000 0.000000 0.000000
vn 0.000000 0.000000 0.000000
vn 0.000000 0.000000 0.000000
vn 0.494072 -0.869421 0.000224

# Faces
f 1//1 272//272 16//16
f 272//272 1//1 257//257
