# Vertices
v 13141054.900958 4413476.760685 -71.183219
v 13141160.900958 4413476.760685 -59.325828
v 13141360.900958 4413476.760685 7.428287
v 13141160.900958 4413474.760685 -59.209823
v 13141158.900958 4413468.760685 -59.322204
v 13141150.900958 4413444.760685 -55.616174
v 13141118.900958 4413412.760685 -51.758078
v 13141190.900958 4413404.760685 -32.769944
v 13141254.900958 4413404.760685 -1.734545
v 13141270.900958 4413404.760685 5.259886
v 13141070.900958 4413396.760685 -60.807577
v 13141166.900958 4413396.760685 -40.306133
v 13141358.900958 4413396.760685 32.124916
v 13141174.900958 4413388.760685 -33.573822
v 13141056.900958 4413382.760685 -58.825456
v 13141054.900958 4413380.760685 -58.384091
v 13141150.900958 4413380.760685 -38.625002
v 13141342.900958 4413380.760685 35.812014
v 13141134.900958 4413364.760685 -37.055772
v 13141334.900958 4413356.760685 43.709616
v 13141182.900958 4413348.760685 -1.931334
v 13141262.900958 4413332.760685 38.291204
v 13141342.900958 4413316.760685 58.326329
v 13141360.900958 4413302.760685 60.722310
v 13141358.900958 4413300.760685 62.957481
v 13141246.900958 4413284.760685 52.797205
v 13141198.900958 4413236.760685 44.340554
v 13141214.900958 4413188.760685 55.207297
v 13141230.900958 4413172.760685 59.830208
v 13141054.900958 4413168.760685 7.210288
v 13141234.900958 4413168.760685 59.304178
v 13141360.900958 4413168.760685 73.278567

# Normals
vn -0.069299 0.128230 0.989320
vn -0.287316 0.117573 0.950593
vn -0.209894 0.340426 0.916545
vn -0.404503 0.099205 0.909140
vn -0.238930 0.130417 0.962239
vn -0.194565 0.214314 0.957190
vn -0.164904 0.208298 0.964063
vn -0.405321 0.290037 0.866945
vn -0.386342 0.332287 0.860421
vn -0.279200 0.397078 0.874286
vn -0.160343 0.186637 0.969256
vn -0.269636 0.288243 0.918810
vn -0.111199 0.334060 0.935969
vn -0.389621 0.442198 0.807871
vn -0.065711 0.240900 0.968323
vn -0.092903 0.267789 0.958988
vn -0.276603 0.390268 0.878170
vn -0.206141 0.386469 0.898970
vn -0.284657 0.320208 0.903569
vn -0.106092 0.357324 0.927935
vn -0.412546 0.420600 0.808023
vn -0.268273 0.384996 0.883067
vn 0.006885 0.355744 0.934558
vn 0.267361 0.328851 0.905746
vn 0.225370 0.235231 0.945449
vn -0.181375 0.177417 0.967278
vn -0.387721 0.229911 0.892644
vn -0.266902 0.078694 0.960505
vn -0.147551 -0.066638 0.986807
vn -0.294819 0.077015 0.952444
vn -0.069355 -0.093490 0.993202
vn 0.183884 0.076170 0.979992

# Faces
f 4//4 2//2 5//5
f 15//15 16//16 19//19
f 25//25 24//24 23//23
f 11//11 1//1 15//15
f 15//15 1//1 16//16
f 4//4 9//9 2//2
f 3//3 2//2 9//9
f 29//29 31//31 26//26
f 22//22 9//9 21//21
f 22//22 10//10 9//9
f 20//20 13//13 18//18
f 13//13 10//10 18//18
f 13//13 20//20 24//24
f 10//10 20//20 18//18
f 13//13 3//3 10//10
f 5//5 8//8 4//4
f 20//20 23//23 24//24
f 3//3 13//13 24//24
f 10//10 3//3 9//9
f 1//1 5//5 2//2
f 6//6 8//8 5//5
f 14//14 8//8 12//12
f 14//14 21//21 8//8
f 6//6 12//12 8//8
f 21//21 14//14 17//17
f 23//23 20//20 22//22
f 30//30 19//19 16//16
f 21//21 19//19 27//27
f 12//12 17//17 14//14
f 6//6 7//7 12//12
f 9//9 4//4 8//8
f 17//17 12//12 7//7
f 30//30 27//27 19//19
f 30//30 28//28 27//27
f 7//7 1//1 11//11
f 11//11 15//15 19//19
f 28//28 30//30 29//29
f 29//29 30//30 31//31
f 32//32 25//25 26//26
f 25//25 32//32 24//24
f 23//23 26//26 25//25
f 10//10 22//22 20//20
f 28//28 29//29 26//26
f 32//32 26//26 31//31
f 8//8 21//21 9//9
f 1//1 6//6 5//5
f 17//17 7//7 19//19
f 1//1 7//7 6//6
f 21//21 27//27 26//26
f 26//26 23//23 22//22
f 21//21 17//17 19//19
f 28//28 26//26 27//27
f 21//21 26//26 22//22
f 11//11 19//19 7//7
