# Vertices
v 13141054.900958 4413778.760685 -55.356725
v 13141142.900958 4413778.760685 -59.557659
v 13141360.900958 4413778.760685 -14.911857
v 13141138.900958 4413774.760685 -60.284313
v 13141134.900958 4413762.760685 -60.861707
v 13141118.900958 4413714.760685 -60.247378
v 13141182.900958 4413650.760685 -41.240687
v 13141358.900958 4413602.760685 -15.577536
v 13141360.900958 4413592.760685 -13.966016
v 13141278.900958 4413554.760685 -25.743401
v 13141150.900958 4413490.760685 -60.299480
v 13141166.900958 4413474.760685 -55.812098
v 13141054.900958 4413472.760685 -71.008180
v 13141160.900958 4413472.760685 -59.081883
v 13141360.900958 4413472.760685 8.502833

# Normals
vn 0.048605 -0.087871 0.994945
vn -0.156252 -0.018572 0.987543
vn -0.329000 0.027132 0.943940
vn -0.031922 -0.091567 0.995287
vn -0.110902 0.015934 0.993704
vn -0.095184 0.011933 0.995388
vn -0.192803 0.011142 0.981174
vn -0.280249 0.036196 0.959245
vn -0.352343 0.103084 0.930177
vn -0.227387 0.056536 0.972162
vn -0.226273 -0.067542 0.971719
vn -0.329293 -0.153141 0.931727
vn -0.110470 -0.030096 0.993424
vn -0.280458 -0.233988 0.930910
vn -0.284097 -0.086080 0.954924

# Faces
f 1//1 4//4 2//2
f 15//15 12//12 14//14
f 3//3 8//8 9//9
f 7//7 2//2 5//5
f 3//3 2//2 7//7
f 8//8 10//10 9//9
f 15//15 9//9 10//10
f 4//4 5//5 2//2
f 1//1 5//5 4//4
f 12//12 11//11 14//14
f 13//13 14//14 11//11
f 13//13 11//11 7//7
f 11//11 12//12 10//10
f 10//10 7//7 11//11
f 15//15 10//10 12//12
f 6//6 7//7 5//5
f 1//1 6//6 5//5
f 3//3 7//7 8//8
f 1//1 13//13 6//6
f 13//13 7//7 6//6
f 10//10 8//8 7//7
