# Vertices
v 13141054.900958 4413778.760685 -55.356725
v 13141130.900958 4413778.760685 -60.803577
v 13141208.900958 4413778.760685 -43.667817
v 13141126.900958 4413770.760685 -61.648694
v 13141118.900958 4413714.760685 -60.247378
v 13141054.900958 4413624.760685 -71.077424
v 13141208.900958 4413624.760685 -38.672505

# Normals
vn 0.044705 -0.076575 0.996061
vn -0.072830 -0.068694 0.994976
vn -0.212210 0.030514 0.976747
vn -0.069567 -0.017152 0.997430
vn -0.114022 0.005419 0.993463
vn -0.116402 -0.036660 0.992525
vn -0.204348 0.030203 0.978432

# Faces
f 1//1 4//4 2//2
f 5//5 3//3 4//4
f 4//4 3//3 2//2
f 7//7 3//3 5//5
f 1//1 5//5 4//4
f 1//1 6//6 5//5
f 6//6 7//7 5//5
