# Vertices
v 13141054.901458 4413626.837185 -70.966420
v 13141088.918458 4413626.837185 -68.195496
v 13141120.934458 4413626.837185 -62.752733
v 13141206.977458 4413626.837185 -39.079768
v 13141088.918458 4413624.836185 -68.259693
v 13141120.934458 4413624.836185 -62.804546
v 13141090.919458 4413622.835185 -68.062133
v 13141122.935458 4413622.835185 -62.429825
v 13141202.975458 4413622.835185 -40.533857
v 13141094.921458 4413618.833185 -67.452586
v 13141126.937458 4413618.833185 -61.386080
v 13141206.977458 4413618.833185 -39.730371
v 13141102.925458 4413610.829185 -66.154973
v 13141134.941458 4413610.829185 -59.474463
v 13141198.973458 4413610.829185 -42.641549
v 13141174.961458 4413602.825185 -49.702793
v 13141086.917458 4413594.821185 -69.160934
v 13141150.949458 4413594.821185 -56.841871
v 13141134.941458 4413578.813185 -61.388791
v 13141062.905458 4413570.809185 -72.227761
v 13141058.903458 4413566.807185 -72.700297
v 13141054.901458 4413562.805185 -73.010233
v 13141118.933458 4413562.805185 -64.565844
v 13141148.948458 4413548.798185 -60.208826
v 13141070.909458 4413546.797185 -71.332412
v 13141102.925458 4413546.797185 -68.127548
v 13141166.957458 4413546.797185 -55.868384
v 13141198.973458 4413546.797185 -47.736063
v 13141206.977458 4413538.793185 -46.644921
v 13141086.917458 4413530.789185 -69.483507
v 13141150.949458 4413530.789185 -60.926310
v 13141186.967458 4413526.787185 -52.673563
v 13141102.925458 4413514.781185 -68.583292
v 13141134.941458 4413514.781185 -64.191040
v 13141166.957458 4413514.781185 -57.518344
v 13141198.973458 4413514.781185 -48.716564
v 13141074.911458 4413510.779185 -71.158690
v 13141206.977458 4413506.777185 -47.037124
v 13141082.915458 4413502.775185 -70.645498
v 13141178.963458 4413502.775185 -55.305142
v 13141198.973458 4413502.775185 -49.427770
v 13141146.947458 4413494.771185 -62.937256
v 13141190.969458 4413490.769185 -50.872480
v 13141102.925458 4413482.765185 -68.822803
v 13141134.941458 4413482.765185 -64.459285
v 13141166.957458 4413482.765185 -58.037497
v 13141146.947458 4413478.763185 -62.712283
v 13141054.901458 4413474.761185 -71.097787
v 13141094.921458 4413474.761185 -69.487769
v 13141126.937458 4413474.761185 -65.716190
v 13141142.945458 4413474.761185 -63.400656
v 13141158.953458 4413474.761185 -58.912303
v 13141174.961458 4413474.761185 -55.257239
v 13141206.977458 4413474.761185 -44.323611

# Normals
vn -0.076455 -0.031640 0.996571
vn -0.152521 -0.045325 0.987260
vn -0.235645 -0.049330 0.970586
vn -0.267481 -0.081370 0.960121
vn -0.102859 -0.027534 0.994315
vn -0.183750 -0.015852 0.982845
vn -0.161575 -0.037983 0.986129
vn -0.235380 -0.018112 0.971735
vn -0.263990 -0.072433 0.961802
vn -0.179912 -0.030632 0.983206
vn -0.252582 -0.022408 0.967316
vn -0.257726 -0.079148 0.962971
vn -0.185159 -0.006854 0.982685
vn -0.224088 -0.037951 0.973830
vn -0.264081 -0.078784 0.961277
vn -0.253577 -0.068569 0.964882
vn -0.135627 -0.023251 0.990487
vn -0.238280 -0.068983 0.968743
vn -0.193724 -0.047803 0.979891
vn -0.100311 -0.016632 0.994817
vn -0.083848 -0.013533 0.996387
vn -0.071051 -0.001043 0.997472
vn -0.168295 -0.034568 0.985130
vn -0.191024 -0.053954 0.980101
vn -0.106846 0.002456 0.994273
vn -0.129007 -0.020249 0.991437
vn -0.242435 -0.065232 0.967972
vn -0.244930 -0.083201 0.965964
vn -0.241124 -0.044795 0.969460
vn -0.095163 -0.009734 0.995414
vn -0.211749 -0.041620 0.976437
vn -0.251938 -0.043303 0.966774
vn -0.107242 -0.015262 0.994116
vn -0.158756 -0.027053 0.986947
vn -0.218369 -0.031952 0.975343
vn -0.273909 -0.021770 0.961509
vn -0.081166 -0.004378 0.996691
vn -0.266688 0.003641 0.963776
vn -0.070676 0.004067 0.997491
vn -0.265221 0.002524 0.964184
vn -0.289768 0.025095 0.956768
vn -0.187803 -0.011501 0.982139
vn -0.300615 0.061718 0.951747
vn -0.114407 0.000610 0.993434
vn -0.136656 -0.008939 0.990578
vn -0.249891 0.047475 0.967109
vn -0.209028 0.052245 0.976513
vn -0.038766 0.023240 0.998978
vn -0.081336 0.020850 0.996469
vn -0.131742 0.000553 0.991284
vn -0.187978 0.024043 0.981879
vn -0.247656 0.122590 0.961061
vn -0.280462 0.071495 0.957199
vn -0.315329 0.076880 0.945863

# Faces
f 1//1 5//5 2//2
f 38//38 41//41 54//54
f 38//38 36//36 41//41
f 6//6 3//3 10//10
f 21//21 22//22 25//25
f 8//8 6//6 13//13
f 9//9 3//3 11//11
f 7//7 5//5 17//17
f 5//5 7//7 2//2
f 31//31 24//24 34//34
f 31//31 27//27 24//24
f 16//16 15//15 9//9
f 4//4 9//9 12//12
f 52//52 47//47 51//51
f 44//44 33//33 39//39
f 33//33 37//37 39//39
f 48//48 37//37 22//22
f 30//30 37//37 33//33
f 28//28 32//32 29//29
f 28//28 27//27 32//32
f 35//35 46//46 40//40
f 46//46 43//43 40//40
f 35//35 42//42 46//46
f 35//35 34//34 42//42
f 11//11 8//8 13//13
f 6//6 8//8 3//3
f 10//10 7//7 17//17
f 7//7 10//10 2//2
f 52//52 46//46 47//47
f 34//34 45//45 42//42
f 20//20 1//1 21//21
f 21//21 1//1 22//22
f 46//46 53//53 43//43
f 28//28 16//16 27//27
f 28//28 15//15 16//16
f 14//14 16//16 11//11
f 28//28 12//12 15//15
f 14//14 18//18 16//16
f 29//29 36//36 38//38
f 46//46 52//52 53//53
f 50//50 44//44 49//49
f 14//14 11//11 13//13
f 8//8 11//11 3//3
f 19//19 24//24 18//18
f 27//27 18//18 24//24
f 30//30 33//33 26//26
f 23//23 26//26 24//24
f 1//1 20//20 17//17
f 20//20 21//21 25//25
f 28//28 29//29 12//12
f 54//54 43//43 53//53
f 43//43 41//41 40//40
f 47//47 45//45 51//51
f 47//47 46//46 42//42
f 50//50 51//51 45//45
f 3//3 2//2 10//10
f 4//4 3//3 9//9
f 31//31 35//35 27//27
f 47//47 42//42 45//45
f 49//49 44//44 39//39
f 45//45 44//44 50//50
f 31//31 34//34 35//35
f 33//33 34//34 26//26
f 10//10 13//13 6//6
f 1//1 17//17 5//5
f 35//35 40//40 32//32
f 36//36 29//29 32//32
f 33//33 45//45 34//34
f 25//25 26//26 20//20
f 37//37 48//48 39//39
f 36//36 40//40 41//41
f 16//16 9//9 11//11
f 13//13 10//10 17//17
f 36//36 32//32 40//40
f 43//43 54//54 41//41
f 17//17 20//20 26//26
f 25//25 22//22 37//37
f 17//17 23//23 13//13
f 14//14 13//13 19//19
f 27//27 35//35 32//32
f 18//18 27//27 16//16
f 15//15 12//12 9//9
f 18//18 14//14 19//19
f 25//25 30//30 26//26
f 30//30 25//25 37//37
f 23//23 24//24 19//19
f 23//23 19//19 13//13
f 34//34 24//24 26//26
f 23//23 17//17 26//26
f 45//45 33//33 44//44
f 49//49 39//39 48//48
