# Vertices
v 13141054.900958 4413476.760685 -71.183219
v 13141208.900958 4413476.760685 -43.849473
v 13141118.900958 4413412.760685 -51.758078
v 13141150.900958 4413380.760685 -38.625002
v 13141134.900958 4413364.760685 -37.055772
v 13141054.900958 4413318.760685 -38.523766
v 13141208.900958 4413318.760685 18.590209

# Normals
vn -0.134116 0.162584 0.977537
vn -0.287816 0.212928 0.933715
vn -0.157644 0.198458 0.967348
vn -0.299368 0.300411 0.905611
vn -0.243279 0.359053 0.901053
vn -0.186889 0.318549 0.929300
vn -0.374866 0.421461 0.825740

# Faces
f 5//5 7//7 4//4
f 7//7 2//2 4//4
f 6//6 7//7 5//5
f 2//2 3//3 4//4
f 2//2 1//1 3//3
f 3//3 6//6 5//5
f 5//5 4//4 3//3
f 1//1 6//6 3//3
