# Vertices
v 13141054.900958 4413322.760685 -39.980565
v 13141208.900958 4413322.760685 16.619203
v 13141118.900958 4413258.760685 9.960609
v 13141208.900958 4413252.760685 43.457110
v 13141198.900958 4413242.760685 43.186422
v 13141054.900958 4413168.760685 7.210288
v 13141208.900958 4413168.760685 53.160603

# Normals
vn -0.367983 0.314758 0.874938
vn -0.314828 0.350976 0.881873
vn -0.337133 0.252770 0.906890
vn -0.257179 0.250995 0.933199
vn -0.278210 0.161772 0.946799
vn -0.348581 0.220038 0.911085
vn -0.265343 0.120656 0.956575

# Faces
f 5//5 4//4 3//3
f 3//3 7//7 5//5
f 5//5 7//7 4//4
f 2//2 3//3 4//4
f 2//2 1//1 3//3
f 1//1 6//6 3//3
f 6//6 7//7 3//3
