# Vertices
v 13141054.901458 4413320.837185 -39.253649
v 13141090.919458 4413320.837185 -32.792239
v 13141122.935458 4413320.837185 -23.151852
v 13141206.977458 4413320.837185 16.589376
v 13141088.918458 4413318.836185 -32.413628
v 13141124.936458 4413318.836185 -21.463259
v 13141164.956458 4413318.836185 -3.907734
v 13141204.976458 4413318.836185 16.553151
v 13141074.911458 4413316.835185 -34.547149
v 13141082.915458 4413316.835185 -32.926387
v 13141090.919458 4413316.835185 -31.079428
v 13141122.935458 4413316.835185 -21.254918
v 13141170.959458 4413316.835185 0.083067
v 13141094.921458 4413312.833185 -27.367821
v 13141110.929458 4413312.833185 -23.568888
v 13141126.937458 4413312.833185 -17.842997
v 13141158.953458 4413312.833185 -3.829225
v 13141190.969458 4413312.833185 12.296892
v 13141206.977458 4413312.833185 20.472136
v 13141162.955458 4413308.831185 0.080908
v 13141186.967458 4413308.831185 12.181909
v 13141194.971458 4413308.831185 16.278426
v 13141202.975458 4413308.831185 20.343684
v 13141070.909458 4413304.829185 -30.522423
v 13141102.925458 4413304.829185 -22.498116
v 13141134.941458 4413304.829185 -10.799513
v 13141056.902458 4413298.826185 -30.792732
v 13141062.905458 4413296.825185 -28.183029
v 13141068.908458 4413296.825185 -27.773881
v 13141126.937458 4413296.825185 -10.352341
v 13141130.939458 4413292.823185 -6.902322
v 13141086.917458 4413288.821185 -20.286278
v 13141150.949458 4413288.821185 3.721321
v 13141130.939458 4413284.819185 -3.344258
v 13141074.911458 4413280.817185 -20.188130
v 13141076.912458 4413280.817185 -19.694718
v 13141078.913458 4413280.817185 -18.318676
v 13141088.918458 4413280.817185 -16.477075
v 13141094.921458 4413280.817185 -13.737000
v 13141098.923458 4413280.817185 -13.446428
v 13141126.937458 4413280.817185 -3.264292
v 13141142.945458 4413280.817185 3.566742
v 13141190.969458 4413280.817185 26.461582
v 13141206.977458 4413280.817185 33.644042
v 13141102.925458 4413272.813185 -8.883937
v 13141134.941458 4413272.813185 3.401290
v 13141198.973458 4413272.813185 33.183299
v 13141126.937458 4413264.809185 3.231578
v 13141142.945458 4413264.809185 10.010907
v 13141158.953458 4413264.809185 17.241548
v 13141190.969458 4413264.809185 32.173437
v 13141206.977458 4413264.809185 39.367255
v 13141118.933458 4413256.805185 3.059026
v 13141206.977458 4413248.801185 42.852223
v 13141198.973458 4413240.797185 42.073964
v 13141054.901458 4413238.796185 -10.413469
v 13141056.902458 4413238.796185 -9.940991
v 13141076.912458 4413238.796185 -4.754087
v 13141058.903458 4413236.795185 -8.847688
v 13141076.912458 4413234.794185 -3.504597
v 13141060.904458 4413232.793185 -7.147332
v 13141062.905458 4413232.793185 -5.907637
v 13141142.945458 4413232.793185 21.297484
v 13141158.953458 4413232.793185 27.947869
v 13141174.961458 4413232.793185 34.658046
v 13141190.969458 4413232.793185 41.217518
v 13141206.977458 4413232.793185 46.727676
v 13141100.924458 4413230.792185 5.148422
v 13141098.923458 4413228.791185 5.072599
v 13141086.917458 4413224.789185 2.419416
v 13141150.949458 4413224.789185 25.687173
v 13141126.937458 4413216.785185 19.037573
v 13141142.945458 4413216.785185 25.129522
v 13141158.953458 4413216.785185 31.399884
v 13141174.961458 4413216.785185 37.676205
v 13141190.969458 4413216.785185 43.769288
v 13141206.977458 4413216.785185 47.950723
v 13141102.925458 4413208.781185 11.761436
v 13141134.941458 4413208.781185 23.008050
v 13141166.957458 4413208.781185 35.169628
v 13141198.973458 4413208.781185 46.974732
v 13141078.913458 4413200.777185 7.077887
v 13141094.921458 4413200.777185 11.841563
v 13141142.945458 4413200.777185 28.271316
v 13141174.961458 4413200.777185 39.990383
v 13141190.969458 4413200.777185 45.621692
v 13141102.925458 4413176.765185 18.704721
v 13141198.973458 4413176.765185 49.753853
v 13141178.963458 4413172.763185 44.093459
v 13141054.901458 4413168.761185 7.210288
v 13141094.921458 4413168.761185 18.297946
v 13141190.969458 4413168.761185 48.942604
v 13141206.977458 4413168.761185 52.634359

# Normals
vn -0.201282 0.320420 0.925644
vn -0.238772 0.367304 0.898930
vn -0.347946 0.258915 0.901053
vn -0.432320 0.272502 0.859559
vn -0.207699 0.382818 0.900173
vn -0.351120 0.386543 0.852818
vn -0.409906 0.284674 0.866567
vn -0.417458 0.397311 0.817235
vn -0.171877 0.333306 0.927020
vn -0.204581 0.412432 0.887720
vn -0.258351 0.427255 0.866434
vn -0.311078 0.411453 0.856701
vn -0.415112 0.399015 0.817600
vn -0.248829 0.410531 0.877239
vn -0.272340 0.403864 0.873341
vn -0.337587 0.399084 0.852507
vn -0.382117 0.389377 0.838076
vn -0.418962 0.398273 0.815996
vn -0.404191 0.381331 0.831394
vn -0.406368 0.395485 0.823685
vn -0.418532 0.385596 0.822281
vn -0.419973 0.381859 0.823290
vn -0.404434 0.370741 0.836053
vn -0.185706 0.377717 0.907107
vn -0.260068 0.370992 0.891476
vn -0.361456 0.389918 0.846944
vn -0.252426 0.332889 0.908551
vn -0.169913 0.360759 0.917051
vn -0.158395 0.362467 0.918438
vn -0.330801 0.390948 0.858912
vn -0.362306 0.381689 0.850322
vn -0.249508 0.415820 0.874551
vn -0.387557 0.375491 0.841906
vn -0.361052 0.371884 0.855186
vn -0.217947 0.323890 0.920649
vn -0.340938 0.390819 0.854998
vn -0.342808 0.409356 0.845524
vn -0.290591 0.299045 0.908916
vn -0.239335 0.390611 0.888899
vn -0.223546 0.429980 0.874725
vn -0.339912 0.363041 0.867560
vn -0.373864 0.357861 0.855665
vn -0.406769 0.346441 0.845291
vn -0.378175 0.338198 0.861746
vn -0.298928 0.326012 0.896860
vn -0.364679 0.353696 0.861341
vn -0.389354 0.309698 0.867462
vn -0.352077 0.334604 0.874118
vn -0.376185 0.330896 0.865443
vn -0.388980 0.314526 0.865892
vn -0.389582 0.267375 0.881326
vn -0.386977 0.264082 0.883465
vn -0.349813 0.304861 0.885827
vn -0.353790 0.225385 0.907763
vn -0.340519 0.244012 0.908023
vn -0.246653 0.293907 0.923461
vn -0.229304 0.300148 0.925922
vn -0.274421 0.307083 0.911259
vn -0.294318 0.271749 0.916258
vn -0.222147 0.306104 0.925717
vn -0.375345 0.189154 0.907379
vn -0.329281 0.249842 0.910578
vn -0.361558 0.259383 0.895543
vn -0.387786 0.219845 0.895148
vn -0.371405 0.222009 0.901538
vn -0.327594 0.172414 0.928954
vn -0.319279 0.171892 0.931941
vn -0.312469 0.279114 0.907997
vn -0.289769 0.256175 0.922176
vn -0.260225 0.278211 0.924598
vn -0.365201 0.206112 0.907825
vn -0.350938 0.211717 0.912150
vn -0.352316 0.198961 0.914488
vn -0.366977 0.175795 0.913468
vn -0.368177 0.136916 0.919619
vn -0.311958 0.137136 0.940147
vn -0.259922 0.113370 0.958951
vn -0.292747 0.223388 0.929730
vn -0.355961 0.171265 0.918673
vn -0.357183 0.137738 0.923823
vn -0.249212 0.101286 0.963138
vn -0.307920 0.205496 0.928954
vn -0.255038 0.232534 0.938554
vn -0.347433 0.166403 0.922822
vn -0.351096 0.128153 0.927528
vn -0.293007 0.092676 0.951608
vn -0.288624 0.201878 0.935917
vn -0.264840 0.114749 0.957441
vn -0.309390 0.154648 0.938276
vn -0.281260 0.223570 0.933225
vn -0.276365 0.222291 0.934991
vn -0.274955 0.190828 0.942329
vn -0.233048 0.101122 0.967193

# Faces
f 27//27 56//56 35//35
f 36//36 35//35 58//58
f 5//5 2//2 10//10
f 56//56 90//90 61//61
f 62//62 61//61 82//82
f 39//39 32//32 38//38
f 32//32 37//37 38//38
f 27//27 35//35 28//28
f 37//37 36//36 58//58
f 29//29 36//36 32//32
f 24//24 29//29 32//32
f 39//39 45//45 40//40
f 25//25 40//40 30//30
f 6//6 3//3 12//12
f 57//57 56//56 59//59
f 37//37 58//58 38//38
f 57//57 58//58 35//35
f 15//15 12//12 3//3
f 7//7 6//6 17//17
f 19//19 8//8 23//23
f 19//19 4//4 8//8
f 72//72 68//68 78//78
f 72//72 53//53 68//68
f 28//28 35//35 29//29
f 36//36 29//29 35//35
f 62//62 70//70 60//60
f 68//68 58//58 69//69
f 1//1 27//27 24//24
f 1//1 56//56 27//27
f 3//3 2//2 15//15
f 4//4 3//3 7//7
f 13//13 7//7 20//20
f 6//6 7//7 3//3
f 18//18 22//22 8//8
f 18//18 21//21 22//22
f 44//44 23//23 43//43
f 44//44 19//19 23//23
f 15//15 2//2 14//14
f 9//9 10//10 2//2
f 4//4 13//13 18//18
f 13//13 4//4 7//7
f 10//10 14//14 11//11
f 1//1 9//9 2//2
f 20//20 43//43 21//21
f 23//23 8//8 22//22
f 26//26 30//30 31//31
f 30//30 34//34 31//31
f 5//5 11//11 2//2
f 14//14 10//10 24//24
f 44//44 47//47 52//52
f 17//17 6//6 16//16
f 11//11 5//5 10//10
f 54//54 55//55 67//67
f 84//84 87//87 89//89
f 92//92 89//89 91//91
f 18//18 13//13 21//21
f 12//12 16//16 6//6
f 69//69 78//78 68//68
f 69//69 58//58 70//70
f 56//56 57//57 35//35
f 62//62 59//59 61//61
f 11//11 14//14 2//2
f 1//1 24//24 9//9
f 20//20 17//17 33//33
f 16//16 26//26 17//17
f 30//30 41//41 34//34
f 42//42 34//34 46//46
f 48//48 63//63 49//49
f 63//63 50//50 49//49
f 45//45 41//41 40//40
f 46//46 41//41 48//48
f 76//76 75//75 85//85
f 76//76 65//65 75//75
f 65//65 76//76 66//66
f 55//55 66//66 67//67
f 50//50 42//42 49//49
f 50//50 33//33 42//42
f 53//53 63//63 48//48
f 46//46 48//48 49//49
f 80//80 75//75 74//74
f 55//55 65//65 66//66
f 82//82 83//83 70//70
f 82//82 87//87 83//83
f 64//64 65//65 50//50
f 51//51 50//50 65//65
f 88//88 86//86 89//89
f 88//88 81//81 86//86
f 87//87 78//78 83//83
f 72//72 78//78 79//79
f 46//46 49//49 42//42
f 34//34 42//42 31//31
f 50//50 63//63 64//64
f 45//45 48//48 41//41
f 81//81 76//76 86//86
f 76//76 77//77 66//66
f 60//60 58//58 62//62
f 57//57 59//59 58//58
f 39//39 40//40 32//32
f 25//25 32//32 40//40
f 85//85 86//86 76//76
f 80//80 85//85 75//75
f 79//79 87//87 84//84
f 84//84 89//89 85//85
f 90//90 82//82 61//61
f 90//90 91//91 82//82
f 25//25 30//30 15//15
f 30//30 40//40 41//41
f 64//64 74//74 65//65
f 71//71 74//74 64//64
f 33//33 43//43 20//20
f 47//47 43//43 51//51
f 28//28 24//24 27//27
f 45//45 39//39 38//38
f 73//73 84//84 74//74
f 80//80 74//74 84//84
f 20//20 21//21 13//13
f 4//4 18//18 8//8
f 24//24 28//28 29//29
f 37//37 32//32 36//36
f 21//21 43//43 22//22
f 87//87 91//91 89//89
f 55//55 51//51 65//65
f 47//47 51//51 52//52
f 43//43 23//23 22//22
f 81//81 77//77 76//76
f 60//60 70//70 58//58
f 87//87 79//79 78//78
f 26//26 16//16 30//30
f 17//17 20//20 7//7
f 25//25 14//14 32//32
f 16//16 15//15 30//30
f 79//79 84//84 73//73
f 53//53 72//72 63//63
f 71//71 64//64 63//63
f 32//32 14//14 24//24
f 56//56 61//61 59//59
f 59//59 62//62 58//58
f 53//53 45//45 68//68
f 55//55 54//54 51//51
f 71//71 63//63 73//73
f 70//70 78//78 69//69
f 45//45 53//53 48//48
f 26//26 33//33 17//17
f 92//92 88//88 89//89
f 91//91 87//87 82//82
f 93//93 88//88 92//92
f 78//78 70//70 83//83
f 85//85 89//89 86//86
f 77//77 67//67 66//66
f 14//14 25//25 15//15
f 16//16 12//12 15//15
f 80//80 84//84 85//85
f 93//93 81//81 88//88
f 54//54 52//52 51//51
f 47//47 44//44 43//43
f 45//45 38//38 58//58
f 33//33 31//31 42//42
f 71//71 73//73 74//74
f 81//81 93//93 77//77
f 72//72 79//79 73//73
f 65//65 74//74 75//75
f 51//51 43//43 50//50
f 9//9 24//24 10//10
f 26//26 31//31 33//33
f 70//70 62//62 82//82
f 41//41 46//46 34//34
f 45//45 58//58 68//68
f 33//33 50//50 43//43
f 72//72 73//73 63//63
