# Vertices
v 13141508.900958 4413784.760685 -24.416436
v 13141518.900958 4413784.760685 -22.307405
v 13141528.900958 4413784.760685 -31.847193
v 13141538.900958 4413784.760685 -30.509432
v 13141548.900958 4413784.760685 -12.202054
v 13141558.900958 4413784.760685 -18.329482
v 13141568.900958 4413784.760685 -3.463240
v 13141578.900958 4413784.760685 1.469528
v 13141588.900958 4413784.760685 -12.596913
v 13141598.900958 4413784.760685 -5.744542
v 13141608.900958 4413784.760685 -22.331983
v 13141618.900958 4413784.760685 -12.913385
v 13141628.900958 4413784.760685 -22.703305
v 13141638.900958 4413784.760685 -21.771595
v 13141648.900958 4413784.760685 -4.486380
v 13141658.900958 4413784.760685 -13.565639
v 13141668.900958 4413784.760685 -2.123257
v 13141508.900958 4413774.760685 -25.415548
v 13141518.900958 4413774.760685 -29.367572
v 13141528.900958 4413774.760685 -29.318964
v 13141538.900958 4413774.760685 -20.096827
v 13141548.900958 4413774.760685 -11.474833
v 13141558.900958 4413774.760685 -11.198003
v 13141568.900958 4413774.760685 -6.221895
v 13141578.900958 4413774.760685 -9.999872
v 13141588.900958 4413774.760685 -15.330367
v 13141598.900958 4413774.760685 -15.516965
v 13141608.900958 4413774.760685 -21.726483
v 13141618.900958 4413774.760685 -18.802651
v 13141628.900958 4413774.760685 -19.068616
v 13141638.900958 4413774.760685 -10.355297
v 13141648.900958 4413774.760685 -2.548622
v 13141658.900958 4413774.760685 -3.641705
v 13141668.900958 4413774.760685 -0.140800
v 13141508.900958 4413764.760685 -22.367671
v 13141518.900958 4413764.760685 -16.965921
v 13141528.900958 4413764.760685 -25.364606
v 13141538.900958 4413764.760685 -9.491784
v 13141548.900958 4413764.760685 -17.738045
v 13141558.900958 4413764.760685 -4.094396
v 13141568.900958 4413764.760685 -14.576542
v 13141578.900958 4413764.760685 -18.523101
v 13141588.900958 4413764.760685 -7.704703
v 13141598.900958 4413764.760685 -20.923712
v 13141608.900958 4413764.760685 -10.247693
v 13141618.900958 4413764.760685 -5.180779
v 13141628.900958 4413764.760685 -14.071469
v 13141638.900958 4413764.760685 -14.750948
v 13141648.900958 4413764.760685 -0.386774
v 13141658.900958 4413764.760685 -11.030026
v 13141668.900958 4413764.760685 1.079199
v 13141508.900958 4413754.760685 -20.286854
v 13141518.900958 4413754.760685 -21.916791
v 13141528.900958 4413754.760685 -22.140541
v 13141538.900958 4413754.760685 -16.062652
v 13141548.900958 4413754.760685 -17.399482
v 13141558.900958 4413754.760685 -12.651982
v 13141568.900958 4413754.760685 -14.377489
v 13141578.900958 4413754.760685 -9.135638
v 13141588.900958 4413754.760685 -4.771562
v 13141598.900958 4413754.760685 -7.479439
v 13141608.900958 4413754.760685 -4.169462
v 13141618.900958 4413754.760685 -7.304664
v 13141628.900958 4413754.760685 -9.150810
v 13141638.900958 4413754.760685 -3.857124
v 13141648.900958 4413754.760685 0.436803
v 13141658.900958 4413754.760685 -2.374434
v 13141668.900958 4413754.760685 1.154296
v 13141508.900958 4413744.760685 -29.023212
v 13141518.900958 4413744.760685 -29.756149
v 13141528.900958 4413744.760685 -14.578463
v 13141538.900958 4413744.760685 -23.713578
v 13141548.900958 4413744.760685 -10.308815
v 13141558.900958 4413744.760685 -4.325204
v 13141568.900958 4413744.760685 -13.308321
v 13141578.900958 4413744.760685 -13.954480
v 13141588.900958 4413744.760685 0.966579
v 13141598.900958 4413744.760685 -9.097820
v 13141608.900958 4413744.760685 2.458312
v 13141618.900958 4413744.760685 5.807489
v 13141628.900958 4413744.760685 -6.605274
v 13141638.900958 4413744.760685 4.963336
v 13141648.900958 4413744.760685 -6.329103
v 13141658.900958 4413744.760685 5.610378
v 13141668.900958 4413744.760685 -6.953731
v 13141508.900958 4413734.760685 -32.111232
v 13141518.900958 4413734.760685 -23.030498
v 13141528.900958 4413734.760685 -15.106460
v 13141538.900958 4413734.760685 -15.199960
v 13141548.900958 4413734.760685 -10.217921
v 13141558.900958 4413734.760685 -11.419000
v 13141568.900958 4413734.760685 -9.910172
v 13141578.900958 4413734.760685 -0.569187
v 13141588.900958 4413734.760685 6.955556
v 13141598.900958 4413734.760685 4.960057
v 13141608.900958 4413734.760685 6.671797
v 13141618.900958 4413734.760685 -0.026826
v 13141628.900958 4413734.760685 -5.592013
v 13141638.900958 4413734.760685 -3.045983
v 13141648.900958 4413734.760685 -5.905824
v 13141658.900958 4413734.760685 -3.042954
v 13141668.900958 4413734.760685 -9.034874
v 13141508.900958 4413724.760685 -33.081929
v 13141518.900958 4413724.760685 -30.200699
v 13141528.900958 4413724.760685 -12.872478
v 13141538.900958 4413724.760685 -21.531597
v 13141548.900958 4413724.760685 -8.438322
v 13141558.900958 4413724.760685 -0.980932
v 13141568.900958 4413724.760685 -6.434813
v 13141578.900958 4413724.760685 11.913867
v 13141588.900958 4413724.760685 4.251988
v 13141598.900958 4413724.760685 15.811423
v 13141608.900958 4413724.760685 0.657618
v 13141618.900958 4413724.760685 -8.118091
v 13141628.900958 4413724.760685 0.497318
v 13141638.900958 4413724.760685 -11.718514
v 13141648.900958 4413724.760685 0.854704
v 13141658.900958 4413724.760685 4.106976
v 13141668.900958 4413724.760685 -11.854697
v 13141508.900958 4413714.760685 -29.058830
v 13141518.900958 4413714.760685 -17.172655
v 13141528.900958 4413714.760685 -8.357803
v 13141538.900958 4413714.760685 -9.659724
v 13141548.900958 4413714.760685 -6.002773
v 13141558.900958 4413714.760685 -6.932763
v 13141568.900958 4413714.760685 -3.837366
v 13141578.900958 4413714.760685 5.765302
v 13141588.900958 4413714.760685 5.168586
v 13141598.900958 4413714.760685 6.489759
v 13141608.900958 4413714.760685 -1.848207
v 13141618.900958 4413714.760685 -3.497517
v 13141628.900958 4413714.760685 -3.138685
v 13141638.900958 4413714.760685 -5.723925
v 13141648.900958 4413714.760685 -0.527608
v 13141658.900958 4413714.760685 -4.945878
v 13141668.900958 4413714.760685 -12.535659
v 13141508.900958 4413704.760685 -22.136111
v 13141518.900958 4413704.760685 -2.423822
v 13141528.900958 4413704.760685 -9.729540
v 13141538.900958 4413704.760685 2.184044
v 13141548.900958 4413704.760685 -10.690958
v 13141558.900958 4413704.760685 -13.255984
v 13141568.900958 4413704.760685 3.667485
v 13141578.900958 4413704.760685 -3.183647
v 13141588.900958 4413704.760685 9.288132
v 13141598.900958 4413704.760685 9.923657
v 13141608.900958 4413704.760685 -7.775436
v 13141618.900958 4413704.760685 -17.161755
v 13141628.900958 4413704.760685 -7.042868
v 13141638.900958 4413704.760685 -16.309148
v 13141648.900958 4413704.760685 -0.987001
v 13141658.900958 4413704.760685 3.797420
v 13141668.900958 4413704.760685 -11.154809
v 13141508.900958 4413694.760685 -14.379543
v 13141518.900958 4413694.760685 -4.240573
v 13141528.900958 4413694.760685 -4.930101
v 13141538.900958 4413694.760685 -3.152394
v 13141548.900958 4413694.760685 -8.963099
v 13141558.900958 4413694.760685 -4.877271
v 13141568.900958 4413694.760685 1.968218
v 13141578.900958 4413694.760685 1.719918
v 13141588.900958 4413694.760685 4.025472
v 13141598.900958 4413694.760685 -4.190365
v 13141608.900958 4413694.760685 -13.147513
v 13141618.900958 4413694.760685 -13.251377
v 13141628.900958 4413694.760685 -9.673684
v 13141638.900958 4413694.760685 -8.730646
v 13141648.900958 4413694.760685 -0.347178
v 13141658.900958 4413694.760685 -2.351716
v 13141668.900958 4413694.760685 -7.342806
v 13141508.900958 4413684.760685 -2.212557
v 13141518.900958 4413684.760685 -8.793483
v 13141528.900958 4413684.760685 3.798403
v 13141538.900958 4413684.760685 5.586529
v 13141548.900958 4413684.760685 -9.103495
v 13141558.900958 4413684.760685 -13.552186
v 13141568.900958 4413684.760685 0.593144
v 13141578.900958 4413684.760685 -9.650330
v 13141588.900958 4413684.760685 0.313818
v 13141598.900958 4413684.760685 0.328388
v 13141608.900958 4413684.760685 -15.847015
v 13141618.900958 4413684.760685 -6.155146
v 13141628.900958 4413684.760685 -15.808646
v 13141638.900958 4413684.760685 1.088754
v 13141648.900958 4413684.760685 -5.093204
v 13141658.900958 4413684.760685 -7.017026
v 13141668.900958 4413684.760685 4.093598
v 13141508.900958 4413674.760685 -1.779044
v 13141518.900958 4413674.760685 -1.569283
v 13141528.900958 4413674.760685 1.648942
v 13141538.900958 4413674.760685 -4.221003
v 13141548.900958 4413674.760685 -9.335929
v 13141558.900958 4413674.760685 -5.200117
v 13141568.900958 4413674.760685 0.041287
v 13141578.900958 4413674.760685 -2.477961
v 13141588.900958 4413674.760685 -0.687080
v 13141598.900958 4413674.760685 -7.565524
v 13141608.900958 4413674.760685 -13.488710
v 13141618.900958 4413674.760685 -10.440314
v 13141628.900958 4413674.760685 -10.793845
v 13141638.900958 4413674.760685 -2.597432
v 13141648.900958 4413674.760685 -1.391942
v 13141658.900958 4413674.760685 4.042854
v 13141668.900958 4413674.760685 7.097430
v 13141508.900958 4413664.760685 -4.174162
v 13141518.900958 4413664.760685 -13.462088
v 13141528.900958 4413664.760685 -1.492227
v 13141538.900958 4413664.760685 2.130991
v 13141548.900958 4413664.760685 -9.468025
v 13141558.900958 4413664.760685 3.724746
v 13141568.900958 4413664.760685 -6.080920
v 13141578.900958 4413664.760685 6.513083
v 13141588.900958 4413664.760685 -5.575381
v 13141598.900958 4413664.760685 -11.107399
v 13141608.900958 4413664.760685 -0.274037
v 13141618.900958 4413664.760685 -11.151132
v 13141628.900958 4413664.760685 3.187787
v 13141638.900958 4413664.760685 10.835087
v 13141648.900958 4413664.760685 1.485611
v 13141658.900958 4413664.760685 -2.242039
v 13141668.900958 4413664.760685 9.305295
v 13141508.900958 4413654.760685 -8.661056
v 13141518.900958 4413654.760685 -9.205042
v 13141528.900958 4413654.760685 -4.077663
v 13141538.900958 4413654.760685 -6.471313
v 13141548.900958 4413654.760685 -7.951559
v 13141558.900958 4413654.760685 -2.569804
v 13141568.900958 4413654.760685 -3.800655
v 13141578.900958 4413654.760685 1.498035
v 13141588.900958 4413654.760685 -0.187117
v 13141598.900958 4413654.760685 4.150135
v 13141608.900958 4413654.760685 7.482987
v 13141618.900958 4413654.760685 4.747941
v 13141628.900958 4413654.760685 9.010915
v 13141638.900958 4413654.760685 6.509498
v 13141648.900958 4413654.760685 3.853178
v 13141658.900958 4413654.760685 7.448069
v 13141668.900958 4413654.760685 10.529075
v 13141508.900958 4413644.760685 -19.917373
v 13141518.900958 4413644.760685 -3.901252
v 13141528.900958 4413644.760685 -11.574660
v 13141538.900958 4413644.760685 -12.685593
v 13141548.900958 4413644.760685 1.442382
v 13141558.900958 4413644.760685 -7.932514
v 13141568.900958 4413644.760685 6.896929
v 13141578.900958 4413644.760685 15.145220
v 13141588.900958 4413644.760685 6.892399
v 13141598.900958 4413644.760685 4.243208
v 13141608.900958 4413644.760685 15.683364
v 13141618.900958 4413644.760685 2.816779
v 13141628.900958 4413644.760685 13.366362
v 13141638.900958 4413644.760685 17.040648
v 13141648.900958 4413644.760685 5.132247
v 13141658.900958 4413644.760685 16.708379
v 13141668.900958 4413644.760685 5.740263
v 13141508.900958 4413634.760685 -21.394312
v 13141518.900958 4413634.760685 -11.750057
v 13141528.900958 4413634.760685 -9.329758
v 13141538.900958 4413634.760685 -1.806421
v 13141548.900958 4413634.760685 3.784768
v 13141558.900958 4413634.760685 3.572702
v 13141568.900958 4413634.760685 11.769887
v 13141578.900958 4413634.760685 13.873191
v 13141588.900958 4413634.760685 14.971316
v 13141598.900958 4413634.760685 19.859874
v 13141608.900958 4413634.760685 21.314920
v 13141618.900958 4413634.760685 14.785701
v 13141628.900958 4413634.760685 15.258453
v 13141638.900958 4413634.760685 10.051823
v 13141648.900958 4413634.760685 6.563675
v 13141658.900958 4413634.760685 10.746834
v 13141668.900958 4413634.760685 10.016385

# Normals
vn -0.935968 0.352084 0.000050
vn 0.000000 0.000000 0.000000
vn 0.000000 0.000000 0.000000
vn 0.000000 0.000000 0.000000
vn 0.000000 0.000000 0.000000
vn 0.000000 0.000000 0.000000
vn 0.000000 0.000000 0.000000
vn 0.000000 0.000000 0.000000
vn 0.000000 0.000000 0.000000
vn 0.000000 0.000000 0.000000
vn 0.000000 0.000000 0.000000
vn 0.000000 0.000000 0.000000
vn 0.000000 0.000000 0.000000
vn 0.000000 0.000000 0.000000
vn 0.000000 0.000000 0.000000
vn 0.000000 0.000000 0.000000
vn -0.809394 0.587267 0.000052
vn 0.000000 0.000000 0.000000
vn 0.000000 0.000000 0.000000
vn 0.000000 0.000000 0.000000
vn 0.000000 0.000000 0.000000
vn 0.000000 0.000000 0.000000
vn 0.000000 0.000000 0.000000
vn 0.000000 0.000000 0.000000
vn 0.000000 0.000000 0.000000
vn 0.000000 0.000000 0.000000
vn 0.000000 0.000000 0.000000
vn 0.000000 0.000000 0.000000
vn 0.000000 0.000000 0.000000
vn 0.000000 0.000000 0.000000
vn 0.000000 0.000000 0.000000
vn 0.000000 0.000000 0.000000
vn 0.000000 0.000000 0.000000
vn 0.000000 0.000000 0.000000
vn 0.000000 0.000000 0.000000
vn 0.000000 0.000000 0.000000
vn 0.000000 0.000000 0.000000
vn 0.000000 0.000000 0.000000
vn 0.000000 0.000000 0.000000
vn 0.000000 0.000000 0.000000
vn 0.000000 0.000000 0.000000
vn 0.000000 0.000000 0.000000
vn 0.000000 0.000000 0.000000
vn 0.000000 0.000000 0.000000
vn 0.000000 0.000000 0.000000
vn 0.000000 0.000000 0.000000
vn 0.000000 0.000000 0.000000
vn 0.000000 0.000000 0.000000
vn 0.000000 0.000000 0.000000
vn 0.000000 0.000000 0.000000
vn 0.000000 0.000000 0.000000
vn 0.000000 0.000000 0.000000
vn 0.000000 0.000000 0.000000
vn 0.000000 0.000000 0.000000
vn 0.000000 0.000000 0.000000
vn 0.000000 0.000000 0.000000
vn 0.000000 0.000000 0.000000
vn 0.000000 0.000000 0.000000
vn 0.000000 0.000000 0.000000
vn 0.000000 0.000000 0.000000
vn 0.000000 0.000000 0.000000
vn 0.000000 0.000000 0.000000
vn 0.000000 0.000000 0.000000
vn 0.000000 0.000000 0.000000
vn 0.000000 0.000000 0.000000
vn 0.000000 0.000000 0.000000
vn 0.000000 0.000000 0.000000
vn 0.000000 0.000000 0.000000
vn 0.000000 0.000000 0.000000
vn 0.000000 0.000000 0.000000
vn 0.000000 0.000000 0.000000
vn 0.000000 0.000000 0.000000
vn 0.000000 0.000000 0.000000
vn 0.000000 0.000000 0.000000
vn 0.000000 0.000000 0.000000
vn 0.000000 0.000000 0.000000
vn 0.000000 0.000000 0.000000
vn 0.000000 0.000000 0.000000
vn 0.000000 0.000000 0.000000
vn 0.000000 0.000000 0.000000
vn 0.000000 0.000000 0.000000
vn 0.000000 0.000000 0.000000
vn 0.000000 0.000000 0.000000
vn 0.000000 0.000000 0.000000
vn 0.000000 0.000000 0.000000
vn 0.000000 0.000000 0.000000
vn 0.000000 0.000000 0.000000
vn 0.000000 0.000000 0.000000
vn 0.000000 0.000000 0.000000
vn 0.000000 0.000000 0.000000
vn 0.000000 0.000000 0.000000
vn 0.000000 0.000000 0.000000
vn 0.000000 0.000000 0.000000
vn 0.000000 0.000000 0.000000
vn 0.000000 0.000000 0.000000
vn 0.000000 0.000000 0.000000
vn 0.000000 0.000000 0.000000
vn 0.000000 0.000000 0.000000
vn 0.000000 0.000000 0.000000
vn 0.000000 0.000000 0.000000
vn 0.000000 0.000000 0.000000
vn 0.000000 0.000000 0.000000
vn 0.000000 0.000000 0.000000
vn 0.000000 0.000000 0.000000
vn 0.000000 0.000000 0.000000
vn 0.000000 0.000000 0.000000
vn 0.000000 0.000000 0.000000
vn 0.000000 0.000000 0.000000
vn 0.000000 0.000000 0.000000
vn 0.000000 0.000000 0.000000
vn 0.000000 0.000000 0.000000
vn 0.000000 0.000000 0.000000
vn 0.000000 0.000000 0.000000
vn 0.000000 0.000000 0.000000
vn 0.000000 0.000000 0.000000
vn 0.000000 0.000000 0.000000
vn 0.000000 0.000000 0.000000
vn 0.000000 0.000000 0.000000
vn 0.000000 0.000000 0.000000
vn 0.000000 0.000000 0.000000
vn 0.000000 0.000000 0.000000
vn 0.000000 0.000000 0.000000
vn 0.000000 0.000000 0.000000
vn 0.000000 0.000000 0.000000
vn 0.000000 0.000000 0.000000
vn 0.000000 0.000000 0.000000
vn 0.000000 0.000000 0.000000
vn 0.000000 0.000000 0.000000
vn 0.000000 0.000000 0.000000
vn 0.000000 0.000000 0.000000
vn 0.000000 0.000000 0.000000
vn 0.000000 0.000000 0.000000
vn 0.000000 0.000000 0.000000
vn 0.000000 0.000000 0.000000
vn 0.000000 0.000000 0.000000
vn 0.000000 0.000000 0.000000
vn 0.000000 0.000000 0.000000
vn 0.000000 0.000000 0.000000
vn 0.000000 0.000000 0.000000
vn 0.000000 0.000000 0.000000
vn 0.000000 0.000000 0.000000
vn 0.000000 0.000000 0.000000
vn 0.000000 0.000000 0.000000
vn 0.000000 0.000000 0.000000
vn 0.000000 0.000000 0.000000
vn 0.000000 0.000000 0.000000
vn 0.000000 0.000000 0.000000
vn 0.000000 0.000000 0.000000
vn 0.000000 0.000000 0.000000
vn 0.000000 0.000000 0.000000
vn 0.000000 0.000000 0.000000
vn 0.000000 0.000000 0.000000
vn 0.000000 0.000000 0.000000
vn 0.000000 0.000000 0.000000
vn 0.000000 0.000000 0.000000
vn 0.000000 0.000000 0.000000
vn 0.000000 0.000000 0.000000
vn 0.000000 0.000000 0.000000
vn 0.000000 0.000000 0.000000
vn 0.000000 0.000000 0.000000
vn 0.000000 0.000000 0.000000
vn 0.000000 0.000000 0.000000
vn 0.000000 0.000000 0.000000
vn 0.000000 0.000000 0.000000
vn 0.000000 0.000000 0.000000
vn 0.000000 0.000000 0.000000
vn 0.000000 0.000000 0.000000
vn 0.000000 0.000000 0.000000
vn 0.000000 0.000000 0.000000
vn 0.000000 0.000000 0.000000
vn 0.000000 0.000000 0.000000
vn 0.000000 0.000000 0.000000
vn 0.000000 0.000000 0.000000
vn 0.000000 0.000000 0.000000
vn 0.000000 0.000000 0.000000
vn 0.000000 0.000000 0.000000
vn 0.000000 0.000000 0.000000
vn 0.000000 0.000000 0.000000
vn 0.000000 0.000000 0.000000
vn 0.000000 0.000000 0.000000
vn 0.000000 0.000000 0.000000
vn 0.000000 0.000000 0.000000
vn 0.000000 0.000000 0.000000
vn 0.000000 0.000000 0.000000
vn 0.000000 0.000000 0.000000
vn 0.000000 0.000000 0.000000
vn 0.000000 0.000000 0.000000
vn 0.000000 0.000000 0.000000
vn 0.000000 0.000000 0.000000
vn 0.000000 0.000000 0.000000
vn 0.000000 0.000000 0.000000
vn 0.000000 0.000000 0.000000
vn 0.000000 0.000000 0.000000
vn 0.000000 0.000000 0.000000
vn 0.000000 0.000000 0.000000
vn 0.000000 0.000000 0.000000
vn 0.000000 0.000000 0.000000
vn 0.000000 0.000000 0.000000
vn 0.000000 0.000000 0.000000
vn 0.000000 0.000000 0.000000
vn 0.000000 0.000000 0.000000
vn 0.000000 0.000000 0.000000
vn 0.000000 0.000000 0.000000
vn 0.000000 0.000000 0.000000
vn 0.000000 0.000000 0.000000
vn 0.000000 0.000000 0.000000
vn 0.000000 0.000000 0.000000
vn 0.000000 0.000000 0.000000
vn 0.000000 0.000000 0.000000
vn 0.000000 0.000000 0.000000
vn 0.000000 0.000000 0.000000
vn 0.000000 0.000000 0.000000
vn 0.000000 0.000000 0.000000
vn 0.000000 0.000000 0.000000
vn 0.000000 0.000000 0.000000
vn 0.000000 0.000000 0.000000
vn 0.000000 0.000000 0.000000
vn 0.000000 0.000000 0.000000
vn 0.000000 0.000000 0.000000
vn 0.000000 0.000000 0.000000
vn 0.000000 0.000000 0.000000
vn 0.000000 0.000000 0.000000
vn 0.000000 0.000000 0.000000
vn 0.000000 0.000000 0.000000
vn 0.000000 0.000000 0.000000
vn 0.000000 0.000000 0.000000
vn 0.000000 0.000000 0.000000
vn 0.000000 0.000000 0.000000
vn 0.000000 0.000000 0.000000
vn 0.000000 0.000000 0.000000
vn 0.000000 0.000000 0.000000
vn 0.000000 0.000000 0.000000
vn 0.000000 0.000000 0.000000
vn 0.000000 0.000000 0.000000
vn 0.000000 0.000000 0.000000
vn 0.000000 0.000000 0.000000
vn 0.000000 0.000000 0.000000
vn 0.000000 0.000000 0.000000
vn 0.000000 0.000000 0.000000
vn 0.000000 0.000000 0.000000
vn 0.000000 0.000000 0.000000
vn 0.000000 0.000000 0.000000
vn 0.000000 0.000000 0.000000
vn 0.000000 0.000000 0.000000
vn 0.000000 0.000000 0.000000
vn 0.000000 0.000000 0.000000
vn 0.000000 0.000000 0.000000
vn 0.000000 0.000000 0.000000
vn 0.000000 0.000000 0.000000
vn 0.000000 0.000000 0.000000
vn 0.000000 0.000000 0.000000
vn 0.000000 0.000000 0.000000
vn 0.000000 0.000000 0.000000
vn 0.000000 0.000000 0.000000
vn 0.000000 0.000000 0.000000
vn -0.991883 0.127156 0.000045
vn 0.000000 0.000000 0.000000
vn 0.000000 0.000000 0.000000
vn 0.000000 0.000000 0.000000
vn 0.000000 0.000000 0.000000
vn 0.000000 0.000000 0.000000
vn 0.000000 0.000000 0.000000
vn 0.000000 0.000000 0.000000
vn 0.000000 0.000000 0.000000
vn 0.000000 0.000000 0.000000
vn 0.000000 0.000000 0.000000
vn 0.000000 0.000000 0.000000
vn 0.000000 0.000000 0.000000
vn 0.000000 0.000000 0.000000
vn 0.000000 0.000000 0.000000
vn 0.000000 0.000000 0.000000
vn -0.935968 0.352084 0.000050

# Faces
f 1//1 272//272 17//17
f 272//272 1//1 256//256
