# Vertices
v 13141512.901458 4413474.838185 16.204451
v 13141576.933458 4413474.838185 14.488039
v 13141664.977458 4413474.838185 17.603343
v 13141574.932458 4413472.837185 14.540703
v 13141572.931458 4413470.836185 14.602111
v 13141568.929458 4413466.834185 14.849314
v 13141560.925458 4413458.830185 15.464184
v 13141536.913458 4413450.826185 16.283137
v 13141556.923458 4413446.824185 16.122518
v 13141580.935458 4413446.824185 16.547590
v 13141544.917458 4413442.822185 16.649442
v 13141608.949458 4413442.822185 19.029789
v 13141516.903458 4413438.820185 18.327168
v 13141548.919458 4413438.820185 17.005446
v 13141660.975458 4413438.820185 22.633466
v 13141664.977458 4413434.818185 24.205689
v 13141512.901458 4413432.817185 19.275469
v 13141514.902458 4413432.817185 19.131857
v 13141514.902458 4413428.815185 19.629545
v 13141528.909458 4413426.814185 19.494643
v 13141560.925458 4413426.814185 19.315772
v 13141624.957458 4413426.814185 23.473876
v 13141656.973458 4413426.814185 25.595679
v 13141516.903458 4413422.812185 20.325632
v 13141514.902458 4413412.807185 22.072974
v 13141576.933458 4413410.806185 22.448445
v 13141516.903458 4413406.804185 23.060900
v 13141540.915458 4413406.804185 22.266858
v 13141512.901458 4413404.803185 23.700018
v 13141514.902458 4413404.803185 23.574151
v 13141512.901458 4413402.802185 24.102184
v 13141520.905458 4413402.802185 23.906839
v 13141552.921458 4413402.802185 23.253151
v 13141664.977458 4413402.802185 30.955325
v 13141512.901458 4413400.801185 24.515760
v 13141514.902458 4413400.801185 24.394488
v 13141516.903458 4413398.800185 24.710957
v 13141570.930458 4413396.799185 25.527922
v 13141528.909458 4413394.798185 25.867881
v 13141554.922458 4413394.798185 25.280301
v 13141560.925458 4413394.798185 26.476456
v 13141592.941458 4413394.798185 27.781806
v 13141624.957458 4413394.798185 30.715219
v 13141656.973458 4413394.798185 32.824243
v 13141548.919458 4413390.796185 26.156474
v 13141558.924458 4413388.795185 27.054887
v 13141512.901458 4413384.793185 28.220309
v 13141534.912458 4413384.793185 27.612453
v 13141516.903458 4413382.792185 28.546446
v 13141544.917458 4413378.790185 30.094373
v 13141608.949458 4413378.790185 34.979672
v 13141514.902458 4413376.789185 30.230795
v 13141520.905458 4413370.786185 31.729254
v 13141512.901458 4413368.785185 32.556138
v 13141644.967458 4413366.784185 40.557405
v 13141528.909458 4413362.782185 34.060595
v 13141560.925458 4413362.782185 35.193875
v 13141644.967458 4413350.776185 45.347557
v 13141536.913458 4413338.770185 42.560608
v 13141584.937458 4413338.770185 45.879804
v 13141600.945458 4413338.770185 47.211844
v 13141664.977458 4413338.770185 48.144279
v 13141612.951458 4413334.768185 48.828490
v 13141644.967458 4413334.768185 49.816616
v 13141642.966458 4413332.767185 50.356401
v 13141624.957458 4413330.766185 51.363525
v 13141640.965458 4413330.766185 50.889133
v 13141656.973458 4413330.766185 50.801818
v 13141604.947458 4413326.764185 50.767847
v 13141520.905458 4413322.762185 46.999151
v 13141536.913458 4413322.762185 47.395623
v 13141600.945458 4413322.762185 51.710868
v 13141616.953458 4413322.762185 51.610501
v 13141632.961458 4413322.762185 52.944355
v 13141512.901458 4413320.761185 47.613056
v 13141622.956458 4413320.761185 53.313337
v 13141664.977458 4413320.761185 51.984222

# Normals
vn 0.046671 0.035468 0.998280
vn -0.032263 0.058722 0.997753
vn -0.104339 0.136827 0.985085
vn -0.006276 0.034762 0.999376
vn 0.000941 0.045239 0.998976
vn 0.010045 0.059123 0.998200
vn 0.010116 0.053022 0.998542
vn 0.036511 0.074053 0.996586
vn -0.004320 0.096669 0.995307
vn -0.033833 0.100419 0.994370
vn 0.035378 0.102322 0.994122
vn -0.061612 0.148246 0.987029
vn 0.062869 0.099011 0.993098
vn 0.004880 0.143895 0.989581
vn -0.099534 0.211340 0.972332
vn -0.120668 0.212841 0.969607
vn 0.114214 0.121721 0.985971
vn 0.049203 0.119902 0.991566
vn 0.071965 0.134177 0.988341
vn 0.023581 0.146899 0.988870
vn -0.017595 0.163206 0.986435
vn -0.074658 0.222343 0.972106
vn -0.054411 0.232943 0.970967
vn 0.049067 0.148124 0.987751
vn 0.083730 0.162505 0.983149
vn -0.059541 0.199487 0.978090
vn 0.028572 0.191109 0.981153
vn 0.015142 0.204767 0.978694
vn 0.091275 0.181011 0.979236
vn 0.043094 0.203138 0.978201
vn 0.059469 0.199732 0.978044
vn 0.012581 0.205578 0.978560
vn -0.042180 0.233483 0.971446
vn -0.020856 0.228606 0.973296
vn 0.061143 0.213466 0.975035
vn 0.041941 0.198723 0.979158
vn 0.024168 0.216561 0.975970
vn -0.029394 0.254088 0.966734
vn 0.013072 0.223608 0.974591
vn -0.109917 0.215082 0.970391
vn -0.074358 0.204251 0.976090
vn -0.087049 0.273681 0.957873
vn -0.069034 0.264828 0.961821
vn -0.029790 0.251020 0.967523
vn -0.008136 0.260180 0.965526
vn -0.041620 0.234746 0.971165
vn 0.056686 0.243372 0.968275
vn -0.004141 0.256623 0.966503
vn 0.023846 0.239380 0.970633
vn -0.032220 0.301614 0.952885
vn -0.067892 0.307767 0.949036
vn 0.044578 0.262605 0.963873
vn 0.019851 0.275880 0.960987
vn 0.030615 0.287245 0.957368
vn -0.024086 0.285945 0.957943
vn -0.018950 0.299247 0.953988
vn -0.060964 0.308780 0.949178
vn -0.013499 0.290283 0.956846
vn -0.048469 0.314001 0.948185
vn -0.075966 0.302967 0.949968
vn -0.054151 0.283138 0.957549
vn 0.028602 0.264110 0.964068
vn -0.054966 0.272055 0.960711
vn 0.010960 0.272394 0.962123
vn 0.011032 0.254420 0.967031
vn -0.048800 0.239524 0.969663
vn 0.022174 0.207054 0.978078
vn 0.030544 0.227184 0.973373
vn -0.017185 0.248612 0.968451
vn -0.015730 0.317153 0.948244
vn -0.048367 0.318897 0.946554
vn -0.041550 0.299894 0.953067
vn -0.066327 0.309311 0.948645
vn 0.025254 0.162510 0.986384
vn -0.022332 0.425598 0.904637
vn -0.046865 0.302907 0.951867
vn 0.048874 0.141415 0.988743

# Faces
f 52//52 54//54 53//53
f 52//52 47//47 54//54
f 35//35 47//47 37//37
f 25//25 29//29 27//27
f 33//33 45//45 40//40
f 41//41 40//40 46//46
f 68//68 67//67 77//77
f 68//68 65//65 67//67
f 31//31 35//35 36//36
f 1//1 4//4 2//2
f 36//36 35//35 37//37
f 52//52 49//49 47//47
f 25//25 17//17 29//29
f 18//18 13//13 17//17
f 19//19 18//18 17//17
f 42//42 38//38 57//57
f 42//42 26//26 38//38
f 50//50 57//57 46//46
f 41//41 46//46 38//38
f 72//72 76//76 73//73
f 13//13 18//18 20//20
f 25//25 19//19 17//17
f 12//12 2//2 10//10
f 3//3 2//2 12//12
f 19//19 20//20 18//18
f 31//31 30//30 29//29
f 1//1 17//17 13//13
f 49//49 52//52 53//53
f 36//36 30//30 31//31
f 49//49 37//37 47//47
f 53//53 48//48 49//49
f 50//50 48//48 56//56
f 65//65 66//66 67//67
f 68//68 64//64 65//65
f 66//66 65//65 58//58
f 58//58 64//64 62//62
f 61//61 69//69 63//63
f 66//66 63//63 73//73
f 44//44 34//34 23//23
f 44//44 43//43 55//55
f 58//58 55//55 51//51
f 66//66 58//58 63//63
f 68//68 62//62 64//64
f 53//53 54//54 56//56
f 37//37 49//49 39//39
f 30//30 36//36 32//32
f 37//37 32//32 36//36
f 7//7 10//10 6//6
f 7//7 9//9 10//10
f 39//39 28//28 32//32
f 33//33 28//28 45//45
f 11//11 20//20 14//14
f 20//20 21//21 14//14
f 39//39 45//45 28//28
f 50//50 45//45 48//48
f 21//21 33//33 26//26
f 20//20 28//28 21//21
f 25//25 24//24 19//19
f 56//56 54//54 70//70
f 9//9 11//11 14//14
f 12//12 10//10 26//26
f 16//16 15//15 23//23
f 16//16 3//3 15//15
f 16//16 23//23 34//34
f 23//23 43//43 44//44
f 61//61 72//72 69//69
f 72//72 73//73 69//69
f 60//60 72//72 61//61
f 60//60 71//71 72//72
f 27//27 30//30 32//32
f 39//39 49//49 48//48
f 30//30 27//27 29//29
f 27//27 20//20 25//25
f 4//4 10//10 2//2
f 1//1 5//5 4//4
f 24//24 25//25 20//20
f 24//24 20//20 19//19
f 77//77 74//74 76//76
f 64//64 58//58 65//65
f 51//51 61//61 63//63
f 51//51 60//60 61//61
f 71//71 60//60 59//59
f 72//72 71//71 76//76
f 57//57 59//59 60//60
f 57//57 56//56 59//59
f 75//75 76//76 71//71
f 74//74 66//66 76//76
f 41//41 38//38 33//33
f 51//51 42//42 57//57
f 66//66 74//74 67//67
f 20//20 8//8 13//13
f 20//20 11//11 8//8
f 5//5 10//10 4//4
f 1//1 6//6 5//5
f 57//57 60//60 51//51
f 56//56 70//70 59//59
f 50//50 56//56 57//57
f 53//53 56//56 48//48
f 1//1 13//13 8//8
f 32//32 20//20 27//27
f 73//73 76//76 66//66
f 69//69 73//73 63//63
f 22//22 23//23 15//15
f 43//43 23//23 22//22
f 58//58 62//62 55//55
f 74//74 77//77 67//67
f 68//68 77//77 62//62
f 22//22 15//15 12//12
f 3//3 12//12 15//15
f 50//50 46//46 45//45
f 51//51 43//43 42//42
f 7//7 8//8 9//9
f 20//20 32//32 28//28
f 43//43 22//22 42//42
f 6//6 10//10 5//5
f 43//43 51//51 55//55
f 44//44 62//62 34//34
f 71//71 59//59 70//70
f 32//32 37//37 39//39
f 39//39 48//48 45//45
f 75//75 70//70 54//54
f 70//70 75//75 71//71
f 44//44 55//55 62//62
f 21//21 26//26 10//10
f 1//1 7//7 6//6
f 41//41 33//33 40//40
f 45//45 46//46 40//40
f 21//21 9//9 14//14
f 46//46 57//57 38//38
f 11//11 9//9 8//8
f 7//7 1//1 8//8
f 26//26 33//33 38//38
f 26//26 42//42 22//22
f 33//33 21//21 28//28
f 51//51 63//63 58//58
f 12//12 26//26 22//22
f 9//9 21//21 10//10
