# Vertices
v 13141512.901458 4413778.837185 -21.796720
v 13141560.925458 4413778.837185 -16.288661
v 13141636.963458 4413778.837185 0.898978
v 13141664.977458 4413778.837185 5.932692
v 13141558.924458 4413776.836185 -16.325996
v 13141634.962458 4413776.836185 0.912961
v 13141532.911458 4413774.835185 -19.851030
v 13141540.915458 4413774.835185 -18.871605
v 13141556.923458 4413774.835185 -16.352954
v 13141536.913458 4413770.833185 -18.813606
v 13141552.921458 4413770.833185 -15.876085
v 13141568.929458 4413770.833185 -12.697256
v 13141632.961458 4413770.833185 2.432793
v 13141634.962458 4413770.833185 2.272127
v 13141528.909458 4413762.829185 -18.560651
v 13141560.925458 4413762.829185 -13.326048
v 13141592.941458 4413762.829185 -5.914295
v 13141624.957458 4413762.829185 1.928296
v 13141656.973458 4413762.829185 9.123797
v 13141516.903458 4413750.823185 -17.921431
v 13141544.917458 4413746.821185 -12.231623
v 13141512.901458 4413744.820185 -17.297804
v 13141514.902458 4413744.820185 -17.091612
v 13141512.901458 4413742.819185 -16.945544
v 13141516.903458 4413742.819185 -16.508785
v 13141520.905458 4413738.817185 -14.783135
v 13141560.925458 4413730.813185 -5.901774
v 13141624.957458 4413730.813185 9.730109
v 13141656.973458 4413730.813185 15.777597
v 13141514.902458 4413724.810185 -13.215825
v 13141632.961458 4413722.809185 13.638756
v 13141664.977458 4413722.809185 17.683249
v 13141576.933458 4413714.805185 2.044256
v 13141516.903458 4413710.803185 -9.936555
v 13141612.951458 4413710.803185 11.711166
v 13141520.905458 4413706.801185 -7.858213
v 13141542.916458 4413706.801185 -4.102731
v 13141584.937458 4413706.801185 6.614781
v 13141624.957458 4413698.797185 17.211999
v 13141656.973458 4413698.797185 20.644771
v 13141584.937458 4413690.793185 10.065815
v 13141600.945458 4413690.793185 13.653254
v 13141664.977458 4413690.793185 21.735286
v 13141608.949458 4413682.789185 16.128190
v 13141542.916458 4413668.782185 4.138654
v 13141566.928458 4413668.782185 9.455968
v 13141574.932458 4413668.782185 11.230988
v 13141576.933458 4413668.782185 11.669428
v 13141512.901458 4413666.781185 -1.448437
v 13141528.909458 4413666.781185 1.596963
v 13141560.925458 4413666.781185 9.452587
v 13141624.957458 4413666.781185 20.895968
v 13141656.973458 4413666.781185 22.653959
v 13141664.977458 4413658.777185 22.788534
v 13141592.941458 4413634.765185 18.537009
v 13141624.957458 4413634.765185 21.609869
v 13141660.975458 4413630.763185 21.821534
v 13141512.901458 4413626.761185 5.124128
v 13141600.945458 4413626.761185 19.790807
v 13141632.961458 4413626.761185 22.044377
v 13141664.977458 4413626.761185 21.346403

# Normals
vn -0.084615 0.038656 0.995664
vn -0.186584 0.153271 0.970409
vn -0.202966 0.232327 0.951225
vn -0.095544 0.240334 0.965977
vn -0.187934 0.172400 0.966933
vn -0.201945 0.240531 0.949401
vn -0.106457 0.071357 0.991754
vn -0.142525 0.096565 0.985069
vn -0.172215 0.197904 0.964975
vn -0.152390 0.176032 0.972517
vn -0.144653 0.212385 0.966420
vn -0.218959 0.192147 0.956628
vn -0.085792 0.149903 0.984971
vn -0.098607 0.150841 0.983628
vn -0.125855 0.169601 0.977444
vn -0.176468 0.192779 0.965244
vn -0.222172 0.215416 0.950913
vn -0.206813 0.192504 0.959255
vn -0.149958 0.223299 0.963146
vn -0.120881 0.162132 0.979337
vn -0.164290 0.205710 0.964724
vn -0.081426 0.157652 0.984132
vn -0.105266 0.173142 0.979255
vn -0.102426 0.207835 0.972786
vn -0.141914 0.206810 0.968034
vn -0.172029 0.208980 0.962670
vn -0.203093 0.224796 0.953006
vn -0.213242 0.234278 0.948494
vn -0.122601 0.197470 0.972612
vn -0.173317 0.196967 0.964969
vn -0.174506 0.212165 0.961527
vn -0.036117 0.171156 0.984582
vn -0.241269 0.242104 0.939774
vn -0.254470 0.194410 0.947338
vn -0.218721 0.238289 0.946245
vn -0.221190 0.200028 0.954497
vn -0.193599 0.216551 0.956883
vn -0.240594 0.234390 0.941900
vn -0.168518 0.160498 0.972544
vn -0.081545 0.120673 0.989337
vn -0.237951 0.181576 0.954154
vn -0.203514 0.170946 0.964033
vn -0.022260 0.073739 0.997029
vn -0.182955 0.113125 0.976591
vn -0.228654 0.195586 0.953658
vn -0.188487 0.292881 0.937387
vn -0.196012 0.217524 0.956171
vn -0.202397 0.123665 0.971464
vn -0.170192 0.192222 0.966481
vn -0.187050 0.183637 0.965034
vn -0.186916 0.248846 0.950336
vn -0.112106 0.073940 0.990942
vn -0.036710 0.021361 0.999098
vn 0.014901 -0.013378 0.999799
vn -0.156828 0.078472 0.984504
vn -0.054113 0.019857 0.998337
vn 0.008391 -0.027866 0.999576
vn -0.196281 0.124939 0.972556
vn -0.110115 0.011489 0.993852
vn -0.016156 -0.019428 0.999681
vn 0.047582 -0.070710 0.996361

# Faces
f 37//37 50//50 45//45
f 51//51 45//45 58//58
f 30//30 49//49 34//34
f 2//2 6//6 3//3
f 51//51 37//37 45//45
f 33//33 37//37 41//41
f 55//55 44//44 48//48
f 47//47 48//48 41//41
f 30//30 24//24 49//49
f 5//5 2//2 8//8
f 6//6 14//14 3//3
f 6//6 13//13 14//14
f 22//22 24//24 23//23
f 55//55 47//47 51//51
f 47//47 55//55 48//48
f 19//19 3//3 14//14
f 6//6 2//2 17//17
f 46//46 51//51 47//47
f 46//46 47//47 41//41
f 23//23 20//20 22//22
f 25//25 23//23 24//24
f 13//13 6//6 18//18
f 4//4 3//3 19//19
f 1//1 22//22 20//20
f 34//34 49//49 36//36
f 8//8 7//7 10//10
f 7//7 15//15 10//10
f 15//15 1//1 20//20
f 25//25 24//24 26//26
f 8//8 1//1 7//7
f 1//1 15//15 7//7
f 1//1 8//8 2//2
f 11//11 8//8 10//10
f 15//15 20//20 26//26
f 30//30 26//26 24//24
f 5//5 12//12 2//2
f 9//9 5//5 8//8
f 20//20 23//23 25//25
f 50//50 36//36 49//49
f 60//60 61//61 57//57
f 61//61 54//54 57//57
f 39//39 35//35 42//42
f 28//28 35//35 31//31
f 38//38 41//41 42//42
f 44//44 42//42 48//48
f 28//28 33//33 35//35
f 33//33 41//41 38//38
f 46//46 41//41 37//37
f 51//51 46//46 37//37
f 17//17 12//12 16//16
f 12//12 17//17 2//2
f 16//16 11//11 21//21
f 11//11 16//16 9//9
f 25//25 26//26 20//20
f 26//26 21//21 15//15
f 56//56 57//57 53//53
f 17//17 18//18 6//6
f 19//19 14//14 18//18
f 29//29 32//32 19//19
f 43//43 53//53 54//54
f 40//40 29//29 31//31
f 29//29 28//28 31//31
f 34//34 36//36 30//30
f 27//27 21//21 37//37
f 55//55 59//59 56//56
f 12//12 9//9 16//16
f 9//9 12//12 5//5
f 30//30 37//37 26//26
f 33//33 27//27 37//37
f 29//29 40//40 32//32
f 26//26 37//37 21//21
f 58//58 50//50 49//49
f 19//19 28//28 29//29
f 39//39 31//31 35//35
f 15//15 21//21 10//10
f 50//50 58//58 45//45
f 54//54 53//53 57//57
f 40//40 53//53 43//43
f 43//43 32//32 40//40
f 4//4 19//19 32//32
f 39//39 40//40 31//31
f 44//44 39//39 42//42
f 52//52 55//55 56//56
f 56//56 59//59 60//60
f 60//60 57//57 56//56
f 28//28 19//19 18//18
f 13//13 18//18 14//14
f 28//28 17//17 33//33
f 36//36 37//37 30//30
f 58//58 55//55 51//51
f 44//44 52//52 39//39
f 40//40 39//39 52//52
f 40//40 52//52 53//53
f 33//33 17//17 27//27
f 28//28 18//18 17//17
f 11//11 9//9 8//8
f 38//38 42//42 35//35
f 55//55 58//58 59//59
f 41//41 48//48 42//42
f 52//52 56//56 53//53
f 16//16 21//21 27//27
f 11//11 10//10 21//21
f 38//38 35//35 33//33
f 16//16 27//27 17//17
f 36//36 50//50 37//37
f 44//44 55//55 52//52
