# Vertices
v 13141512.901458 4413626.837185 5.124128
v 13141604.947458 4413626.837185 19.843682
v 13141634.962458 4413626.837185 21.843244
v 13141664.977458 4413626.837185 21.346403
v 13141590.940458 4413624.836185 18.232177
v 13141602.946458 4413624.836185 19.651332
v 13141626.958458 4413624.836185 21.487788
v 13141630.960458 4413624.836185 21.646573
v 13141588.939458 4413622.835185 18.032479
v 13141596.943458 4413622.835185 19.013569
v 13141628.959458 4413622.835185 21.501048
v 13141636.963458 4413622.835185 21.706754
v 13141552.921458 4413618.833185 13.173720
v 13141584.937458 4413618.833185 17.828502
v 13141600.945458 4413618.833185 19.590479
v 13141632.961458 4413618.833185 21.377434
v 13141560.925458 4413610.829185 15.161118
v 13141592.941458 4413610.829185 18.888600
v 13141544.917458 4413594.821185 14.337770
v 13141608.949458 4413594.821185 19.192334
v 13141528.909458 4413578.813185 13.056130
v 13141520.905458 4413570.809185 12.582193
v 13141516.903458 4413566.807185 12.281906
v 13141576.933458 4413562.805185 16.546901
v 13141514.902458 4413560.804185 12.561251
v 13141516.903458 4413558.803185 12.861403
v 13141512.901458 4413556.802185 12.698343
v 13141520.905458 4413554.801185 13.551127
v 13141528.909458 4413546.797185 14.380443
v 13141656.973458 4413546.797185 15.378846
v 13141664.977458 4413538.793185 15.032879
v 13141544.917458 4413530.789185 14.912097
v 13141608.949458 4413530.789185 15.268170
v 13141624.957458 4413514.781185 14.892364
v 13141656.973458 4413514.781185 15.072895
v 13141664.977458 4413506.777185 15.245487
v 13141560.925458 4413482.765185 14.407545
v 13141512.901458 4413474.761185 16.204451
v 13141568.929458 4413474.761185 14.342701
v 13141664.977458 4413474.761185 17.603343

# Normals
vn -0.167691 0.144091 0.975253
vn -0.107951 0.089469 0.990122
vn -0.028788 -0.000830 0.999585
vn 0.009189 -0.071032 0.997432
vn -0.134641 0.100575 0.985777
vn -0.119362 0.029587 0.992410
vn -0.056028 -0.002379 0.998426
vn -0.030768 -0.040929 0.998688
vn -0.123177 0.045113 0.991359
vn -0.118115 0.028940 0.992578
vn -0.042703 -0.047342 0.997966
vn -0.002150 -0.059317 0.998237
vn -0.151087 0.103581 0.983079
vn -0.123426 0.062754 0.990368
vn -0.086953 -0.004451 0.996202
vn -0.006020 -0.073058 0.997310
vn -0.116592 0.042668 0.992263
vn -0.094816 0.005539 0.995479
vn -0.127836 0.061708 0.989874
vn -0.029384 -0.053099 0.998157
vn -0.110012 0.057703 0.992254
vn -0.143738 0.080687 0.986321
vn -0.127598 0.085101 0.988168
vn -0.053610 -0.014097 0.998462
vn -0.075729 0.071716 0.994546
vn -0.098898 0.072629 0.992443
vn -0.097128 0.062571 0.993303
vn -0.096579 0.048930 0.994122
vn -0.059099 0.023186 0.997983
vn 0.005162 -0.047505 0.998858
vn -0.003227 -0.024825 0.999687
vn -0.004520 -0.007629 0.999961
vn -0.001577 -0.033135 0.999450
vn -0.007400 0.009493 0.999928
vn 0.011878 0.024597 0.999627
vn 0.018497 0.040039 0.999027
vn 0.014958 0.000400 0.999888
vn -0.003562 0.024098 0.999703
vn -0.000390 0.006613 0.999978
vn 0.004115 0.056405 0.998399

# Faces
f 8//8 3//3 7//7
f 25//25 27//27 26//26
f 1//1 5//5 2//2
f 4//4 3//3 12//12
f 9//9 5//5 13//13
f 5//5 6//6 2//2
f 6//6 5//5 10//10
f 8//8 12//12 3//3
f 2//2 7//7 3//3
f 25//25 23//23 27//27
f 1//1 27//27 23//23
f 9//9 10//10 5//5
f 12//12 8//8 16//16
f 1//1 13//13 5//5
f 10//10 9//9 18//18
f 13//13 14//14 9//9
f 10//10 15//15 6//6
f 7//7 2//2 15//15
f 11//11 16//16 8//8
f 31//31 35//35 36//36
f 22//22 1//1 23//23
f 26//26 23//23 25//25
f 26//26 27//27 28//28
f 28//28 27//27 29//29
f 16//16 11//11 20//20
f 16//16 4//4 12//12
f 14//14 18//18 9//9
f 15//15 20//20 11//11
f 18//18 14//14 17//17
f 15//15 10//10 18//18
f 17//17 13//13 19//19
f 13//13 17//17 14//14
f 37//37 39//39 33//33
f 21//21 1//1 22//22
f 28//28 22//22 26//26
f 4//4 30//30 31//31
f 18//18 20//20 15//15
f 4//4 16//16 30//30
f 26//26 22//22 23//23
f 38//38 29//29 27//27
f 34//34 40//40 35//35
f 30//30 35//35 31//31
f 19//19 1//1 21//21
f 29//29 21//21 28//28
f 20//20 18//18 24//24
f 7//7 11//11 8//8
f 30//30 34//34 35//35
f 30//30 33//33 34//34
f 34//34 33//33 39//39
f 35//35 40//40 36//36
f 28//28 21//21 22//22
f 38//38 32//32 29//29
f 1//1 19//19 13//13
f 17//17 24//24 18//18
f 38//38 37//37 32//32
f 37//37 38//38 39//39
f 19//19 24//24 17//17
f 20//20 30//30 16//16
f 19//19 21//21 24//24
f 24//24 32//32 33//33
f 33//33 32//32 37//37
f 40//40 34//34 39//39
f 11//11 7//7 15//15
f 6//6 15//15 2//2
f 24//24 33//33 20//20
f 29//29 24//24 21//21
f 32//32 24//24 29//29
f 33//33 30//30 20//20
