# Vertices
v 13141508.900958 4413934.760685 7.712128
v 13141518.900958 4413934.760685 8.689938
v 13141528.900958 4413934.760685 9.305944
v 13141538.900958 4413934.760685 14.939960
v 13141548.900958 4413934.760685 18.533872
v 13141558.900958 4413934.760685 14.027089
v 13141568.900958 4413934.760685 14.032294
v 13141578.900958 4413934.760685 5.798461
v 13141588.900958 4413934.760685 -0.782155
v 13141598.900958 4413934.760685 1.863141
v 13141608.900958 4413934.760685 0.504609
v 13141618.900958 4413934.760685 6.726898
v 13141628.900958 4413934.760685 5.622125
v 13141638.900958 4413934.760685 9.590145
v 13141648.900958 4413934.760685 11.669037
v 13141658.900958 4413934.760685 8.059451
v 13141668.900958 4413934.760685 13.042152
v 13141508.900958 4413924.760685 6.082865
v 13141518.900958 4413924.760685 16.588742
v 13141528.900958 4413924.760685 9.392531
v 13141538.900958 4413924.760685 22.698519
v 13141548.900958 4413924.760685 10.199128
v 13141558.900958 4413924.760685 18.576288
v 13141568.900958 4413924.760685 1.692512
v 13141578.900958 4413924.760685 -7.989402
v 13141588.900958 4413924.760685 0.677821
v 13141598.900958 4413924.760685 -10.165911
v 13141608.900958 4413924.760685 5.411416
v 13141618.900958 4413924.760685 14.324889
v 13141628.900958 4413924.760685 5.576555
v 13141638.900958 4413924.760685 1.450858
v 13141648.900958 4413924.760685 11.627871
v 13141658.900958 4413924.760685 0.208719
v 13141668.900958 4413924.760685 15.249533
v 13141508.900958 4413914.760685 8.083791
v 13141518.900958 4413914.760685 11.231721
v 13141528.900958 4413914.760685 12.103386
v 13141538.900958 4413914.760685 15.776205
v 13141548.900958 4413914.760685 9.749592
v 13141558.900958 4413914.760685 7.720713
v 13141568.900958 4413914.760685 -1.670914
v 13141578.900958 4413914.760685 -2.995622
v 13141588.900958 4413914.760685 -1.423047
v 13141598.900958 4413914.760685 -1.836116
v 13141608.900958 4413914.760685 7.000900
v 13141618.900958 4413914.760685 8.866134
v 13141628.900958 4413914.760685 8.454598
v 13141638.900958 4413914.760685 11.280671
v 13141648.900958 4413914.760685 12.027693
v 13141658.900958 4413914.760685 8.772874
v 13141668.900958 4413914.760685 15.622319
v 13141508.900958 4413904.760685 5.909630
v 13141518.900958 4413904.760685 8.272825
v 13141528.900958 4413904.760685 22.741377
v 13141538.900958 4413904.760685 9.548206
v 13141548.900958 4413904.760685 16.558232
v 13141558.900958 4413904.760685 14.421615
v 13141568.900958 4413904.760685 -3.125920
v 13141578.900958 4413904.760685 -10.919983
v 13141588.900958 4413904.760685 1.106053
v 13141598.900958 4413904.760685 -6.050293
v 13141608.900958 4413904.760685 12.228202
v 13141618.900958 4413904.760685 21.911916
v 13141628.900958 4413904.760685 11.822073
v 13141638.900958 4413904.760685 20.870708
v 13141648.900958 4413904.760685 5.112929
v 13141658.900958 4413904.760685 15.670380
v 13141668.900958 4413904.760685 6.510524
v 13141508.900958 4413894.760685 11.236027
v 13141518.900958 4413894.760685 20.219254
v 13141528.900958 4413894.760685 24.252973
v 13141538.900958 4413894.760685 17.669496
v 13141548.900958 4413894.760685 15.102970
v 13141558.900958 4413894.760685 5.290688
v 13141568.900958 4413894.760685 -2.236666
v 13141578.900958 4413894.760685 -0.039389
v 13141588.900958 4413894.760685 5.345288
v 13141598.900958 4413894.760685 7.534712
v 13141608.900958 4413894.760685 17.253407
v 13141618.900958 4413894.760685 17.618213
v 13141628.900958 4413894.760685 14.151647
v 13141638.900958 4413894.760685 13.070451
v 13141648.900958 4413894.760685 4.327206
v 13141658.900958 4413894.760685 5.244166
v 13141668.900958 4413894.760685 3.078324
v 13141508.900958 4413884.760685 12.918868
v 13141518.900958 4413884.760685 11.988791
v 13141528.900958 4413884.760685 22.712647
v 13141538.900958 4413884.760685 6.570533
v 13141548.900958 4413884.760685 12.710062
v 13141558.900958 4413884.760685 12.463383
v 13141568.900958 4413884.760685 -1.498630
v 13141578.900958 4413884.760685 10.306273
v 13141588.900958 4413884.760685 1.660332
v 13141598.900958 4413884.760685 18.643805
v 13141608.900958 4413884.760685 12.220620
v 13141618.900958 4413884.760685 10.381038
v 13141628.900958 4413884.760685 20.226263
v 13141638.900958 4413884.760685 3.266662
v 13141648.900958 4413884.760685 9.158974
v 13141658.900958 4413884.760685 10.598048
v 13141668.900958 4413884.760685 -1.155338
v 13141508.900958 4413874.760685 10.495359
v 13141518.900958 4413874.760685 15.737005
v 13141528.900958 4413874.760685 17.084043
v 13141538.900958 4413874.760685 9.596598
v 13141548.900958 4413874.760685 8.786868
v 13141558.900958 4413874.760685 2.579088
v 13141568.900958 4413874.760685 -1.303942
v 13141578.900958 4413874.760685 2.888904
v 13141588.900958 4413874.760685 2.505912
v 13141598.900958 4413874.760685 9.970300
v 13141608.900958 4413874.760685 10.270423
v 13141618.900958 4413874.760685 14.745536
v 13141628.900958 4413874.760685 15.269537
v 13141638.900958 4413874.760685 7.201119
v 13141648.900958 4413874.760685 5.768148
v 13141658.900958 4413874.760685 -0.098393
v 13141668.900958 4413874.760685 -3.752392
v 13141508.900958 4413864.760685 4.148233
v 13141518.900958 4413864.760685 16.088695
v 13141528.900958 4413864.760685 2.573351
v 13141538.900958 4413864.760685 11.499010
v 13141548.900958 4413864.760685 -2.172582
v 13141558.900958 4413864.760685 -7.051755
v 13141568.900958 4413864.760685 4.724526
v 13141578.900958 4413864.760685 -6.090312
v 13141588.900958 4413864.760685 7.621836
v 13141598.900958 4413864.760685 14.513846
v 13141608.900958 4413864.760685 4.576499
v 13141618.900958 4413864.760685 -0.033201
v 13141628.900958 4413864.760685 9.215425
v 13141638.900958 4413864.760685 -5.762759
v 13141648.900958 4413864.760685 3.410915
v 13141658.900958 4413864.760685 6.747324
v 13141668.900958 4413864.760685 -5.370231
v 13141508.900958 4413854.760685 -1.062414
v 13141518.900958 4413854.760685 1.523932
v 13141528.900958 4413854.760685 -3.217189
v 13141538.900958 4413854.760685 -1.090250
v 13141548.900958 4413854.760685 -4.590951
v 13141558.900958 4413854.760685 -0.759740
v 13141568.900958 4413854.760685 2.699222
v 13141578.900958 4413854.760685 0.507404
v 13141588.900958 4413854.760685 5.376377
v 13141598.900958 4413854.760685 3.172272
v 13141608.900958 4413854.760685 0.302971
v 13141618.900958 4413854.760685 2.883473
v 13141628.900958 4413854.760685 4.239065
v 13141638.900958 4413854.760685 -0.664156
v 13141648.900958 4413854.760685 1.872133
v 13141658.900958 4413854.760685 -2.208870
v 13141668.900958 4413854.760685 -5.847152
v 13141508.900958 4413844.760685 4.767455
v 13141518.900958 4413844.760685 -8.784207
v 13141528.900958 4413844.760685 1.155099
v 13141538.900958 4413844.760685 4.721306
v 13141548.900958 4413844.760685 -6.857380
v 13141558.900958 4413844.760685 -10.699777
v 13141568.900958 4413844.760685 2.389799
v 13141578.900958 4413844.760685 -6.850123
v 13141588.900958 4413844.760685 7.120701
v 13141598.900958 4413844.760685 12.273053
v 13141608.900958 4413844.760685 -0.414422
v 13141618.900958 4413844.760685 9.059042
v 13141628.900958 4413844.760685 -4.705619
v 13141638.900958 4413844.760685 5.878811
v 13141648.900958 4413844.760685 -6.063296
v 13141658.900958 4413844.760685 -10.593162
v 13141668.900958 4413844.760685 -0.187051
v 13141508.900958 4413834.760685 5.234317
v 13141518.900958 4413834.760685 -1.474974
v 13141528.900958 4413834.760685 -1.076105
v 13141538.900958 4413834.760685 -5.836342
v 13141548.900958 4413834.760685 -8.668753
v 13141558.900958 4413834.760685 -3.264702
v 13141568.900958 4413834.760685 3.521380
v 13141578.900958 4413834.760685 4.643605
v 13141588.900958 4413834.760685 11.004313
v 13141598.900958 4413834.760685 7.359841
v 13141608.900958 4413834.760685 1.519775
v 13141618.900958 4413834.760685 1.049774
v 13141628.900958 4413834.760685 -5.284159
v 13141638.900958 4413834.760685 -3.357063
v 13141648.900958 4413834.760685 -6.627832
v 13141658.900958 4413834.760685 -3.744261
v 13141668.900958 4413834.760685 -3.624524
v 13141508.900958 4413824.760685 3.927844
v 13141518.900958 4413824.760685 -12.866798
v 13141528.900958 4413824.760685 -4.677819
v 13141538.900958 4413824.760685 -1.164828
v 13141548.900958 4413824.760685 -11.315601
v 13141558.900958 4413824.760685 4.173566
v 13141568.900958 4413824.760685 -1.967247
v 13141578.900958 4413824.760685 15.223233
v 13141588.900958 4413824.760685 6.473724
v 13141598.900958 4413824.760685 1.076210
v 13141608.900958 4413824.760685 8.381206
v 13141618.900958 4413824.760685 -8.552730
v 13141628.900958 4413824.760685 -0.581035
v 13141638.900958 4413824.760685 2.652741
v 13141648.900958 4413824.760685 -8.500278
v 13141658.900958 4413824.760685 -14.069390
v 13141668.900958 4413824.760685 -6.807510
v 13141508.900958 4413814.760685 -1.859281
v 13141518.900958 4413814.760685 -11.049458
v 13141528.900958 4413814.760685 -10.922189
v 13141538.900958 4413814.760685 -14.264280
v 13141548.900958 4413814.760685 -14.034231
v 13141558.900958 4413814.760685 -4.819736
v 13141568.900958 4413814.760685 -1.449541
v 13141578.900958 4413814.760685 7.131484
v 13141588.900958 4413814.760685 5.633636
v 13141598.900958 4413814.760685 6.458682
v 13141608.900958 4413814.760685 3.705502
v 13141618.900958 4413814.760685 -5.471233
v 13141628.900958 4413814.760685 -5.628836
v 13141638.900958 4413814.760685 -9.113498
v 13141648.900958 4413814.760685 -10.527018
v 13141658.900958 4413814.760685 -7.649598
v 13141668.900958 4413814.760685 -8.786041
v 13141508.900958 4413804.760685 -17.742650
v 13141518.900958 4413804.760685 -11.636151
v 13141528.900958 4413804.760685 -25.071323
v 13141538.900958 4413804.760685 -26.884606
v 13141548.900958 4413804.760685 -9.697523
v 13141558.900958 4413804.760685 -14.227911
v 13141568.900958 4413804.760685 3.893248
v 13141578.900958 4413804.760685 12.101767
v 13141588.900958 4413804.760685 0.324428
v 13141598.900958 4413804.760685 -8.397709
v 13141608.900958 4413804.760685 -3.405972
v 13141618.900958 4413804.760685 -20.704134
v 13141628.900958 4413804.760685 -10.974082
v 13141638.900958 4413804.760685 -4.533265
v 13141648.900958 4413804.760685 -12.682912
v 13141658.900958 4413804.760685 -0.512650
v 13141668.900958 4413804.760685 -15.355883
v 13141508.900958 4413794.760685 -26.227507
v 13141518.900958 4413794.760685 -27.095431
v 13141528.900958 4413794.760685 -30.033685
v 13141538.900958 4413794.760685 -21.889449
v 13141548.900958 4413794.760685 -11.999857
v 13141558.900958 4413794.760685 -8.209405
v 13141568.900958 4413794.760685 0.048114
v 13141578.900958 4413794.760685 -1.538759
v 13141588.900958 4413794.760685 -6.388658
v 13141598.900958 4413794.760685 -7.855208
v 13141608.900958 4413794.760685 -10.889359
v 13141618.900958 4413794.760685 -18.390740
v 13141628.900958 4413794.760685 -15.075156
v 13141638.900958 4413794.760685 -14.822209
v 13141648.900958 4413794.760685 -12.996875
v 13141658.900958 4413794.760685 -7.767091
v 13141668.900958 4413794.760685 -12.537963
v 13141508.900958 4413784.760685 -24.416436
v 13141518.900958 4413784.760685 -22.307405
v 13141528.900958 4413784.760685 -31.847193
v 13141538.900958 4413784.760685 -30.509432
v 13141548.900958 4413784.760685 -12.202054
v 13141558.900958 4413784.760685 -18.329482
v 13141568.900958 4413784.760685 -3.463240
v 13141578.900958 4413784.760685 1.469528
v 13141588.900958 4413784.760685 -12.596913
v 13141598.900958 4413784.760685 -5.744542
v 13141608.900958 4413784.760685 -22.331983
v 13141618.900958 4413784.760685 -12.913385
v 13141628.900958 4413784.760685 -22.703305
v 13141638.900958 4413784.760685 -21.771595
v 13141648.900958 4413784.760685 -4.486380
v 13141658.900958 4413784.760685 -13.565639
v 13141668.900958 4413784.760685 -2.123257

# Normals
vn -0.401472 -0.915871 0.000042
vn 0.000000 0.000000 0.000000
vn 0.000000 0.000000 0.000000
vn 0.000000 0.000000 0.000000
vn 0.000000 0.000000 0.000000
vn 0.000000 0.000000 0.000000
vn 0.000000 0.000000 0.000000
vn 0.000000 0.000000 0.000000
vn 0.000000 0.000000 0.000000
vn 0.000000 0.000000 0.000000
vn 0.000000 0.000000 0.000000
vn 0.000000 0.000000 0.000000
vn 0.000000 0.000000 0.000000
vn 0.000000 0.000000 0.000000
vn 0.000000 0.000000 0.000000
vn 0.000000 0.000000 0.000000
vn -0.255048 -0.966928 0.000069
vn 0.000000 0.000000 0.000000
vn 0.000000 0.000000 0.000000
vn 0.000000 0.000000 0.000000
vn 0.000000 0.000000 0.000000
vn 0.000000 0.000000 0.000000
vn 0.000000 0.000000 0.000000
vn 0.000000 0.000000 0.000000
vn 0.000000 0.000000 0.000000
vn 0.000000 0.000000 0.000000
vn 0.000000 0.000000 0.000000
vn 0.000000 0.000000 0.000000
vn 0.000000 0.000000 0.000000
vn 0.000000 0.000000 0.000000
vn 0.000000 0.000000 0.000000
vn 0.000000 0.000000 0.000000
vn 0.000000 0.000000 0.000000
vn 0.000000 0.000000 0.000000
vn 0.000000 0.000000 0.000000
vn 0.000000 0.000000 0.000000
vn 0.000000 0.000000 0.000000
vn 0.000000 0.000000 0.000000
vn 0.000000 0.000000 0.000000
vn 0.000000 0.000000 0.000000
vn 0.000000 0.000000 0.000000
vn 0.000000 0.000000 0.000000
vn 0.000000 0.000000 0.000000
vn 0.000000 0.000000 0.000000
vn 0.000000 0.000000 0.000000
vn 0.000000 0.000000 0.000000
vn 0.000000 0.000000 0.000000
vn 0.000000 0.000000 0.000000
vn 0.000000 0.000000 0.000000
vn 0.000000 0.000000 0.000000
vn 0.000000 0.000000 0.000000
vn 0.000000 0.000000 0.000000
vn 0.000000 0.000000 0.000000
vn 0.000000 0.000000 0.000000
vn 0.000000 0.000000 0.000000
vn 0.000000 0.000000 0.000000
vn 0.000000 0.000000 0.000000
vn 0.000000 0.000000 0.000000
vn 0.000000 0.000000 0.000000
vn 0.000000 0.000000 0.000000
vn 0.000000 0.000000 0.000000
vn 0.000000 0.000000 0.000000
vn 0.000000 0.000000 0.000000
vn 0.000000 0.000000 0.000000
vn 0.000000 0.000000 0.000000
vn 0.000000 0.000000 0.000000
vn 0.000000 0.000000 0.000000
vn 0.000000 0.000000 0.000000
vn 0.000000 0.000000 0.000000
vn 0.000000 0.000000 0.000000
vn 0.000000 0.000000 0.000000
vn 0.000000 0.000000 0.000000
vn 0.000000 0.000000 0.000000
vn 0.000000 0.000000 0.000000
vn 0.000000 0.000000 0.000000
vn 0.000000 0.000000 0.000000
vn 0.000000 0.000000 0.000000
vn 0.000000 0.000000 0.000000
vn 0.000000 0.000000 0.000000
vn 0.000000 0.000000 0.000000
vn 0.000000 0.000000 0.000000
vn 0.000000 0.000000 0.000000
vn 0.000000 0.000000 0.000000
vn 0.000000 0.000000 0.000000
vn 0.000000 0.000000 0.000000
vn 0.000000 0.000000 0.000000
vn 0.000000 0.000000 0.000000
vn 0.000000 0.000000 0.000000
vn 0.000000 0.000000 0.000000
vn 0.000000 0.000000 0.000000
vn 0.000000 0.000000 0.000000
vn 0.000000 0.000000 0.000000
vn 0.000000 0.000000 0.000000
vn 0.000000 0.000000 0.000000
vn 0.000000 0.000000 0.000000
vn 0.000000 0.000000 0.000000
vn 0.000000 0.000000 0.000000
vn 0.000000 0.000000 0.000000
vn 0.000000 0.000000 0.000000
vn 0.000000 0.000000 0.000000
vn 0.000000 0.000000 0.000000
vn 0.000000 0.000000 0.000000
vn 0.000000 0.000000 0.000000
vn 0.000000 0.000000 0.000000
vn 0.000000 0.000000 0.000000
vn 0.000000 0.000000 0.000000
vn 0.000000 0.000000 0.000000
vn 0.000000 0.000000 0.000000
vn 0.000000 0.000000 0.000000
vn 0.000000 0.000000 0.000000
vn 0.000000 0.000000 0.000000
vn 0.000000 0.000000 0.000000
vn 0.000000 0.000000 0.000000
vn 0.000000 0.000000 0.000000
vn 0.000000 0.000000 0.000000
vn 0.000000 0.000000 0.000000
vn 0.000000 0.000000 0.000000
vn 0.000000 0.000000 0.000000
vn 0.000000 0.000000 0.000000
vn 0.000000 0.000000 0.000000
vn 0.000000 0.000000 0.000000
vn 0.000000 0.000000 0.000000
vn 0.000000 0.000000 0.000000
vn 0.000000 0.000000 0.000000
vn 0.000000 0.000000 0.000000
vn 0.000000 0.000000 0.000000
vn 0.000000 0.000000 0.000000
vn 0.000000 0.000000 0.000000
vn 0.000000 0.000000 0.000000
vn 0.000000 0.000000 0.000000
vn 0.000000 0.000000 0.000000
vn 0.000000 0.000000 0.000000
vn 0.000000 0.000000 0.000000
vn 0.000000 0.000000 0.000000
vn 0.000000 0.000000 0.000000
vn 0.000000 0.000000 0.000000
vn 0.000000 0.000000 0.000000
vn 0.000000 0.000000 0.000000
vn 0.000000 0.000000 0.000000
vn 0.000000 0.000000 0.000000
vn 0.000000 0.000000 0.000000
vn 0.000000 0.000000 0.000000
vn 0.000000 0.000000 0.000000
vn 0.000000 0.000000 0.000000
vn 0.000000 0.000000 0.000000
vn 0.000000 0.000000 0.000000
vn 0.000000 0.000000 0.000000
vn 0.000000 0.000000 0.000000
vn 0.000000 0.000000 0.000000
vn 0.000000 0.000000 0.000000
vn 0.000000 0.000000 0.000000
vn 0.000000 0.000000 0.000000
vn 0.000000 0.000000 0.000000
vn 0.000000 0.000000 0.000000
vn 0.000000 0.000000 0.000000
vn 0.000000 0.000000 0.000000
vn 0.000000 0.000000 0.000000
vn 0.000000 0.000000 0.000000
vn 0.000000 0.000000 0.000000
vn 0.000000 0.000000 0.000000
vn 0.000000 0.000000 0.000000
vn 0.000000 0.000000 0.000000
vn 0.000000 0.000000 0.000000
vn 0.000000 0.000000 0.000000
vn 0.000000 0.000000 0.000000
vn 0.000000 0.000000 0.000000
vn 0.000000 0.000000 0.000000
vn 0.000000 0.000000 0.000000
vn 0.000000 0.000000 0.000000
vn 0.000000 0.000000 0.000000
vn 0.000000 0.000000 0.000000
vn 0.000000 0.000000 0.000000
vn 0.000000 0.000000 0.000000
vn 0.000000 0.000000 0.000000
vn 0.000000 0.000000 0.000000
vn 0.000000 0.000000 0.000000
vn 0.000000 0.000000 0.000000
vn 0.000000 0.000000 0.000000
vn 0.000000 0.000000 0.000000
vn 0.000000 0.000000 0.000000
vn 0.000000 0.000000 0.000000
vn 0.000000 0.000000 0.000000
vn 0.000000 0.000000 0.000000
vn 0.000000 0.000000 0.000000
vn 0.000000 0.000000 0.000000
vn 0.000000 0.000000 0.000000
vn 0.000000 0.000000 0.000000
vn 0.000000 0.000000 0.000000
vn 0.000000 0.000000 0.000000
vn 0.000000 0.000000 0.000000
vn 0.000000 0.000000 0.000000
vn 0.000000 0.000000 0.000000
vn 0.000000 0.000000 0.000000
vn 0.000000 0.000000 0.000000
vn 0.000000 0.000000 0.000000
vn 0.000000 0.000000 0.000000
vn 0.000000 0.000000 0.000000
vn 0.000000 0.000000 0.000000
vn 0.000000 0.000000 0.000000
vn 0.000000 0.000000 0.000000
vn 0.000000 0.000000 0.000000
vn 0.000000 0.000000 0.000000
vn 0.000000 0.000000 0.000000
vn 0.000000 0.000000 0.000000
vn 0.000000 0.000000 0.000000
vn 0.000000 0.000000 0.000000
vn 0.000000 0.000000 0.000000
vn 0.000000 0.000000 0.000000
vn 0.000000 0.000000 0.000000
vn 0.000000 0.000000 0.000000
vn 0.000000 0.000000 0.000000
vn 0.000000 0.000000 0.000000
vn 0.000000 0.000000 0.000000
vn 0.000000 0.000000 0.000000
vn 0.000000 0.000000 0.000000
vn 0.000000 0.000000 0.000000
vn 0.000000 0.000000 0.000000
vn 0.000000 0.000000 0.000000
vn 0.000000 0.000000 0.000000
vn 0.000000 0.000000 0.000000
vn 0.000000 0.000000 0.000000
vn 0.000000 0.000000 0.000000
vn 0.000000 0.000000 0.000000
vn 0.000000 0.000000 0.000000
vn 0.000000 0.000000 0.000000
vn 0.000000 0.000000 0.000000
vn 0.000000 0.000000 0.000000
vn 0.000000 0.000000 0.000000
vn 0.000000 0.000000 0.000000
vn 0.000000 0.000000 0.000000
vn 0.000000 0.000000 0.000000
vn 0.000000 0.000000 0.000000
vn 0.000000 0.000000 0.000000
vn 0.000000 0.000000 0.000000
vn 0.000000 0.000000 0.000000
vn 0.000000 0.000000 0.000000
vn 0.000000 0.000000 0.000000
vn 0.000000 0.000000 0.000000
vn 0.000000 0.000000 0.000000
vn 0.000000 0.000000 0.000000
vn 0.000000 0.000000 0.000000
vn 0.000000 0.000000 0.000000
vn 0.000000 0.000000 0.000000
vn 0.000000 0.000000 0.000000
vn 0.000000 0.000000 0.000000
vn 0.000000 0.000000 0.000000
vn 0.000000 0.000000 0.000000
vn 0.000000 0.000000 0.000000
vn 0.000000 0.000000 0.000000
vn 0.000000 0.000000 0.000000
vn 0.000000 0.000000 0.000000
vn 0.000000 0.000000 0.000000
vn 0.000000 0.000000 0.000000
vn 0.000000 0.000000 0.000000
vn 0.000000 0.000000 0.000000
vn -0.461879 -0.886943 0.000030
vn 0.000000 0.000000 0.000000
vn 0.000000 0.000000 0.000000
vn 0.000000 0.000000 0.000000
vn 0.000000 0.000000 0.000000
vn 0.000000 0.000000 0.000000
vn 0.000000 0.000000 0.000000
vn 0.000000 0.000000 0.000000
vn 0.000000 0.000000 0.000000
vn 0.000000 0.000000 0.000000
vn 0.000000 0.000000 0.000000
vn 0.000000 0.000000 0.000000
vn 0.000000 0.000000 0.000000
vn 0.000000 0.000000 0.000000
vn 0.000000 0.000000 0.000000
vn 0.000000 0.000000 0.000000
vn -0.401472 -0.915871 0.000042

# Faces
f 1//1 272//272 17//17
f 272//272 1//1 256//256
